<svg width="139" height="40" viewBox="0 0 139 40" fill="none" xmlns="http://www.w3.org/2000/svg">
<path d="M137.962 35.3871C137.962 37.5188 136.199 39.2454 134.019 39.2454H4.98709C2.80791 39.2454 1.03906 37.5188 1.03906 35.3871V4.61824C1.03906 2.4876 2.80791 0.754883 4.98709 0.754883H134.018C136.199 0.754883 137.961 2.4876 137.961 4.61824L137.962 35.3871Z" fill="black"/>
<path d="M133.603 0.80125C135.977 0.80125 137.909 2.68501 137.909 5V35C137.909 37.315 135.977 39.1988 133.603 39.1988H5.39774C3.02338 39.1988 1.09133 37.315 1.09133 35V5C1.09133 2.68501 3.02338 0.80125 5.39774 0.80125H133.603ZM133.603 3.8147e-06H5.39774C2.57851 3.8147e-06 0.269531 2.25126 0.269531 5V35C0.269531 37.7487 2.57851 40 5.39774 40H133.603C136.422 40 138.731 37.7487 138.731 35V5C138.731 2.25126 136.422 3.8147e-06 133.603 3.8147e-06Z" fill="#A6A6A6"/>
<path d="M31.1703 19.7838C31.1405 16.5608 33.8769 14.9928 34.0021 14.9198C32.4523 12.7168 30.0503 12.4158 29.2062 12.3918C27.1887 12.1848 25.2318 13.5688 24.2041 13.5688C23.1559 13.5688 21.5733 12.4118 19.8677 12.4458C17.6728 12.4788 15.6195 13.7178 14.4933 15.6418C12.1692 19.5648 13.9026 25.3298 16.1292 28.5008C17.2431 30.0538 18.5446 31.7878 20.2482 31.7268C21.9149 31.6598 22.5374 30.6908 24.5487 30.6908C26.5415 30.6908 27.1262 31.7268 28.8636 31.6878C30.6523 31.6598 31.7785 30.1278 32.8533 28.5608C34.1405 26.7808 34.6574 25.0278 34.6779 24.9378C34.6359 24.9238 31.2041 23.6468 31.1703 19.7838Z" fill="white"/>
<path d="M27.8882 10.3058C28.7846 9.2128 29.3979 7.7258 29.2277 6.2168C27.9303 6.2728 26.3077 7.0918 25.3733 8.1608C24.5467 9.1028 23.8082 10.6468 23.999 12.0988C25.4564 12.2048 26.9528 11.3818 27.8882 10.3058Z" fill="white"/>
<path d="M50.5772 10.0092C50.5772 11.1862 50.2152 12.0722 49.4921 12.6672C48.8224 13.2162 47.8706 13.4912 46.6377 13.4912C46.0265 13.4912 45.5034 13.4652 45.0654 13.4132V6.98219C45.6367 6.89219 46.2521 6.84619 46.9167 6.84619C48.0911 6.84619 48.9762 7.09519 49.5731 7.59319C50.2418 8.15619 50.5772 8.96119 50.5772 10.0092ZM49.4439 10.0382C49.4439 9.27519 49.2367 8.69019 48.8224 8.28219C48.408 7.87519 47.8029 7.67119 47.0059 7.67119C46.6675 7.67119 46.3793 7.69319 46.1403 7.73919V12.6282C46.2726 12.6482 46.5147 12.6572 46.8665 12.6572C47.689 12.6572 48.3239 12.4342 48.7711 11.9882C49.2183 11.5422 49.4439 10.8922 49.4439 10.0382Z" fill="white"/>
<path d="M56.586 11.037C56.586 11.762 56.3737 12.356 55.949 12.822C55.5039 13.301 54.9142 13.54 54.1778 13.54C53.468 13.54 52.9029 13.311 52.4814 12.851C52.0608 12.392 51.8506 11.813 51.8506 11.115C51.8506 10.385 52.067 9.78605 52.5019 9.32105C52.9367 8.85605 53.5214 8.62305 54.2578 8.62305C54.9675 8.62305 55.5378 8.85205 55.9696 9.31105C56.3798 9.75705 56.586 10.333 56.586 11.037ZM55.4711 11.071C55.4711 10.636 55.3747 10.263 55.1829 9.95205C54.9573 9.57605 54.6362 9.38805 54.2188 9.38805C53.787 9.38805 53.4588 9.57605 53.2332 9.95205C53.0403 10.263 52.9449 10.642 52.9449 11.09C52.9449 11.525 53.0414 11.898 53.2332 12.209C53.466 12.585 53.7901 12.773 54.2085 12.773C54.6188 12.773 54.9408 12.582 55.1726 12.199C55.3716 11.882 55.4711 11.506 55.4711 11.071Z" fill="white"/>
<path d="M64.6438 8.71924L63.131 13.4332H62.1464L61.5197 11.3862C61.3607 10.8752 61.2315 10.3672 61.131 9.86324H61.1115C61.0182 10.3812 60.8889 10.8882 60.7228 11.3862L60.0571 13.4332H59.0612L57.6387 8.71924H58.7433L59.29 10.9602C59.4223 11.4902 59.531 11.9952 59.6182 12.4732H59.6376C59.7176 12.0792 59.85 11.5772 60.0366 10.9702L60.7228 8.72024H61.5987L62.2561 10.9222C62.4151 11.4592 62.5443 11.9762 62.6438 12.4742H62.6735C62.7464 11.9892 62.8561 11.4722 63.0017 10.9222L63.5884 8.72024H64.6438V8.71924Z" fill="white"/>
<path d="M70.2165 13.4331H69.1416V10.7331C69.1416 9.90112 68.8175 9.48512 68.1672 9.48512C67.8483 9.48512 67.5908 9.59912 67.3908 9.82812C67.1929 10.0571 67.0924 10.3271 67.0924 10.6361V13.4321H66.0175V10.0661C66.0175 9.65212 66.0042 9.20312 65.9785 8.71712H66.9231L66.9734 9.45412H67.0031C67.1283 9.22512 67.3149 9.03612 67.5601 8.88512C67.8513 8.70912 68.1775 8.62012 68.5344 8.62012C68.9857 8.62012 69.3611 8.76212 69.6595 9.04712C70.0308 9.39612 70.2165 9.91712 70.2165 10.6091V13.4331Z" fill="white"/>
<path d="M73.1803 13.4332H72.1064V6.55615H73.1803V13.4332Z" fill="white"/>
<path d="M79.5088 11.037C79.5088 11.762 79.2965 12.356 78.8719 12.822C78.4268 13.301 77.836 13.54 77.1006 13.54C76.3899 13.54 75.8247 13.311 75.4042 12.851C74.9837 12.392 74.7734 11.813 74.7734 11.115C74.7734 10.385 74.9898 9.78605 75.4247 9.32105C75.8596 8.85605 76.4442 8.62305 77.1796 8.62305C77.8904 8.62305 78.4596 8.85205 78.8924 9.31105C79.3027 9.75705 79.5088 10.333 79.5088 11.037ZM78.3929 11.071C78.3929 10.636 78.2965 10.263 78.1047 9.95205C77.8801 9.57605 77.558 9.38805 77.1416 9.38805C76.7088 9.38805 76.3806 9.57605 76.156 9.95205C75.9632 10.263 75.8678 10.642 75.8678 11.09C75.8678 11.525 75.9642 11.898 76.156 12.209C76.3888 12.585 76.7129 12.773 77.1314 12.773C77.5416 12.773 77.8627 12.582 78.0945 12.199C78.2945 11.882 78.3929 11.506 78.3929 11.071Z" fill="white"/>
<path d="M84.7104 13.433H83.7453L83.6653 12.89H83.6356C83.3053 13.323 82.8345 13.54 82.2233 13.54C81.7669 13.54 81.3976 13.397 81.1197 13.113C80.8674 12.855 80.7412 12.534 80.7412 12.153C80.7412 11.577 80.9874 11.138 81.4827 10.834C81.9771 10.53 82.6725 10.381 83.5679 10.388V10.3C83.5679 9.67905 83.2335 9.36905 82.5638 9.36905C82.0869 9.36905 81.6663 9.48605 81.3033 9.71805L81.0848 9.03005C81.534 8.75905 82.0889 8.62305 82.7433 8.62305C84.0069 8.62305 84.6407 9.27305 84.6407 10.573V12.309C84.6407 12.78 84.6643 13.155 84.7104 13.433ZM83.5945 11.813V11.086C82.4089 11.066 81.8161 11.383 81.8161 12.036C81.8161 12.282 81.8838 12.466 82.0222 12.589C82.1607 12.712 82.3371 12.773 82.5474 12.773C82.7833 12.773 83.0038 12.7 83.2048 12.555C83.4069 12.409 83.531 12.224 83.5771 11.997C83.5884 11.946 83.5945 11.884 83.5945 11.813Z" fill="white"/>
<path d="M90.8185 13.4332H89.8647L89.8144 12.6762H89.7847C89.48 13.2522 88.9611 13.5402 88.2318 13.5402C87.6493 13.5402 87.1641 13.3172 86.7795 12.8712C86.3949 12.4252 86.2031 11.8462 86.2031 11.1352C86.2031 10.3722 86.4113 9.75415 86.8298 9.28215C87.2349 8.84215 87.7313 8.62215 88.3221 8.62215C88.9713 8.62215 89.4257 8.83515 89.6841 9.26215H89.7047V6.55615H90.7806V12.1632C90.7806 12.6222 90.7929 13.0452 90.8185 13.4332ZM89.7047 11.4452V10.6592C89.7047 10.5232 89.6944 10.4132 89.6749 10.3292C89.6144 10.0772 89.4841 9.86515 89.2862 9.69415C89.0862 9.52315 88.8452 9.43715 88.5672 9.43715C88.1662 9.43715 87.8523 9.59215 87.6216 9.90315C87.3929 10.2142 87.277 10.6112 87.277 11.0962C87.277 11.5622 87.3867 11.9402 87.6072 12.2312C87.84 12.5412 88.1539 12.6962 88.5467 12.6962C88.8995 12.6962 89.1816 12.5672 89.3959 12.3082C89.6031 12.0692 89.7047 11.7812 89.7047 11.4452Z" fill="white"/>
<path d="M100.011 11.037C100.011 11.762 99.7985 12.356 99.3738 12.822C98.9287 13.301 98.34 13.54 97.6026 13.54C96.8939 13.54 96.3287 13.311 95.9062 12.851C95.4857 12.392 95.2754 11.813 95.2754 11.115C95.2754 10.385 95.4918 9.78605 95.9267 9.32105C96.3615 8.85605 96.9462 8.62305 97.6836 8.62305C98.3923 8.62305 98.9636 8.85205 99.3944 9.31105C99.8046 9.75705 100.011 10.333 100.011 11.037ZM98.8969 11.071C98.8969 10.636 98.8005 10.263 98.6087 9.95205C98.3821 9.57605 98.0621 9.38805 97.6436 9.38805C97.2128 9.38805 96.8846 9.57605 96.658 9.95205C96.4651 10.263 96.3697 10.642 96.3697 11.09C96.3697 11.525 96.4662 11.898 96.658 12.209C96.8908 12.585 97.2149 12.773 97.6333 12.773C98.0436 12.773 98.3667 12.582 98.5985 12.199C98.7964 11.882 98.8969 11.506 98.8969 11.071Z" fill="white"/>
<path d="M105.791 13.4331H104.717V10.7331C104.717 9.90112 104.393 9.48512 103.741 9.48512C103.422 9.48512 103.165 9.59912 102.966 9.82812C102.767 10.0571 102.668 10.3271 102.668 10.6361V13.4321H101.592V10.0661C101.592 9.65212 101.579 9.20312 101.554 8.71712H102.497L102.548 9.45412H102.577C102.703 9.22512 102.89 9.03612 103.134 8.88512C103.427 8.70912 103.752 8.62012 104.11 8.62012C104.56 8.62012 104.935 8.76212 105.234 9.04712C105.606 9.39612 105.791 9.91712 105.791 10.6091V13.4331Z" fill="white"/>
<path d="M113.025 9.50392H111.841V11.7939C111.841 12.3759 112.051 12.6669 112.468 12.6669C112.661 12.6669 112.821 12.6509 112.947 12.6179L112.974 13.4129C112.762 13.4909 112.483 13.5299 112.14 13.5299C111.715 13.5299 111.385 13.4039 111.146 13.1519C110.906 12.8999 110.787 12.4759 110.787 11.8809V9.50392H110.08V8.71892H110.787V7.85492L111.84 7.54492V8.71792H113.024V9.50392H113.025Z" fill="white"/>
<path d="M118.715 13.4332H117.639V10.7532C117.639 9.90815 117.315 9.48515 116.665 9.48515C116.167 9.48515 115.826 9.73015 115.64 10.2202C115.608 10.3232 115.589 10.4492 115.589 10.5972V13.4322H114.516V6.55615H115.589V9.39715H115.61C115.948 8.88015 116.434 8.62215 117.062 8.62215C117.507 8.62215 117.876 8.76415 118.168 9.04915C118.532 9.40415 118.715 9.93215 118.715 10.6302V13.4332Z" fill="white"/>
<path d="M124.585 10.8533C124.585 11.0413 124.57 11.1993 124.545 11.3283H121.321C121.335 11.7943 121.489 12.1493 121.788 12.3953C122.06 12.6153 122.412 12.7253 122.843 12.7253C123.32 12.7253 123.755 12.6513 124.147 12.5023L124.315 13.2303C123.856 13.4243 123.317 13.5213 122.692 13.5213C121.944 13.5213 121.354 13.3063 120.927 12.8763C120.498 12.4463 120.286 11.8693 120.286 11.1453C120.286 10.4343 120.484 9.84226 120.883 9.37026C121.299 8.86626 121.863 8.61426 122.573 8.61426C123.269 8.61426 123.797 8.86626 124.154 9.37026C124.442 9.77026 124.585 10.2653 124.585 10.8533ZM123.559 10.5823C123.567 10.2713 123.496 10.0033 123.351 9.77726C123.164 9.48626 122.88 9.34026 122.495 9.34026C122.145 9.34026 121.858 9.48226 121.64 9.76726C121.462 9.99426 121.356 10.2653 121.321 10.5823H123.559Z" fill="white"/>
<path d="M55.2897 31.5038H52.9604L51.6846 27.5948H47.2497L46.0343 31.5038H43.7666L48.1604 18.1958H50.8743L55.2897 31.5038ZM51.2999 25.9548L50.1461 22.4798C50.024 22.1248 49.7953 21.2888 49.4579 19.9728H49.4169C49.2825 20.5388 49.0661 21.3748 48.7687 22.4798L47.6353 25.9548H51.2999Z" fill="white"/>
<path d="M66.5893 26.5879C66.5893 28.2199 66.137 29.5099 65.2324 30.4569C64.4221 31.2999 63.4159 31.7209 62.2149 31.7209C60.9185 31.7209 59.9872 31.2669 59.42 30.3589H59.379V35.4139H57.1924V25.0669C57.1924 24.0409 57.1647 22.9879 57.1113 21.9079H59.0344L59.1565 23.4289H59.1975C59.9267 22.2829 61.0334 21.7109 62.5185 21.7109C63.6795 21.7109 64.6488 22.1579 65.4241 23.0529C66.2016 23.9489 66.5893 25.1269 66.5893 26.5879ZM64.3616 26.6659C64.3616 25.7319 64.1462 24.9619 63.7134 24.3559C63.2406 23.7239 62.6057 23.4079 61.8098 23.4079C61.2703 23.4079 60.78 23.5839 60.3421 23.9309C59.9031 24.2809 59.6159 24.7379 59.4816 25.3039C59.4139 25.5679 59.38 25.7839 59.38 25.9539V27.5539C59.38 28.2519 59.5995 28.8409 60.0385 29.3219C60.4775 29.8029 61.0477 30.0429 61.7493 30.0429C62.5729 30.0429 63.2139 29.7329 63.6724 29.1149C64.1318 28.4959 64.3616 27.6799 64.3616 26.6659Z" fill="white"/>
<path d="M77.9095 26.5879C77.9095 28.2199 77.4572 29.5099 76.5516 30.4569C75.7424 31.2999 74.7362 31.7209 73.5352 31.7209C72.2388 31.7209 71.3075 31.2669 70.7413 30.3589H70.7003V35.4139H68.5136V25.0669C68.5136 24.0409 68.486 22.9879 68.4326 21.9079H70.3557L70.4778 23.4289H70.5188C71.247 22.2829 72.3536 21.7109 73.8398 21.7109C74.9998 21.7109 75.969 22.1579 76.7465 23.0529C77.5208 23.9489 77.9095 25.1269 77.9095 26.5879ZM75.6819 26.6659C75.6819 25.7319 75.4654 24.9619 75.0326 24.3559C74.5598 23.7239 73.927 23.4079 73.1301 23.4079C72.5895 23.4079 72.1003 23.5839 71.6613 23.9309C71.2224 24.2809 70.9362 24.7379 70.8018 25.3039C70.7352 25.5679 70.7003 25.7839 70.7003 25.9539V27.5539C70.7003 28.2519 70.9198 28.8409 71.3567 29.3219C71.7957 29.8019 72.366 30.0429 73.0695 30.0429C73.8931 30.0429 74.5342 29.7329 74.9926 29.1149C75.4521 28.4959 75.6819 27.6799 75.6819 26.6659Z" fill="white"/>
<path d="M90.5653 27.772C90.5653 28.904 90.1623 29.825 89.353 30.536C88.4638 31.313 87.2259 31.701 85.6351 31.701C84.1664 31.701 82.9889 31.425 82.0977 30.872L82.6043 29.095C83.5643 29.661 84.6177 29.945 85.7653 29.945C86.5889 29.945 87.23 29.763 87.6905 29.401C88.1489 29.039 88.3777 28.553 88.3777 27.947C88.3777 27.407 88.1889 26.952 87.8105 26.583C87.4341 26.214 86.8053 25.871 85.9274 25.554C83.5377 24.685 82.3438 23.412 82.3438 21.738C82.3438 20.644 82.7623 19.747 83.6002 19.049C84.4351 18.35 85.5489 18.001 86.9418 18.001C88.1838 18.001 89.2156 18.212 90.0392 18.633L89.4925 20.371C88.7233 19.963 87.8536 19.759 86.8802 19.759C86.111 19.759 85.51 19.944 85.0792 20.312C84.7151 20.641 84.5325 21.042 84.5325 21.517C84.5325 22.043 84.7407 22.478 85.1592 22.82C85.5233 23.136 86.1848 23.478 87.1448 23.847C88.3192 24.308 89.1818 24.847 89.7366 25.465C90.2894 26.081 90.5653 26.852 90.5653 27.772Z" fill="white"/>
<path d="M97.7956 23.5081H95.3853V28.1671C95.3853 29.3521 95.81 29.9441 96.6612 29.9441C97.052 29.9441 97.3761 29.9111 97.6325 29.8451L97.693 31.4641C97.2623 31.6211 96.6951 31.7001 95.9925 31.7001C95.1289 31.7001 94.4541 31.4431 93.9669 30.9301C93.4818 30.4161 93.2376 29.5541 93.2376 28.3431V23.5061H91.8018V21.9061H93.2376V20.1491L95.3853 19.5171V21.9061H97.7956V23.5081Z" fill="white"/>
<path d="M108.67 26.6269C108.67 28.1019 108.237 29.3129 107.374 30.2599C106.468 31.2349 105.266 31.7209 103.768 31.7209C102.324 31.7209 101.174 31.2539 100.316 30.3199C99.459 29.3859 99.0303 28.2069 99.0303 26.7859C99.0303 25.2989 99.4713 24.0809 100.356 23.1339C101.24 22.1859 102.431 21.7119 103.93 21.7119C105.374 21.7119 106.536 22.1789 107.413 23.1139C108.252 24.0209 108.67 25.1919 108.67 26.6269ZM106.402 26.6959C106.402 25.8109 106.208 25.0519 105.815 24.4189C105.356 23.6529 104.701 23.2709 103.852 23.2709C102.973 23.2709 102.305 23.6539 101.847 24.4189C101.454 25.0529 101.26 25.8239 101.26 26.7359C101.26 27.6209 101.454 28.3799 101.847 29.0119C102.32 29.7779 102.98 30.1599 103.832 30.1599C104.667 30.1599 105.323 29.7699 105.795 28.9919C106.198 28.3469 106.402 27.5799 106.402 26.6959Z" fill="white"/>
<path d="M115.778 23.7829C115.562 23.7439 115.331 23.7239 115.089 23.7239C114.32 23.7239 113.725 24.0069 113.307 24.5739C112.942 25.0739 112.76 25.7059 112.76 26.4689V31.5039H110.574L110.595 24.9299C110.595 23.8239 110.567 22.8169 110.513 21.9089H112.417L112.497 23.7449H112.558C112.789 23.1139 113.153 22.6059 113.651 22.2249C114.138 21.8819 114.665 21.7109 115.232 21.7109C115.434 21.7109 115.616 21.7249 115.778 21.7499V23.7829Z" fill="white"/>
<path d="M125.557 26.2519C125.557 26.6339 125.532 26.9559 125.477 27.2189H118.917C118.943 28.1669 119.26 28.8919 119.869 29.3919C120.422 29.8389 121.137 30.0629 122.015 30.0629C122.986 30.0629 123.872 29.9119 124.669 29.6089L125.012 31.0889C124.08 31.4849 122.981 31.6819 121.712 31.6819C120.186 31.6819 118.988 31.2439 118.116 30.3689C117.246 29.4939 116.811 28.3189 116.811 26.8449C116.811 25.3979 117.216 24.1929 118.027 23.2319C118.876 22.2059 120.024 21.6929 121.468 21.6929C122.886 21.6929 123.96 22.2059 124.69 23.2319C125.267 24.0469 125.557 25.0549 125.557 26.2519ZM123.472 25.6989C123.486 25.0669 123.344 24.5209 123.047 24.0599C122.669 23.4669 122.087 23.1709 121.305 23.1709C120.59 23.1709 120.008 23.4599 119.564 24.0399C119.2 24.5009 118.984 25.0539 118.917 25.6979H123.472V25.6989Z" fill="white"/>
</svg>
