<svg width="139" height="40" viewBox="0 0 139 40" fill="none" xmlns="http://www.w3.org/2000/svg">
<path d="M133.603 40H5.39774C2.57851 40 0.269531 37.7488 0.269531 35V5C0.269531 2.25125 2.57851 2.38419e-06 5.39774 2.38419e-06H133.603C136.422 2.38419e-06 138.731 2.25125 138.731 5V35C138.731 37.7488 136.422 40 133.603 40Z" fill="black"/>
<path d="M133.603 0.801251C135.977 0.801251 137.909 2.685 137.909 5V35C137.909 37.315 135.977 39.1988 133.603 39.1988H5.39774C3.02338 39.1988 1.09133 37.315 1.09133 35V5C1.09133 2.685 3.02338 0.801251 5.39774 0.801251H133.603ZM133.603 2.38419e-06H5.39774C2.57851 2.38419e-06 0.269531 2.25125 0.269531 5V35C0.269531 37.7488 2.57851 40 5.39774 40H133.603C136.422 40 138.731 37.7488 138.731 35V5C138.731 2.25125 136.422 2.38419e-06 133.603 2.38419e-06Z" fill="#A6A6A6"/>
<path d="M10.9717 7.53918C10.6705 7.84668 10.4961 8.32543 10.4961 8.94543V31.0604C10.4961 31.6804 10.6705 32.1592 10.9717 32.4667L11.0461 32.5342L23.7563 20.1467V19.8542L11.0461 7.46668L10.9717 7.53918Z" fill="url(#paint0_linear_750_10090)"/>
<path d="M27.9879 24.2778L23.7559 20.1466V19.8541L27.993 15.7228L28.0879 15.7766L33.1059 18.5603C34.5379 19.3503 34.5379 20.6503 33.1059 21.4453L28.0879 24.2241L27.9879 24.2778Z" fill="url(#paint1_linear_750_10090)"/>
<path d="M28.0883 24.224L23.7563 20.0002L10.9717 32.4665C11.4473 32.954 12.223 33.0127 13.105 32.5252L28.0883 24.224Z" fill="url(#paint2_linear_750_10090)"/>
<path d="M28.0883 15.7763L13.105 7.475C12.223 6.9925 11.4473 7.05125 10.9717 7.53875L23.7563 20L28.0883 15.7763Z" fill="url(#paint3_linear_750_10090)"/>
<path d="M48.9031 10.2435C48.9031 11.0785 48.6467 11.7472 48.1416 12.246C47.5608 12.8372 46.8044 13.1347 45.8775 13.1347C44.9916 13.1347 44.2352 12.8322 43.6147 12.236C42.9929 11.631 42.6826 10.8885 42.6826 9.99975C42.6826 9.111 42.9929 8.3685 43.6147 7.7685C44.2352 7.16725 44.9916 6.86475 45.8775 6.86475C46.3185 6.86475 46.739 6.9535 47.1403 7.1185C47.5403 7.28475 47.8659 7.50975 48.1018 7.78725L47.566 8.31475C47.1544 7.841 46.5942 7.60725 45.8775 7.60725C45.2313 7.60725 44.6711 7.82725 44.1954 8.271C43.7249 8.716 43.489 9.29225 43.489 9.99975C43.489 10.7072 43.7249 11.2885 44.1954 11.7335C44.6711 12.1722 45.2313 12.3972 45.8775 12.3972C46.5634 12.3972 47.1403 12.1722 47.5954 11.7285C47.8954 11.4347 48.066 11.0297 48.1108 10.5122H45.8775V9.78975H48.857C48.8929 9.946 48.9031 10.0972 48.9031 10.2435Z" fill="white" stroke="white" strokeWidth="0.16" stroke-miterlimit="10"/>
<path d="M53.6301 7.73869H50.8314V9.63869H53.3544V10.3612H50.8314V12.2612H53.6301V12.9974H50.0391V7.00244H53.6301V7.73869Z" fill="white" stroke="white" strokeWidth="0.16" stroke-miterlimit="10"/>
<path d="M56.966 12.9974H56.1737V7.73869H54.457V7.00244H58.684V7.73869H56.966V12.9974Z" fill="white" stroke="white" strokeWidth="0.16" stroke-miterlimit="10"/>
<path d="M61.7432 12.9974V7.00244H62.5342V12.9974H61.7432Z" fill="white" stroke="white" strokeWidth="0.16" stroke-miterlimit="10"/>
<path d="M66.0402 12.9974H65.2543V7.73869H63.5312V7.00244H67.7633V7.73869H66.0402V12.9974Z" fill="white" stroke="white" strokeWidth="0.16" stroke-miterlimit="10"/>
<path d="M75.7659 12.226C75.1595 12.8322 74.4082 13.1347 73.5121 13.1347C72.6108 13.1347 71.8595 12.8322 71.2531 12.226C70.648 11.621 70.3467 10.8785 70.3467 9.99975C70.3467 9.121 70.648 8.3785 71.2531 7.7735C71.8595 7.16725 72.6108 6.86475 73.5121 6.86475C74.4031 6.86475 75.1544 7.16725 75.7608 7.7785C76.371 8.3885 76.6723 9.126 76.6723 9.99975C76.6723 10.8785 76.371 11.621 75.7659 12.226ZM71.839 11.7235C72.2954 12.1722 72.8505 12.3972 73.5121 12.3972C74.1685 12.3972 74.7287 12.1722 75.18 11.7235C75.6351 11.2747 75.8659 10.6985 75.8659 9.99975C75.8659 9.301 75.6351 8.72475 75.18 8.276C74.7287 7.82725 74.1685 7.60225 73.5121 7.60225C72.8505 7.60225 72.2954 7.82725 71.839 8.276C71.3839 8.72475 71.1531 9.301 71.1531 9.99975C71.1531 10.6985 71.3839 11.2747 71.839 11.7235Z" fill="white" stroke="white" strokeWidth="0.16" stroke-miterlimit="10"/>
<path d="M77.7842 12.9974V7.00244H78.7457L81.7355 11.6649H81.7701L81.7355 10.5124V7.00244H82.5265V12.9974H81.7008L78.5701 8.10494H78.5355L78.5701 9.26244V12.9974H77.7842Z" fill="white" stroke="white" strokeWidth="0.16" stroke-miterlimit="10"/>
<path d="M70.152 21.7526C67.7431 21.7526 65.7751 23.5401 65.7751 26.0064C65.7751 28.4526 67.7431 30.2589 70.152 30.2589C72.5661 30.2589 74.5341 28.4526 74.5341 26.0064C74.5341 23.5401 72.5661 21.7526 70.152 21.7526ZM70.152 28.5839C68.8302 28.5839 67.6931 27.5201 67.6931 26.0064C67.6931 24.4726 68.8302 23.4276 70.152 23.4276C71.4738 23.4276 72.6161 24.4726 72.6161 26.0064C72.6161 27.5201 71.4738 28.5839 70.152 28.5839ZM60.602 21.7526C58.1879 21.7526 56.2251 23.5401 56.2251 26.0064C56.2251 28.4526 58.1879 30.2589 60.602 30.2589C63.0149 30.2589 64.979 28.4526 64.979 26.0064C64.979 23.5401 63.0149 21.7526 60.602 21.7526ZM60.602 28.5839C59.279 28.5839 58.1379 27.5201 58.1379 26.0064C58.1379 24.4726 59.279 23.4276 60.602 23.4276C61.9238 23.4276 63.061 24.4726 63.061 26.0064C63.061 27.5201 61.9238 28.5839 60.602 28.5839ZM49.2379 23.0564V24.8639H53.6649C53.5354 25.8739 53.1892 26.6164 52.6585 27.1339C52.0123 27.7589 51.0059 28.4526 49.2379 28.4526C46.5136 28.4526 44.3802 26.3089 44.3802 23.6526C44.3802 20.9964 46.5136 18.8526 49.2379 18.8526C50.711 18.8526 51.7828 19.4139 52.5738 20.1414L53.8803 18.8676C52.7738 17.8376 51.302 17.0464 49.2379 17.0464C45.502 17.0464 42.3623 20.0101 42.3623 23.6526C42.3623 27.2951 45.502 30.2589 49.2379 30.2589C51.2572 30.2589 52.7738 29.6139 53.9661 28.4039C55.1879 27.2126 55.5687 25.5376 55.5687 24.1851C55.5687 23.7651 55.5328 23.3789 55.4687 23.0564H49.2379ZM95.7072 24.4576C95.3469 23.5064 94.2354 21.7526 91.9713 21.7526C89.7277 21.7526 87.8597 23.4764 87.8597 26.0064C87.8597 28.3889 89.7084 30.2589 92.1866 30.2589C94.1905 30.2589 95.3469 29.0676 95.8225 28.3739L94.3354 27.4076C93.8392 28.1151 93.1636 28.5839 92.1866 28.5839C91.2161 28.5839 90.52 28.1501 90.0738 27.2951L95.9084 24.9414L95.7072 24.4576ZM89.7584 25.8739C89.7084 24.2339 91.0649 23.3939 92.0367 23.3939C92.7982 23.3939 93.4443 23.7651 93.6597 24.2964L89.7584 25.8739ZM85.0161 30.0001H86.9341V17.5001H85.0161V30.0001ZM81.8751 22.7001H81.811C81.3802 22.2026 80.5585 21.7526 79.5174 21.7526C77.3328 21.7526 75.3354 23.6226 75.3354 26.0201C75.3354 28.4039 77.3328 30.2589 79.5174 30.2589C80.5585 30.2589 81.3802 29.8051 81.811 29.2926H81.8751V29.9026C81.8751 31.5289 80.9841 32.4026 79.5469 32.4026C78.3751 32.4026 77.6482 31.5776 77.3482 30.8839L75.6802 31.5626C76.161 32.6901 77.4341 34.0776 79.5469 34.0776C81.7956 34.0776 83.6931 32.7876 83.6931 29.6489V22.0114H81.8751V22.7001ZM79.6815 28.5839C78.3597 28.5839 77.2533 27.5051 77.2533 26.0201C77.2533 24.5214 78.3597 23.4276 79.6815 23.4276C80.9841 23.4276 82.011 24.5214 82.011 26.0201C82.011 27.5051 80.9841 28.5839 79.6815 28.5839ZM104.687 17.5001H100.099V30.0001H102.012V25.2639H104.687C106.811 25.2639 108.894 23.7651 108.894 21.3814C108.894 18.9989 106.806 17.5001 104.687 17.5001ZM104.737 23.5251H102.012V19.2389H104.737C106.165 19.2389 106.98 20.3951 106.98 21.3814C106.98 22.3489 106.165 23.5251 104.737 23.5251ZM116.561 21.7289C115.179 21.7289 113.742 22.3239 113.151 23.6426L114.848 24.3364C115.214 23.6426 115.885 23.4176 116.596 23.4176C117.588 23.4176 118.594 23.9989 118.61 25.0251V25.1564C118.264 24.9614 117.523 24.6726 116.611 24.6726C114.783 24.6726 112.92 25.6539 112.92 27.4851C112.92 29.1601 114.417 30.2389 116.101 30.2389C117.388 30.2389 118.098 29.6726 118.544 29.0139H118.61V29.9801H120.457V25.1851C120.457 22.9689 118.76 21.7289 116.561 21.7289ZM116.33 28.5789C115.705 28.5789 114.833 28.2764 114.833 27.5201C114.833 26.5526 115.92 26.1814 116.861 26.1814C117.703 26.1814 118.098 26.3626 118.61 26.6014C118.46 27.7589 117.438 28.5789 116.33 28.5789ZM127.188 22.0026L124.989 27.4214H124.924L122.651 22.0026H120.588L124.003 29.5751L122.055 33.7889H124.053L129.316 22.0026H127.188ZM109.946 30.0001H111.864V17.5001H109.946V30.0001Z" fill="white"/>
<defs>
<linearGradient id="paint0_linear_750_10090" x1="22.6278" y1="31.2907" x2="5.85081" y2="14.0835" gradientUnits="userSpaceOnUse">
<stop stop-color="#00A0FF"/>
<stop offset="0.0066" stop-color="#00A1FF"/>
<stop offset="0.2601" stop-color="#00BEFF"/>
<stop offset="0.5122" stop-color="#00D2FF"/>
<stop offset="0.7604" stop-color="#00DFFF"/>
<stop offset="1" stop-color="#00E3FF"/>
</linearGradient>
<linearGradient id="paint1_linear_750_10090" x1="34.9706" y1="19.9989" x2="10.1533" y2="19.9989" gradientUnits="userSpaceOnUse">
<stop stop-color="#FFE000"/>
<stop offset="0.4087" stop-color="#FFBD00"/>
<stop offset="0.7754" stop-color="#FFA500"/>
<stop offset="1" stop-color="#FF9C00"/>
</linearGradient>
<linearGradient id="paint2_linear_750_10090" x1="25.7327" y1="17.7041" x2="2.9817" y2="-5.63025" gradientUnits="userSpaceOnUse">
<stop stop-color="#FF3A44"/>
<stop offset="1" stop-color="#C31162"/>
</linearGradient>
<linearGradient id="paint3_linear_750_10090" x1="7.75353" y1="39.8238" x2="17.9129" y2="29.4041" gradientUnits="userSpaceOnUse">
<stop stop-color="#32A071"/>
<stop offset="0.0685" stop-color="#2DA771"/>
<stop offset="0.4762" stop-color="#15CF74"/>
<stop offset="0.8009" stop-color="#06E775"/>
<stop offset="1" stop-color="#00F076"/>
</linearGradient>
</defs>
</svg>
