<svg width="32" height="32" viewBox="0 0 32 32" fill="none" xmlns="http://www.w3.org/2000/svg">
<rect width="32" height="32" rx="8" fill="#29A9EB"/>
<path fillRule="evenodd" clipRule="evenodd" d="M8.59992 15.4831C12.8949 13.6485 15.7589 12.4391 17.1919 11.8547C21.2834 10.1862 22.1335 9.89639 22.6877 9.88682C22.8095 9.88472 23.0821 9.91433 23.2586 10.0548C23.4076 10.1733 23.4486 10.3335 23.4683 10.4459C23.4879 10.5584 23.5123 10.8145 23.4929 11.0146C23.2712 13.2986 22.3118 18.8413 21.8237 21.3994C21.6172 22.4818 21.2105 22.8448 20.8169 22.8803C19.9613 22.9575 19.3116 22.3259 18.4829 21.7934C17.1862 20.96 16.4537 20.4413 15.195 19.6281C13.7404 18.6883 14.6834 18.1717 15.5124 17.3276C15.7293 17.1067 19.499 13.745 19.5719 13.4401C19.5811 13.4019 19.5895 13.2598 19.5034 13.1847C19.4172 13.1096 19.2901 13.1353 19.1983 13.1557C19.0683 13.1846 16.9968 14.527 12.9839 17.1828C12.3959 17.5786 11.8633 17.7715 11.3862 17.7614C10.8601 17.7503 9.84822 17.4698 9.09598 17.2301C8.17333 16.936 7.44002 16.7805 7.50388 16.2812C7.53714 16.0211 7.90248 15.755 8.59992 15.4831Z" fill="white"/>
</svg>
