<svg width="40" height="40" viewBox="0 0 40 40" fill="none" xmlns="http://www.w3.org/2000/svg">
<path d="M0 7.22222C0 3.2335 3.2335 0 7.22222 0H32.7778C36.7665 0 40 3.2335 40 7.22222V32.7778C40 36.7665 36.7665 40 32.7778 40H7.22222C3.2335 40 0 36.7665 0 32.7778V7.22222Z" fill="#F14635"/>
<path fillRule="evenodd" clipRule="evenodd" d="M20.0006 7C27.1619 7 32.9702 12.7364 33 19.8246V19.936C32.987 23.0875 31.8272 25.9707 29.9166 28.2024C29.8472 28.1675 29.7208 28.0538 29.4918 27.7111C29.2548 27.3667 27.2109 24.2212 27.2109 20.616C27.2109 19.9084 28.2307 18.8032 29.1332 17.833L29.1524 17.8122C29.8199 17.0899 30.449 16.4092 30.6821 15.8733C30.9818 15.1749 30.7721 14.6873 30.4404 14.522C30.1403 14.3751 29.6895 14.4822 29.3733 15.044C28.8542 15.9532 28.6879 16.123 27.9309 16.7314C27.1858 17.3394 26.0014 17.9515 26.0014 17.1592C26.0014 16.8703 26.3022 16.3347 26.598 15.8082C26.7402 15.555 26.8812 15.304 26.987 15.0835C27.3198 14.3968 26.9611 13.8997 26.2739 13.8997C24.9244 13.8997 24.0286 15.6188 24.0286 16.2143C24.0286 16.5005 24.0954 16.6687 24.1647 16.8432C24.2395 17.0316 24.3173 17.2274 24.3173 17.5871C24.3173 18.2853 22.8366 19.191 21.4419 19.191C20.0381 19.191 19.2508 18.8939 18.9566 18.046L18.8633 17.77L18.8478 17.7247C18.525 16.7811 18.2886 16.0903 17.882 15.3689C17.6672 14.9895 17.3382 14.724 17.0498 14.4911L17.0314 14.4763C16.6487 14.1791 16.4503 13.9054 16.4089 13.7014C16.3707 13.4989 16.3501 13.1173 17.0042 12.2378C17.6569 11.3632 17.7484 10.7026 17.4217 10.3617C17.3033 10.2404 17.1015 10.1627 16.8423 10.1627C16.3839 10.1627 15.7469 10.4056 15.0904 11.0728C14.2937 11.8892 14.4722 12.6734 14.5887 13.1854C14.6214 13.3292 14.6493 13.4515 14.6493 13.547C14.6493 13.9826 14.4623 14.2289 13.85 14.8214C13.2331 15.4166 13.0202 15.9269 12.9496 17.9776C12.9226 19.0342 12.7365 19.6425 12.5695 20.1818C12.4251 20.6546 12.2923 21.099 12.2852 21.7411C12.2737 22.4527 12.3922 22.9112 12.5304 23.4404C12.6661 23.9294 12.8103 24.4898 12.9026 25.4272C13.0617 26.9991 12.9885 28.3067 12.6601 29.6706L12.6434 29.7608L12.64 29.7747C12.586 29.9921 12.5219 30.2505 12.4359 30.3486C9.14562 28.0116 7 24.1949 7 19.8807C7 12.7675 12.8203 7 20.0006 7ZM20.6073 20.9354C19.9601 20.8335 19.4834 20.9274 19.1479 21.2111C18.2817 21.9488 18.2965 24.0044 18.3139 26.3885L18.3182 27.0635C18.3283 29.427 18.3416 31.4707 18.8934 32.369C19.0694 32.6556 19.4018 32.8653 19.844 32.9909C19.8765 32.9919 19.9089 32.993 19.9413 32.9941L19.9415 32.9941C20.0234 32.997 20.1054 32.9999 20.1883 32.9999C21.2825 32.9999 22.3449 32.8646 23.3612 32.6144C23.7813 32.4118 24.0855 32.1687 24.19 31.9154C24.2526 31.751 24.2869 31.4519 24.2869 31.0621C24.2869 29.518 23.8336 26.5731 23.6095 25.1173L23.6095 25.1172L23.6028 25.074L23.4895 24.3199L23.4681 24.1712L23.4671 24.164C23.2773 22.8266 23.0627 21.3144 20.6073 20.9354ZM16.4279 30.4585C16.3628 28.5778 16.0386 26.0976 15.5343 26.126C14.9907 26.1593 14.7839 28.9889 15.0219 30.8778C15.0999 31.4789 15.2226 31.9378 15.3832 32.2295C15.6238 32.3271 15.868 32.4169 16.1166 32.4998C16.3361 32.3064 16.4736 31.7679 16.4279 30.4585ZM28.1755 29.8324C28.2931 29.2336 26.8726 25.8433 26.0796 26.2263C25.4715 26.5279 25.7074 29.992 26.3358 31.0963C26.4014 31.2071 26.5356 31.2248 26.6866 31.1993C27.1607 30.9136 27.6139 30.596 28.0449 30.25C28.0997 30.1378 28.144 30.0047 28.1755 29.8324Z" fill="white"/>
</svg>
