<svg width="25" height="24" viewBox="0 0 25 24" fill="none" xmlns="http://www.w3.org/2000/svg">
<path d="M18.2675 5.31027L12.6175 2.27027C12.0175 1.95027 11.3075 1.95027 10.7075 2.27027L5.06746 5.31027C4.65746 5.54027 4.39746 5.98027 4.39746 6.46027C4.39746 6.95027 4.64746 7.39027 5.06746 7.61027L10.7175 10.6503C11.0175 10.8103 11.3475 10.8903 11.6675 10.8903C11.9875 10.8903 12.3275 10.8103 12.6175 10.6503L18.2675 7.61027C18.6775 7.39027 18.9375 6.95027 18.9375 6.46027C18.9375 5.98027 18.6775 5.54027 18.2675 5.31027Z" fill="#292D32"/>
<path d="M9.78699 11.7106L4.53699 9.09058C4.12699 8.88058 3.66699 8.91058 3.27699 9.14058C2.89699 9.38058 2.66699 9.79058 2.66699 10.2406V15.2006C2.66699 16.0606 3.14699 16.8306 3.91699 17.2206L9.16699 19.8406C9.34699 19.9306 9.54699 19.9806 9.74699 19.9806C9.97699 19.9806 10.217 19.9106 10.427 19.7906C10.807 19.5506 11.037 19.1406 11.037 18.6906V13.7306C11.027 12.8706 10.547 12.1006 9.78699 11.7106Z" fill="#292D32"/>
<path d="M20.6666 10.2406V12.7006C20.1866 12.5606 19.6766 12.5006 19.1666 12.5006C17.8066 12.5006 16.4766 12.9706 15.4266 13.8106C13.9866 14.9406 13.1666 16.6506 13.1666 18.5006C13.1666 18.9906 13.2266 19.4806 13.3566 19.9506C13.2066 19.9306 13.0566 19.8706 12.9166 19.7806C12.5366 19.5506 12.3066 19.1406 12.3066 18.6906V13.7306C12.3066 12.8706 12.7866 12.1006 13.5466 11.7106L18.7966 9.09058C19.2066 8.88058 19.6666 8.91058 20.0566 9.14058C20.4366 9.38058 20.6666 9.79058 20.6666 10.2406Z" fill="#292D32"/>
<path d="M22.647 15.65C21.827 14.64 20.577 14 19.167 14C18.107 14 17.127 14.37 16.357 14.99C15.317 15.81 14.667 17.08 14.667 18.5C14.667 19.91 15.307 21.16 16.317 21.98C17.087 22.62 18.087 23 19.167 23C20.307 23 21.337 22.57 22.137 21.88C23.067 21.05 23.667 19.85 23.667 18.5C23.667 17.42 23.287 16.42 22.647 15.65ZM20.197 18.78C20.197 19.04 20.057 19.29 19.837 19.42L18.427 20.26C18.307 20.33 18.177 20.37 18.037 20.37C17.787 20.37 17.537 20.24 17.397 20.01C17.187 19.65 17.297 19.19 17.657 18.98L18.697 18.36V17.1C18.697 16.69 19.037 16.35 19.447 16.35C19.857 16.35 20.197 16.69 20.197 17.1V18.78Z" fill="#292D32"/>
</svg>
