<svg width="46" height="36" viewBox="0 0 46 36" fill="none" xmlns="http://www.w3.org/2000/svg">
<mask id="mask0_168_8823" style="mask-type:alpha" maskUnits="userSpaceOnUse" x="17" y="4" width="29" height="32">
<rect x="17.6216" y="4.62109" width="27.8795" height="31.1468" fill="#D9D9D9"/>
</mask>
<g mask="url(#mask0_168_8823)">
<path d="M-8.97656 4.62109H45.4286V35.7679H-8.97656V4.62109Z" fill="#139B60"/>
<path d="M39.2923 14.4007V25.984C38.2565 26.2028 37.2975 26.7182 36.5385 27.479C35.7801 28.2391 35.2671 29.1985 35.0505 30.2339H1.40722C1.33739 29.9001 1.23647 29.5727 1.10532 29.2562C0.829137 28.5896 0.424334 27.9839 -0.0859706 27.4738C-0.596273 26.9637 -1.20208 26.5591 -1.86878 26.2831C-2.18526 26.1521 -2.51252 26.0513 -2.84619 25.9816V14.4029C-2.51238 14.333 -2.185 14.2321 -1.86841 14.101C-1.20174 13.8248 -0.595994 13.4201 -0.0857499 12.9099C0.424495 12.3996 0.829242 11.7939 1.10538 11.1272C1.23652 10.8106 1.33743 10.4832 1.40726 10.1494H35.0502C35.2666 11.185 35.7795 12.1447 36.5379 12.9051C37.297 13.6662 38.2563 14.1819 39.2923 14.4007Z" fill="#40B86B" stroke="white" strokeWidth="2.25"/>
<path d="M18.2262 26.7463C21.8463 26.7463 24.7809 23.8116 24.7809 20.1915C24.7809 16.5714 21.8463 13.6367 18.2262 13.6367C14.6061 13.6367 11.6714 16.5714 11.6714 20.1915C11.6714 23.8116 14.6061 26.7463 18.2262 26.7463Z" fill="#139B60"/>
</g>
<rect opacity="0.5" x="17.6216" y="4.62109" width="13.9397" height="31.1468" fill="#066734"/>
<mask id="mask1_168_8823" style="mask-type:alpha" maskUnits="userSpaceOnUse" x="0" y="0" width="28" height="32">
<rect x="0.5" y="0.230957" width="27.2025" height="31.1468" fill="#D9D9D9"/>
</mask>
<g mask="url(#mask1_168_8823)">
<path d="M0.5 0.230957H54.9052V31.3777H0.5V0.230957Z" fill="#4FD79C"/>
<path d="M48.7689 10.0106V21.5939C47.7331 21.8126 46.7741 22.3281 46.0151 23.0888C45.2567 23.849 44.7437 24.8083 44.5271 25.8437H10.8838C10.814 25.51 10.713 25.1826 10.5819 24.8661C10.3057 24.1995 9.9009 23.5938 9.39059 23.0837C8.88029 22.5735 8.27449 22.1689 7.60779 21.893C7.29131 21.762 6.96405 21.6612 6.63037 21.5915V10.0127C6.96418 9.9429 7.29157 9.84199 7.60816 9.71085C8.27482 9.43471 8.88057 9.02996 9.39081 8.51972C9.90106 8.00948 10.3058 7.40373 10.5819 6.73706C10.7131 6.42047 10.814 6.09309 10.8838 5.75928H44.5268C44.7432 6.79489 45.256 7.75452 46.0145 8.51498C46.7735 9.2761 47.7328 9.79175 48.7689 10.0106Z" fill="#7CF4A7" stroke="white" strokeWidth="2.25"/>
<path d="M27.7027 22.3561C31.3228 22.3561 34.2575 19.4214 34.2575 15.8014C34.2575 12.1813 31.3228 9.24658 27.7027 9.24658C24.0826 9.24658 21.1479 12.1813 21.1479 15.8014C21.1479 19.4214 24.0826 22.3561 27.7027 22.3561Z" fill="#4FD79C"/>
</g>
</svg>
