<svg width="88" height="25" viewBox="0 0 88 25" fill="none" xmlns="http://www.w3.org/2000/svg">
<path d="M8.67409 1.11356C8.20308 1.171 7.58273 1.27439 7.29553 1.35481C7.00833 1.42373 6.5488 1.63052 6.2616 1.81433C5.9744 1.98665 5.5953 2.33129 5.4 2.58403C5.21619 2.82528 4.92899 3.33075 4.74518 3.70986C4.57286 4.08896 4.30863 4.89313 4.1478 5.4905C3.98697 6.08788 3.81465 6.88056 3.74572 7.23669L3.61935 7.90299C1.21835 7.90299 0.517578 7.93746 0.517578 7.98341C0.517578 8.04085 1.05752 8.7646 1.72382 9.59174L2.93007 11.1196C2.52799 13.2679 2.45906 13.9917 2.49352 14.5661C2.52799 15.1979 2.61989 15.6115 2.84965 16.0825C3.04495 16.4961 3.32066 16.8637 3.58489 17.059C3.82614 17.2428 4.19375 17.4381 4.42351 17.5185C4.7222 17.6219 6.91642 17.6563 12.9247 17.6678C20.0473 17.6678 21.0237 17.6449 21.0237 17.4955C21.0237 17.3462 20.2655 17.3232 14.8432 17.3232C10.8109 17.3232 8.67409 17.2887 8.67409 17.2083C8.67409 17.1279 10.9372 17.0934 15.2223 17.0934C20.9433 17.0934 21.782 17.0705 21.8279 16.9211C21.8624 16.8292 21.8853 16.7258 21.8853 16.6914C21.8853 16.6569 18.9904 16.6339 15.452 16.6339C11.2359 16.6339 9.01873 16.5994 9.01873 16.519C9.01873 16.4386 11.2589 16.4042 15.5095 16.4042C21.9198 16.4042 22.0002 16.4042 22.0002 16.1744C22.0002 15.9446 21.9198 15.9446 15.9116 15.9446C11.9712 15.9446 9.79992 15.8987 9.76546 15.8297C9.73099 15.7493 11.8333 15.7034 15.946 15.6804C21.3914 15.6574 22.1725 15.6345 22.1725 15.4851C22.1725 15.3358 21.4373 15.3128 16.3136 15.2898C13.0855 15.2668 10.3743 15.2209 10.2824 15.1749C10.1905 15.1175 12.8443 15.06 16.1988 15.0256C21.5062 14.9796 22.2874 14.9452 22.2874 14.7958C22.2874 14.6465 21.5867 14.6235 16.7157 14.6235L11.144 14.612C10.2709 14.1755 9.9148 13.8883 9.77695 13.7045C9.63909 13.4977 9.54718 13.176 9.54718 12.9003C9.54718 12.6476 9.65058 12.2685 9.77695 12.0502C9.90331 11.8204 10.2135 11.5447 10.5122 11.3839L11.0291 11.1196C19.4843 11.1196 22.1151 11.0852 22.3219 11.0392C22.5287 10.9818 22.6895 10.8784 22.6895 10.798C22.6895 10.6946 21.7015 10.6601 18.1517 10.6601C15.1993 10.6601 13.614 10.6142 13.614 10.5452C13.614 10.4648 15.3027 10.4304 18.4389 10.4304C22.6206 10.4304 23.2754 10.4074 23.3214 10.258C23.3558 10.1661 23.3788 10.0627 23.3788 10.0283C23.3788 9.99382 21.2995 9.97084 18.7606 9.97084C15.7048 9.97084 14.1884 9.93638 14.2688 9.85596C14.3492 9.78703 16.1413 9.72959 18.9099 9.7181C23.1146 9.68364 23.4362 9.67215 23.4592 9.47686C23.4937 9.29305 23.218 9.28156 19.0708 9.28156C16.1988 9.28156 14.6479 9.23561 14.6479 9.16668C14.6479 9.09775 16.2217 9.0518 19.1282 9.0518C23.0112 9.0518 23.62 9.02882 23.666 8.87948C23.7005 8.78757 23.7234 8.68418 23.7234 8.64972C23.7234 8.61525 21.8164 8.59228 19.4729 8.59228C16.7157 8.59228 15.2223 8.54632 15.2223 8.4774C15.2223 8.40847 16.7387 8.35103 19.4958 8.32805C23.4707 8.30508 23.7809 8.29359 23.8039 8.09829C23.8383 7.91448 23.4937 7.90299 18.1862 7.86853L12.5226 7.84555C11.7299 7.39752 11.3738 7.08734 11.2244 6.86907C10.9947 6.53592 10.9602 6.3636 11.0062 5.89259C11.0406 5.57092 11.167 5.19181 11.2934 5.03098C11.4197 4.87015 11.638 4.65188 11.7874 4.537C11.9367 4.42212 12.2699 4.28426 12.5226 4.22682C12.7753 4.16938 15.3601 4.12343 18.2666 4.11194C21.1731 4.11194 23.666 4.07747 23.8153 4.0545C23.9532 4.02003 24.0681 3.95111 24.0681 3.88218C24.0681 3.81325 23.1146 3.7673 21.4258 3.7673C19.3695 3.7673 18.7951 3.73283 18.818 3.61795C18.8525 3.51456 19.5762 3.46861 21.7705 3.42266C23.9647 3.3767 24.6884 3.33075 24.7229 3.21587C24.7459 3.11248 24.16 3.07801 22.0347 3.07801C20.2426 3.07801 19.358 3.04355 19.4384 2.96313C19.5188 2.90569 20.7136 2.83677 22.253 2.82528C24.6999 2.79081 24.9297 2.77932 24.9527 2.58403C24.9871 2.40022 24.8033 2.38873 22.4597 2.38873C20.817 2.38873 19.9554 2.35427 19.9898 2.27385C20.0243 2.20492 21.0008 2.15897 22.5746 2.15897C25.0216 2.15897 25.102 2.14748 25.102 1.92921C25.102 1.71094 25.0216 1.69945 22.6895 1.69945C21.1616 1.69945 20.277 1.6535 20.277 1.58457C20.277 1.51564 21.1731 1.46969 22.747 1.46969C24.8608 1.46969 25.2169 1.44671 25.2169 1.29737C25.2169 1.14802 24.6195 1.12505 20.5412 1.12505C17.9564 1.12505 14.4296 1.10207 12.6949 1.07909C10.9602 1.04463 9.1451 1.0676 8.67409 1.11356Z" fill="#8FC324"/>
<path fillRule="evenodd" clipRule="evenodd" d="M54.3052 1.12458C54.891 0.929281 55.8331 0.699521 56.4075 0.619104C56.9819 0.5272 58.2685 0.458272 59.2795 0.446784C60.2904 0.435296 61.5771 0.492736 62.1515 0.561664C62.7259 0.630592 63.4956 0.756961 63.8747 0.848865C64.2538 0.952258 64.8167 1.19351 65.1269 1.3888C65.4371 1.59559 65.8277 1.96321 66 2.21594C66.1723 2.46868 66.4021 2.91671 66.5055 3.22689C66.6089 3.52558 66.6893 4.08849 66.6893 4.49058C66.7008 4.96159 66.3217 6.99497 64.4491 15.9671L63.7598 16.2888C63.3807 16.4726 62.611 16.7713 62.0366 16.9666C61.4622 17.1504 60.4627 17.4261 59.7964 17.564C58.7855 17.7822 58.2226 17.8282 56.35 17.8282C54.466 17.8282 53.9261 17.7937 52.9611 17.5755C52.3292 17.4376 51.4561 17.1504 51.0081 16.9321C50.5371 16.7024 49.9742 16.3233 49.6525 15.9901C49.3538 15.6799 49.0092 15.2089 48.8828 14.9447C48.7564 14.669 48.6186 14.2324 48.5841 13.9682C48.5496 13.6925 48.5726 13.0607 48.6415 12.5552C48.722 11.9923 48.9058 11.3375 49.124 10.8894C49.3193 10.4758 49.664 9.91293 49.8937 9.62573C50.1235 9.35002 50.629 8.8905 51.0081 8.61478C51.3872 8.33907 52.0305 7.93699 52.4441 7.73021C52.8577 7.52342 53.6503 7.20175 54.2247 7.00646C54.7991 6.81116 55.7756 6.54694 56.4075 6.42057C57.0393 6.28271 58.2915 6.11039 60.8074 5.89212L60.8763 5.49004C60.9108 5.27176 60.9452 4.88117 60.9452 4.62843C60.9567 4.30677 60.8763 4.09998 60.704 3.93915C60.4857 3.73236 60.3134 3.70939 58.7166 3.72088C57.3839 3.72088 56.6947 3.7898 55.7756 3.9851C55.1093 4.12296 53.7537 4.50206 52.7658 4.83522C51.3412 5.30623 50.9506 5.39813 50.9506 5.26027C50.9506 5.16837 51.0885 4.61694 51.2723 4.05403C51.4791 3.38772 51.7318 2.8363 51.9846 2.51463C52.2028 2.23892 52.5819 1.88279 52.8232 1.73344C53.053 1.5841 53.7308 1.30839 54.3052 1.12458ZM30.2262 0.814401C30.41 0.733984 30.6628 0.653568 30.7891 0.619104C30.9155 0.596128 33.5577 0.584639 36.648 0.596127C41.6338 0.619103 42.3576 0.653567 42.9665 0.825888C43.3456 0.940768 43.9659 1.19351 44.345 1.37731C44.7586 1.59559 45.356 2.05511 45.85 2.54909C46.3325 3.04308 46.769 3.61748 46.9528 3.99659C47.1136 4.34123 47.3434 4.93861 47.4583 5.31772C47.6076 5.80021 47.6651 6.37462 47.6651 7.21324C47.6651 8.00592 47.5846 8.6952 47.4468 9.22365C47.3319 9.67168 47.0907 10.3839 46.8954 10.832C46.7116 11.28 46.2865 12.0497 45.9533 12.5552C45.6202 13.0607 45.0458 13.7614 44.6782 14.1061C44.2991 14.4507 43.6557 14.9562 43.2537 15.2319C42.8401 15.4961 42.0934 15.8752 41.5879 16.0705C41.0824 16.2658 40.1978 16.5301 39.6349 16.6564C38.8193 16.8402 38.0036 16.8977 35.729 16.9551C33.0063 17.0125 32.8455 17.024 32.6157 17.2538C32.4549 17.4146 32.2596 18.0005 32.0069 19.1034C31.8001 19.988 31.5244 21.0219 31.398 21.401C31.2716 21.7801 31.0304 22.2281 30.8695 22.4119C30.6742 22.6072 30.3526 22.7681 30.0079 22.837C29.7092 22.9059 28.48 22.9519 27.2853 22.9519C25.6195 22.9519 25.1025 22.9174 25.1025 22.814C25.1025 22.7336 25.183 22.2281 25.2863 21.6882C25.3706 21.193 25.8221 19.1133 26.304 16.8933C26.3475 16.6926 26.3913 16.4907 26.4352 16.2888C26.9751 13.8533 27.6759 10.6482 27.986 9.16621C28.3077 7.68425 28.6064 6.23676 28.6638 5.94956C28.6937 5.80002 28.7704 5.43248 28.8678 4.96531C28.9574 4.53523 29.0647 4.0207 29.1693 3.51409C29.3991 2.4457 29.6518 1.44624 29.7437 1.27392C29.8241 1.09011 30.0424 0.894817 30.2262 0.814401ZM68.5274 1.52666C68.5388 1.36583 68.6652 1.1016 68.8146 0.952257C69.0903 0.665056 69.1132 0.665056 71.1696 0.665056C72.7435 0.665056 73.2375 0.69952 73.2375 0.814401C73.2375 0.883329 73.5936 3.33028 74.0416 6.23676C74.4782 9.14323 74.8688 11.5327 74.9032 11.5557C74.9377 11.5672 75.1445 11.257 75.3742 10.8664C75.4584 10.7192 75.6797 10.3361 75.9896 9.79965C76.5259 8.87147 77.3275 7.4841 78.1429 6.06444C78.3191 5.76037 78.4931 5.4599 78.6628 5.16705C79.7432 3.30238 80.6445 1.74665 80.7736 1.53815C80.9574 1.23946 81.2102 1.02118 81.5433 0.883328C81.9684 0.699519 82.3705 0.665056 87.4826 0.665056L86.0696 2.99713C85.6827 3.62873 84.9407 4.84371 84.0529 6.2973C83.1483 7.77845 82.0924 9.50734 81.1068 11.1192C79.1538 14.3129 77.2583 17.3917 76.8792 17.9546C76.5001 18.529 75.8682 19.4021 75.4891 19.9075C75.11 20.413 74.2599 21.378 73.5936 22.0443C72.9273 22.7106 71.9853 23.5263 71.5143 23.8594C71.0432 24.1811 70.5837 24.4453 70.5033 24.4453C70.4344 24.4453 69.8829 23.8479 69.2971 23.1127C69.1628 22.9408 69.0272 22.7677 68.8965 22.6006C68.4678 22.0531 68.0904 21.5709 67.9759 21.4125C67.8151 21.1827 67.7232 20.8955 67.7232 20.5968C67.7232 20.1947 67.7921 20.0799 68.2631 19.6778C68.5618 19.425 69.1132 18.9081 69.5038 18.529C69.8829 18.1499 70.331 17.5869 70.4803 17.2653C70.7216 16.7598 70.7446 16.5875 70.6756 15.7718C70.6297 15.2664 70.3654 13.3823 70.0897 11.5787C69.8025 9.77508 69.3315 6.84563 69.0443 5.06498C68.7571 3.27284 68.5274 1.68749 68.5274 1.52666ZM35.2586 4.24971C35.3275 4.16929 35.5687 4.05441 35.787 3.99697C36.0053 3.93953 36.706 3.90507 37.3379 3.93953C38.1191 3.96251 38.705 4.05441 39.176 4.22673C39.5551 4.3531 40.118 4.62881 40.4397 4.8356C40.7498 5.05387 41.1864 5.47893 41.3932 5.78911C41.6 6.09929 41.8412 6.60476 41.9446 6.92642C42.0365 7.2366 42.1054 7.70761 42.1054 7.96035C42.1054 8.21309 42.0135 8.75302 41.8872 9.16659C41.7493 9.61463 41.4506 10.2005 41.1404 10.6256C40.8532 11.0277 40.3707 11.5331 40.072 11.7629C39.7619 11.9812 39.1875 12.3258 38.7739 12.5211C38.3603 12.7164 37.694 12.9462 37.2804 13.0266C36.8669 13.1185 36.1431 13.1874 35.6721 13.1874C35.2011 13.1874 34.4889 13.13 34.0983 13.0725C33.6962 13.0036 33.3745 12.9232 33.3745 12.8772C33.3745 12.8198 33.6732 11.3608 34.0523 9.62611C34.4314 7.89142 34.822 5.99589 34.9369 5.43298C35.0403 4.87006 35.1896 4.33013 35.2586 4.24971ZM56.4655 9.56868C56.8101 9.39635 57.4075 9.18957 57.7866 9.10915C58.1657 9.01725 58.855 8.94832 59.3145 8.94832C59.9234 8.93683 60.1302 8.9713 60.1072 9.07469C60.0842 9.15511 59.9119 10.1775 59.7281 11.3378C59.4179 13.3368 59.372 13.4746 59.0503 13.7963C58.8665 13.9916 58.4529 14.2673 58.1313 14.4051C57.8211 14.543 57.3271 14.7038 57.0399 14.7383C56.7527 14.7842 56.3161 14.7613 56.0634 14.7038C55.7877 14.6234 55.4316 14.4051 55.1673 14.1409C54.8801 13.8422 54.6734 13.4976 54.5585 13.0725C54.4436 12.6704 54.4091 12.2913 54.4551 12.0386C54.501 11.8203 54.6504 11.4068 54.7997 11.1196C54.9491 10.8324 55.2363 10.4418 55.4545 10.2465C55.6613 10.0397 56.1208 9.741 56.4655 9.56868Z" fill="#4155EA"/>
</svg>
