<svg width="20" height="16" viewBox="0 0 20 16" fill="none" xmlns="http://www.w3.org/2000/svg">
<path fillRule="evenodd" clipRule="evenodd" d="M0.314453 1.26316C0.314453 0.565535 0.879988 0 1.57761 0H9.99866C10.6963 0 11.2618 0.565535 11.2618 1.26316C11.2618 1.96078 10.6963 2.52632 9.99866 2.52632H1.57761C0.879988 2.52632 0.314453 1.96078 0.314453 1.26316ZM0.314453 8C0.314453 7.30238 0.879988 6.73684 1.57761 6.73684H18.4197C19.1173 6.73684 19.6829 7.30238 19.6829 8C19.6829 8.69762 19.1173 9.26316 18.4197 9.26316H1.57761C0.879988 9.26316 0.314453 8.69762 0.314453 8ZM9.99866 13.4737C9.30104 13.4737 8.73551 14.0392 8.73551 14.7368C8.73551 15.4345 9.30104 16 9.99866 16H18.4197C19.1173 16 19.6829 15.4345 19.6829 14.7368C19.6829 14.0392 19.1173 13.4737 18.4197 13.4737H9.99866Z" fill="black"/>
</svg>
