<svg width="113" height="29" viewBox="0 0 113 29" fill="none" xmlns="http://www.w3.org/2000/svg">
<ellipse cx="14.333" cy="14.4293" rx="14" ry="13.9" fill="white"/>
<path fillRule="evenodd" clipRule="evenodd" d="M14.3521 0.529297C6.59767 0.529297 0.333008 6.77663 0.333008 14.4334C0.333008 19.0808 2.66316 23.233 6.17748 25.7472C6.25388 25.6329 6.33028 25.3663 6.40668 25.0996V24.9853C6.75047 23.4997 6.82687 22.0902 6.67407 20.4141C6.55947 19.3856 6.40668 18.8142 6.25388 18.2809C6.10108 17.7095 5.98649 17.2142 5.98649 16.4524C5.98649 15.7667 6.13928 15.2715 6.29208 14.7763C6.48308 14.2049 6.67407 13.5192 6.71227 12.3764C6.78867 10.167 7.01786 9.59555 7.66725 8.94796C8.31664 8.30037 8.54583 8.03371 8.54583 7.57659C8.54583 7.47716 8.51692 7.34709 8.48267 7.19305C8.35947 6.63889 8.16729 5.77447 9.00422 4.91005C9.76821 4.22437 10.4558 3.95771 10.9524 3.95771C11.2198 3.95771 11.449 4.0339 11.5636 4.18627C11.9074 4.56721 11.831 5.25289 11.1052 6.20523C10.4176 7.15756 10.4176 7.57659 10.4558 7.80515C10.494 8.03372 10.7232 8.33846 11.1434 8.64321C11.2001 8.69267 11.2594 8.74212 11.3198 8.79255C11.5854 9.01402 11.8735 9.25424 12.0602 9.59555C12.4229 10.2285 12.6421 10.8377 12.9071 11.574L12.9071 11.5741C12.977 11.7683 13.05 11.9713 13.1297 12.1859L13.2443 12.4907C13.5499 13.4049 14.4285 13.7096 15.9183 13.7096C17.408 13.7096 19.0124 12.7192 19.0124 11.9573C19.0124 11.5609 18.9297 11.3502 18.8503 11.1479C18.7771 10.9615 18.7068 10.7823 18.7068 10.4717C18.7068 9.82411 19.6618 7.95753 21.1134 7.95753C21.8391 7.95753 22.2593 8.49084 21.8773 9.25271C21.7637 9.49204 21.6082 9.76885 21.4511 10.0487L21.451 10.0487C21.1329 10.6152 20.8078 11.1943 20.8078 11.5002C20.8078 12.3383 22.0683 11.6907 22.8705 11.0431C23.6727 10.3955 23.8637 10.205 24.4367 9.21461C24.7805 8.60512 25.2771 8.49084 25.5827 8.64321C25.9265 8.83368 26.1557 9.36699 25.8501 10.0908C25.5827 10.6622 24.8951 11.424 24.1693 12.224C24.108 12.2924 24.0461 12.3613 23.9839 12.4306C23.0767 13.4404 22.1065 14.5204 22.1065 15.2334C22.1065 19.1189 24.3221 22.5473 24.5513 22.8902C24.7805 23.2711 24.9333 23.3854 25.0097 23.4235C27.0724 21.0236 28.333 17.8999 28.333 14.4715V14.3572C28.333 6.73854 22.0683 0.529297 14.3521 0.529297ZM18.6674 27.1437C18.5529 27.4103 18.2091 27.677 17.7507 27.9055C16.6429 28.1722 15.4969 28.3245 14.3127 28.3626H13.9307C13.4342 28.2103 13.0904 27.9817 12.8994 27.677C12.3264 26.6865 12.2882 24.5152 12.2882 21.9629V21.2392L12.2881 20.9555C12.2867 18.5243 12.2855 16.4477 13.205 15.6775C13.5487 15.3728 14.0835 15.2585 14.7711 15.3728C17.4451 15.7537 17.6743 17.3917 17.8653 18.8393L17.9035 18.9916L18.0563 19.7916C18.0755 19.9227 18.0966 20.0654 18.1192 20.2177L18.1192 20.2178C18.3653 21.88 18.782 24.694 18.782 26.2294C18.782 26.6484 18.7438 26.9532 18.6674 27.1437ZM9.27153 20.6293C9.80632 20.6293 10.1501 23.2958 10.2265 25.3529C10.3029 26.8004 10.1501 27.3718 9.88272 27.6004C9.74903 27.5433 9.61533 27.4957 9.48163 27.448C9.34793 27.4004 9.21424 27.3528 9.08054 27.2957C8.92774 26.9528 8.77494 26.4576 8.69855 25.81C8.46935 23.753 8.69855 20.6674 9.27153 20.6293ZM20.7326 20.9623C21.6494 20.5433 23.292 24.2384 23.1392 24.886C23.1264 24.9367 23.1095 24.9875 23.0925 25.0383C23.0585 25.1399 23.0246 25.2415 23.0246 25.3431C22.528 25.724 21.9932 26.0669 21.4584 26.3716C21.2674 26.4097 21.1146 26.3716 21.0382 26.2573C20.3124 25.0764 20.045 21.3052 20.7326 20.9623Z" fill="#F14635"/>
<path fillRule="evenodd" clipRule="evenodd" d="M112.333 19.4222H107.79L112.217 13.5939V11.9178H105.133L103.285 14.2796H108.29L103.863 20.0698V21.784H112.333V19.4222ZM81.7257 21.784H84.8442V11.9559H81.7257V21.784ZM75.1808 14.1272C76.2203 14.1272 76.7208 15.0033 76.7208 16.7556H76.7593V17.1366C76.7208 18.8127 76.2203 19.6507 75.2193 19.6507C74.4878 19.6507 73.9873 19.346 73.7178 18.8127V14.9272C73.9488 14.3939 74.4493 14.1272 75.1808 14.1272ZM78.7613 20.6031C79.4542 19.6888 79.8007 18.4698 79.8007 16.9461H79.7622V16.7937C79.7622 15.2319 79.4157 14.0129 78.7228 13.0987C78.0683 12.2225 77.1058 11.7654 75.8738 11.7654C74.9113 11.7654 74.1028 12.1464 73.5253 12.8701L73.4483 11.9559H70.5609V25.9742H73.6793V20.984C74.2953 21.6316 75.0268 21.9744 75.9508 21.9744C77.1058 21.9744 78.0683 21.5173 78.7613 20.6031ZM65.2865 18.3937C65.556 18.5841 65.7099 18.7746 65.7099 19.0412C65.7099 19.3079 65.6329 19.5364 65.4019 19.6126C65.171 19.8031 64.863 19.8793 64.4395 19.8793C63.9775 19.8793 63.631 19.765 63.323 19.5745C63.015 19.3841 62.861 19.0412 62.861 18.5841H59.9735C59.9735 19.1555 60.166 19.6888 60.551 20.2221C60.936 20.7554 61.475 21.1745 62.1295 21.4792C62.784 21.784 63.554 21.9363 64.401 21.9363C65.7099 21.9363 66.7494 21.6697 67.5579 21.0983C68.3664 20.5269 68.7514 19.8031 68.7514 18.8889C68.7514 17.5556 68.0199 16.6414 66.5184 16.1461C66.0564 15.9938 65.5174 15.8795 64.94 15.7652C64.324 15.6509 63.9005 15.4986 63.631 15.3462C63.3615 15.1938 63.2075 14.9653 63.2075 14.6986C63.2075 14.4319 63.323 14.2034 63.554 14.0129C63.7465 13.8225 64.0545 13.7463 64.3625 13.7463C65.2095 13.7463 65.6329 14.1272 65.6329 14.9272H68.6744C68.6744 13.9748 68.2894 13.1749 67.4809 12.6035C66.7109 12.0321 65.6329 11.7273 64.324 11.7273C63.092 11.7273 62.1295 12.0321 61.3595 12.6035C60.628 13.213 60.243 13.9367 60.243 14.851C60.243 15.3843 60.3585 15.8414 60.628 16.2223C60.8975 16.6033 61.2825 16.9461 61.783 17.2128C62.2835 17.5175 62.938 17.7461 63.708 17.8984C64.478 18.0889 65.017 18.2413 65.2865 18.3937ZM54.7376 19.5745C54.4681 19.7269 54.1601 19.8031 53.7751 19.8031C53.4671 19.8031 53.2361 19.6888 53.0436 19.5745C52.8511 19.3841 52.7741 19.1555 52.7741 18.8889C52.7741 17.9365 53.3131 17.4413 54.3911 17.4413H55.2766V19.0031C55.1611 19.2317 55.0071 19.4222 54.7376 19.5745ZM55.49 21.107C55.5752 21.3953 55.644 21.628 55.7386 21.784V21.822H58.8185V21.6697C58.5491 21.1745 58.3951 20.4888 58.3951 19.5745V15.1176C58.3951 14.051 58.0101 13.213 57.2786 12.6035C56.5471 11.994 55.5846 11.6892 54.2756 11.6892C52.9666 11.6892 51.9271 11.9559 51.1187 12.5654C50.3102 13.1749 49.8867 13.9367 49.8867 14.8891H53.0051C53.0051 14.1653 53.3901 13.8225 54.1216 13.8225C54.9301 13.8225 55.3151 14.2796 55.3151 15.1938V15.7271H54.3526C52.8126 15.7271 51.6577 16.0319 50.8492 16.5652C50.0407 17.1366 49.6557 17.9365 49.6557 19.0031C49.6557 19.8793 50.0022 20.565 50.6567 21.1364C51.3112 21.7078 52.1196 21.9744 53.0436 21.9744C54.0446 21.9744 54.8531 21.6316 55.4306 20.9078C55.4515 20.9768 55.4712 21.0432 55.49 21.107ZM41.0318 18.6984L42.1483 17.1747L45.2282 21.784H49.0782L44.1888 14.5081L49.4247 7.76562H45.4207L41.0318 13.5177V7.76562H37.7979V21.784H41.0318V18.6984ZM90.4654 20.3389C90.4654 21.2151 89.7339 21.9389 88.8484 21.9389C87.9244 21.9389 87.193 21.2151 87.193 20.3389C87.193 19.4247 87.9629 18.739 88.8484 18.739C89.7339 18.739 90.4654 19.4628 90.4654 20.3389ZM83.2288 11.0048C84.1143 11.0048 84.8458 10.281 84.8458 9.40486C84.8458 8.52871 84.1143 7.80494 83.2288 7.80494C82.3433 7.80494 81.6119 8.52871 81.6119 9.40486C81.6119 10.281 82.3433 11.0048 83.2288 11.0048ZM96.3175 19.765L97.3185 18.5079L99.5129 21.7459L102.901 21.784L99.1664 16.1842L102.439 11.9178H99.0124L96.3175 15.4224V7.76562H93.199V21.784H96.3175V19.765Z" fill="white"/>
</svg>
