<svg width="25" height="24" viewBox="0 0 25 24" fill="none" xmlns="http://www.w3.org/2000/svg">
<g clipPath="url(#clip0_1805_50145)">
<path d="M12.5 24C19.1274 24 24.5 18.6274 24.5 12C24.5 5.37258 19.1274 0 12.5 0C5.87258 0 0.5 5.37258 0.5 12C0.5 18.6274 5.87258 24 12.5 24Z" fill="#338AF3"/>
<path d="M19.284 12.1309H5.71875C5.71875 13.0674 6.53442 13.8265 7.47084 13.8265H7.41441C7.41441 14.763 8.17355 15.5222 9.11006 15.5222C9.11006 16.4587 9.8692 17.2178 10.8057 17.2178H14.197C15.1335 17.2178 15.8927 16.4587 15.8927 15.5222C16.8292 15.5222 17.5883 14.763 17.5883 13.8265H17.5319C18.4682 13.8265 19.284 13.0674 19.284 12.1309Z" fill="#FFDA44"/>
<path d="M17.196 9.91211C17.196 12.5054 15.0937 14.6078 12.5003 14.6078C9.90698 14.6078 7.80469 12.5054 7.80469 9.91211" fill="#338AF3"/>
<path d="M16.0873 9.91384L14.6218 10.6032L15.4022 12.0226L13.8108 11.7182L13.6092 13.3258L12.5007 12.1434L11.3922 13.3258L11.1906 11.7182L9.59919 12.0225L10.3796 10.6032L8.91406 9.91384L10.3796 9.2245L9.59919 7.80517L11.1905 8.10958L11.3922 6.50195L12.5007 7.68438L13.6092 6.50195L13.8108 8.10958L15.4023 7.80517L14.6218 9.22455L16.0873 9.91384Z" fill="#FFDA44"/>
</g>
<defs>
<clipPath id="clip0_1805_50145">
<rect width="24" height="24" fill="white" transform="translate(0.5)"/>
</clipPath>
</defs>
</svg>
