<svg width="56" height="56" viewBox="0 0 56 56" fill="none" xmlns="http://www.w3.org/2000/svg">
<g clipPath="url(#clip0_4897_113773)">
<mask id="path-1-inside-1_4897_113773" fill="white">
<path fillRule="evenodd" clipRule="evenodd" d="M13.1589 6.15892C17.0956 2.22225 22.4327 0.00738513 28 0C33.5673 0.00738513 38.9044 2.22225 42.8411 6.15892C46.7777 10.0956 48.9926 15.4327 49 21C49 36.0763 29.435 54.9588 28.6037 55.755C28.4421 55.9122 28.2255 56.0001 28 56.0001C27.7745 56.0001 27.5579 55.9122 27.3962 55.755C26.565 54.9588 7 36.0763 7 21C7.00739 15.4327 9.22225 10.0956 13.1589 6.15892Z"/>
</mask>
<path fillRule="evenodd" clipRule="evenodd" d="M13.1589 6.15892C17.0956 2.22225 22.4327 0.00738513 28 0C33.5673 0.00738513 38.9044 2.22225 42.8411 6.15892C46.7777 10.0956 48.9926 15.4327 49 21C49 36.0763 29.435 54.9588 28.6037 55.755C28.4421 55.9122 28.2255 56.0001 28 56.0001C27.7745 56.0001 27.5579 55.9122 27.3962 55.755C26.565 54.9588 7 36.0763 7 21C7.00739 15.4327 9.22225 10.0956 13.1589 6.15892Z" fill="white"/>
<path d="M28 0L28.0013 -1L27.9987 -0.999999L28 0ZM13.1589 6.15892L13.866 6.86602H13.866L13.1589 6.15892ZM42.8411 6.15892L43.5482 5.45181L42.8411 6.15892ZM49 21H50V20.9987L49 21ZM28.6037 55.755L27.912 55.0328L27.9068 55.0379L28.6037 55.755ZM27.3962 55.755L28.0932 55.0379L28.088 55.0329L27.3962 55.755ZM7 21L6 20.9987V21H7ZM27.9987 -0.999999C22.1666 -0.992263 16.5757 1.32793 12.4518 5.45181L13.866 6.86602C17.6155 3.11657 22.6988 1.00703 28.0013 0.999999L27.9987 -0.999999ZM43.5482 5.45181C39.4243 1.32793 33.8334 -0.992263 28.0013 -0.999999L27.9987 0.999999C33.3012 1.00703 38.3845 3.11657 42.134 6.86602L43.5482 5.45181ZM50 20.9987C49.9923 15.1666 47.6721 9.57568 43.5482 5.45181L42.134 6.86602C45.8834 10.6155 47.993 15.6988 48 21.0013L50 20.9987ZM29.2955 56.4772C29.7286 56.0623 34.8726 51.0988 39.9155 44.33C42.4372 40.9452 44.9491 37.0886 46.8339 33.1066C48.7146 29.1329 50 24.9735 50 21H48C48 24.5646 46.8397 28.4192 45.0261 32.251C43.2164 36.0745 40.7851 39.8151 38.3117 43.1351C33.3643 49.7756 28.3102 54.6515 27.912 55.0329L29.2955 56.4772ZM28 57.0001C28.4858 57.0001 28.9524 56.8107 29.3007 56.4721L27.9068 55.0379C27.9317 55.0136 27.9652 55.0001 28 55.0001V57.0001ZM26.6993 56.4721C27.0476 56.8107 27.5142 57.0001 28 57.0001V55.0001C28.0348 55.0001 28.0683 55.0136 28.0932 55.0379L26.6993 56.4721ZM6 21C6 24.9735 7.28535 29.1329 9.16615 33.1066C11.0509 37.0886 13.5628 40.9452 16.0845 44.33C21.1274 51.0988 26.2714 56.0623 26.7045 56.4772L28.088 55.0329C27.6898 54.6515 22.6357 49.7756 17.6883 43.1351C15.2149 39.8151 12.7836 36.0745 10.9739 32.251C9.16027 28.4192 8 24.5646 8 21H6ZM12.4518 5.45181C8.32793 9.57568 6.00774 15.1666 6 20.9987L8 21.0013C8.00703 15.6988 10.1166 10.6155 13.866 6.86602L12.4518 5.45181Z" fill="#6C559F" mask="url(#path-1-inside-1_4897_113773)"/>
<rect x="14" y="7" width="28" height="28" rx="14" fill="white"/>
<path d="M43.6549 13.9997V18.4062H41.772C41.6702 18.4062 41.5754 18.4754 41.5315 18.5793C41.4875 18.7117 41.4489 18.8561 41.405 19.0156L40.3178 23.7757C40.0527 24.9175 39.5977 26.0038 38.9022 26.8207C38.156 27.6723 37.2076 28.2184 36.0079 28.2184C34.8065 28.2184 33.8582 27.6723 33.1119 26.8207C32.4166 26.0038 31.9685 24.9175 31.7087 23.7757L30.8112 19.8941C30.7797 19.7558 30.6793 19.6805 30.5652 19.6805C30.4389 19.6805 30.3371 19.7558 30.3124 19.8941L29.4079 23.7757C29.1551 24.9175 28.7002 26.0038 27.9978 26.8207C27.2584 27.6723 26.3115 28.2184 25.1103 28.2184C23.909 28.2184 22.9538 27.6723 22.2144 26.8207C21.5135 26.0038 21.0709 24.9175 20.8057 23.7757L19.9136 19.8941C19.8821 19.7558 19.775 19.6805 19.6608 19.6805C19.5343 19.6805 19.434 19.7558 19.4148 19.8941L18.5105 23.7757C18.2576 24.9175 17.7971 26.0038 17.1017 26.8207C16.3555 27.6723 15.4071 28.2184 14.206 28.2184H12V23.8102H13.8897C14.0039 23.8102 14.0918 23.7411 14.1303 23.6237C14.1742 23.5064 14.2183 23.3605 14.2567 23.2009L15.3507 18.4274C15.616 17.299 16.0586 16.2128 16.7719 15.3899C17.5127 14.5322 18.4597 13.9997 19.6608 13.9997C20.8552 13.9997 21.8035 14.5322 22.543 15.3899C23.2575 16.2128 23.7002 17.299 23.9654 18.4274L24.8573 22.3088C24.889 22.4548 24.9962 22.5376 25.1103 22.5376C25.2366 22.5376 25.3246 22.4548 25.3563 22.3088L26.2538 18.4274C26.5136 17.299 26.9615 16.2128 27.6694 15.3899C28.4157 14.5322 29.364 13.9997 30.5652 13.9997C31.7527 13.9997 32.7135 14.5322 33.4473 15.3899C34.1551 16.2128 34.5976 17.299 34.863 18.4274L35.7549 22.3088C35.792 22.4548 35.8937 22.5376 36.0079 22.5376C36.1342 22.5376 36.2222 22.4548 36.2607 22.3088L37.1513 18.4274C37.411 17.299 37.8714 16.2128 38.567 15.3899C39.3132 14.5322 40.2616 13.9997 41.4627 13.9997H43.6549Z" fill="#6C559F"/>
</g>
<defs>
<clipPath id="clip0_4897_113773">
<rect width="56" height="56" fill="white"/>
</clipPath>
</defs>
</svg>
