<svg width="753" height="591" viewBox="0 0 753 591" fill="none" xmlns="http://www.w3.org/2000/svg">
<g id="No Chat History">
<path id="Fill 1" fillRule="evenodd" clipRule="evenodd" d="M407.663 2.59131C338.806 2.59131 275.518 26.4599 225.546 66.3941H144.782C134.289 66.3941 125.704 75.0075 125.704 85.535C125.704 96.0625 134.289 104.676 144.782 104.676H185.885H197.93C208.423 104.676 217.008 113.289 217.008 123.817C217.008 129.074 214.859 133.872 211.399 137.33C207.952 140.801 203.17 142.958 197.93 142.958H172.233H158.044H88.8194C78.3264 142.958 69.7412 151.571 69.7412 162.098C69.7412 172.626 78.3264 181.239 88.8194 181.239H138.377C123.417 216.512 115.131 255.323 115.131 296.084C115.131 310.874 116.225 325.408 118.323 339.611C119.201 345.544 120.256 351.427 121.49 357.246C157.484 351.72 195.666 347.28 235.527 344.039L238.528 346.782L241.352 343.579C289.238 339.84 339.503 337.85 391.345 337.85C501.489 337.85 604.562 346.833 692.691 362.452C696.087 347.675 698.376 332.477 699.457 316.935C699.953 310.044 700.195 303.09 700.195 296.084C700.195 133.987 569.23 2.59131 407.663 2.59131Z" fill="#F1F2F7"/>
<path id="Fill 3" fillRule="evenodd" clipRule="evenodd" d="M30.8875 142.072H19.3256C8.69653 142.072 0 150.86 0 161.6C0 172.34 8.69653 181.127 19.3256 181.127H30.8875C41.5166 181.127 50.2131 172.34 50.2131 161.6C50.2131 150.86 41.5166 142.072 30.8875 142.072Z" fill="#F1F2F7"/>
<g id="Group 7">
<mask id="mask0_5031_88466" style="mask-type:luminance" maskUnits="userSpaceOnUse" x="121" y="338" width="632" height="251">
<path id="Clip 6" fillRule="evenodd" clipRule="evenodd" d="M753.001 338.269V588.409H437.047H121.093V338.269H753.001Z" fill="white"/>
</mask>
<g mask="url(#mask0_5031_88466)">
<path id="Fill 5" fillRule="evenodd" clipRule="evenodd" d="M753.001 434.98C753.001 445.441 744.418 454 733.927 454H612.097C606.858 454 602.078 456.143 598.632 459.592C595.173 463.028 593.023 467.796 593.023 473.02C593.023 483.481 601.606 492.04 612.097 492.04H634.732C639.969 492.04 644.752 494.183 648.198 497.632C651.657 501.069 653.805 505.836 653.805 511.061C653.805 521.522 645.222 530.081 634.732 530.081H582.686C533.793 566.701 473.039 588.409 407.197 588.409C266.573 588.409 149.131 489.441 121.093 357.543C157.078 352.052 195.251 347.64 235.102 344.419L238.102 347.145L240.926 343.962C288.799 340.247 339.053 338.269 390.882 338.269C500.999 338.269 604.048 347.196 692.155 362.716C687.871 381.204 681.818 399.007 674.189 415.96H733.927C739.179 415.96 743.935 418.103 747.393 421.552C750.852 424.988 753.001 429.756 753.001 434.98Z" fill="#E8EBF2"/>
</g>
</g>
<path id="Fill 8" fillRule="evenodd" clipRule="evenodd" d="M697.404 316.068C696.324 331.906 694.038 347.394 690.646 362.452C602.635 346.535 499.698 337.382 389.7 337.382C337.927 337.382 287.729 339.409 239.906 343.22L273.071 304.793L324.662 338.46L394.501 319.177L514.645 337.382L566.803 319.177L580.013 337.382L611.53 313.988L640.982 340.983L687.433 303.87L697.404 316.068Z" fill="#E0E2EE"/>
<path id="Fill 10" fillRule="evenodd" clipRule="evenodd" d="M526.179 332.882C539.389 313.679 546.957 290.905 546.762 266.534C546.221 198.747 485.834 144.277 411.883 144.867C337.933 145.458 278.424 200.89 278.966 268.677C279.507 336.462 339.895 390.934 413.844 390.344C440.265 390.133 464.841 382.917 485.496 370.64L540.745 383.65L526.179 332.882Z" fill="url(#paint0_linear_5031_88466)"/>
<path id="Vector" d="M354.583 243.974L361.101 257.183L375.68 259.306C376.175 259.377 376.64 259.585 377.023 259.906C377.406 260.228 377.692 260.65 377.847 261.126C378.003 261.601 378.022 262.11 377.903 262.596C377.784 263.082 377.531 263.524 377.174 263.874L366.606 274.169L369.075 288.699C369.159 289.192 369.103 289.699 368.915 290.162C368.726 290.625 368.413 291.026 368.009 291.321C367.605 291.616 367.127 291.792 366.629 291.831C366.13 291.869 365.631 291.768 365.187 291.539L352.225 284.675L339.164 291.539C338.721 291.77 338.221 291.872 337.723 291.834C337.224 291.796 336.746 291.619 336.343 291.324C335.94 291.029 335.627 290.626 335.441 290.162C335.254 289.698 335.201 289.192 335.288 288.699L337.757 274.169L327.177 263.874C326.824 263.522 326.576 263.08 326.459 262.595C326.343 262.111 326.363 261.604 326.518 261.13C326.673 260.657 326.956 260.236 327.336 259.914C327.716 259.591 328.178 259.381 328.671 259.306L343.262 257.183L349.78 243.974C350.005 243.53 350.348 243.157 350.772 242.897C351.196 242.636 351.684 242.498 352.182 242.498C352.679 242.498 353.167 242.636 353.591 242.897C354.015 243.157 354.358 243.53 354.583 243.974Z" fill="#7E5FA6"/>
<path id="Vector_2" d="M417.339 243.974L423.857 257.183L438.437 259.306C438.932 259.377 439.397 259.585 439.78 259.906C440.163 260.228 440.449 260.65 440.604 261.126C440.759 261.601 440.779 262.11 440.66 262.596C440.541 263.082 440.288 263.524 439.93 263.874L429.363 274.169L431.832 288.699C431.915 289.192 431.86 289.699 431.671 290.162C431.483 290.625 431.169 291.026 430.766 291.321C430.362 291.616 429.884 291.792 429.386 291.831C428.887 291.869 428.388 291.768 427.944 291.539L414.982 284.675L401.921 291.539C401.477 291.77 400.978 291.872 400.48 291.834C399.981 291.796 399.503 291.619 399.1 291.324C398.697 291.029 398.384 290.626 398.197 290.162C398.011 289.698 397.958 289.192 398.044 288.699L400.513 274.169L389.934 263.874C389.581 263.522 389.332 263.08 389.216 262.595C389.1 262.111 389.12 261.604 389.275 261.13C389.43 260.657 389.713 260.236 390.093 259.914C390.473 259.591 390.935 259.381 391.428 259.306L406.019 257.183L412.537 243.974C412.762 243.53 413.105 243.157 413.529 242.897C413.953 242.636 414.441 242.498 414.938 242.498C415.436 242.498 415.924 242.636 416.348 242.897C416.771 243.157 417.115 243.53 417.339 243.974Z" fill="#7E5FA6"/>
<path id="Vector_3" d="M480.093 243.974L486.611 257.183L501.191 259.306C501.686 259.377 502.151 259.585 502.534 259.906C502.917 260.228 503.202 260.65 503.358 261.126C503.513 261.601 503.533 262.11 503.414 262.596C503.295 263.082 503.042 263.524 502.684 263.874L492.117 274.169L494.586 288.699C494.669 289.192 494.614 289.699 494.425 290.162C494.237 290.625 493.923 291.026 493.519 291.321C493.116 291.616 492.638 291.792 492.139 291.831C491.641 291.869 491.142 291.768 490.698 291.539L477.735 284.675L464.675 291.539C464.231 291.77 463.732 291.872 463.234 291.834C462.735 291.796 462.257 291.619 461.854 291.324C461.451 291.029 461.138 290.626 460.951 290.162C460.765 289.698 460.712 289.192 460.798 288.699L463.267 274.169L452.688 263.874C452.335 263.522 452.086 263.08 451.97 262.595C451.854 262.111 451.874 261.604 452.029 261.13C452.184 260.657 452.467 260.236 452.847 259.914C453.227 259.591 453.689 259.381 454.182 259.306L468.773 257.183L475.291 243.974C475.516 243.53 475.859 243.157 476.283 242.897C476.707 242.636 477.195 242.498 477.692 242.498C478.19 242.498 478.678 242.636 479.101 242.897C479.525 243.157 479.869 243.53 480.093 243.974Z" fill="#7E5FA6"/>
<path id="Fill 18" fillRule="evenodd" clipRule="evenodd" d="M239.907 342.925L237.202 345.715L234.328 343.325C236.179 343.181 238.044 343.047 239.907 342.925Z" fill="#F1F2F7"/>
<path id="Fill 20" fillRule="evenodd" clipRule="evenodd" d="M265.014 362.454C265.014 371.312 267.847 379.559 272.716 386.501L267.548 405.021L287.668 400.126C295.233 404.526 304.203 407.086 313.832 407.086C340.794 407.086 362.65 387.103 362.65 362.454C362.65 337.802 340.794 317.818 313.832 317.818C286.87 317.818 265.014 337.802 265.014 362.454Z" fill="url(#paint1_linear_5031_88466)"/>
<path id="Fill 22" fillRule="evenodd" clipRule="evenodd" d="M326.385 362.452C326.385 365.533 328.881 368.031 331.963 368.031C335.044 368.031 337.543 365.533 337.543 362.452C337.543 359.372 335.044 356.873 331.963 356.873C328.881 356.873 326.385 359.372 326.385 362.452Z" fill="#7E5FA6"/>
<path id="Fill 24" fillRule="evenodd" clipRule="evenodd" d="M309.647 362.452C309.647 365.533 312.145 368.031 315.227 368.031C318.307 368.031 320.806 365.533 320.806 362.452C320.806 359.372 318.307 356.873 315.227 356.873C312.145 356.873 309.647 359.372 309.647 362.452Z" fill="#7E5FA6"/>
<path id="Fill 26" fillRule="evenodd" clipRule="evenodd" d="M290.121 362.452C290.121 365.533 292.619 368.031 295.7 368.031C298.781 368.031 301.28 365.533 301.28 362.452C301.28 359.372 298.781 356.873 295.7 356.873C292.619 356.873 290.121 359.372 290.121 362.452Z" fill="#7E5FA6"/>
<path id="Fill 28" fillRule="evenodd" clipRule="evenodd" d="M234.328 343.644C194.481 346.891 156.312 351.339 120.33 356.873C119.097 351.045 118.041 345.153 117.164 339.209L178.841 292.712L234.328 343.644Z" fill="#E0E2EE"/>
<path id="Fill 30" fillRule="evenodd" clipRule="evenodd" d="M513.289 439.166C513.289 444.559 464.58 448.93 404.494 448.93C344.408 448.93 295.699 444.559 295.699 439.166C295.699 433.776 344.408 429.403 404.494 429.403C464.58 429.403 513.289 433.776 513.289 439.166Z" fill="#D8DBEA"/>
<path id="Fill 32" fillRule="evenodd" clipRule="evenodd" d="M691.826 529.829C681.086 529.829 672.299 521.042 672.299 510.302C672.299 499.562 681.086 490.775 691.826 490.775C702.566 490.775 711.353 499.562 711.353 510.302C711.353 521.042 702.566 529.829 691.826 529.829Z" fill="#E1E3EF"/>
</g>
<defs>
<linearGradient id="paint0_linear_5031_88466" x1="412.864" y1="22.1189" x2="168.304" y2="288.912" gradientUnits="userSpaceOnUse">
<stop stop-color="#7E5FA6" stop-opacity="0.3"/>
<stop offset="1" stop-color="#7E5FA6" stop-opacity="0.7"/>
</linearGradient>
<linearGradient id="paint1_linear_5031_88466" x1="313.832" y1="273.184" x2="224.921" y2="370.43" gradientUnits="userSpaceOnUse">
<stop stop-color="#7E5FA6" stop-opacity="0.3"/>
<stop offset="1" stop-color="#7E5FA6" stop-opacity="0.7"/>
</linearGradient>
</defs>
</svg>
