<svg width="25" height="24" viewBox="0 0 25 24" fill="none" xmlns="http://www.w3.org/2000/svg">
<ellipse cx="12.4995" cy="12.0012" rx="11.9995" ry="11.9993" fill="white"/>
<path d="M23.8155 8H16.4219C16.7431 10.5634 16.7449 13.3878 16.4281 15.9543H23.8312C24.2634 14.7162 24.501 13.3865 24.501 12.0011C24.5012 10.5975 24.2581 9.25145 23.8155 8Z" fill="#3757A6"/>
<path d="M16.4212 7.9984H23.8147C23.8135 7.9946 23.8124 7.99141 23.8109 7.98796C22.2752 3.65768 18.3246 0.471739 13.5781 0.0488281C15.4151 1.05567 15.9517 4.24561 16.4212 7.9984Z" fill="white"/>
<path d="M13.5781 23.9497C18.3331 23.526 22.2892 20.3291 23.819 15.9872C23.823 15.9757 23.8264 15.9643 23.8305 15.9531H16.4272C15.9613 19.7262 15.4225 22.9387 13.5781 23.9497Z" fill="#E73B36"/>
<path d="M0.5 12.0011C0.5 13.3867 0.737983 14.7162 1.16977 15.9543H17.0444C17.3616 13.3876 17.3593 10.5634 17.0386 8H1.18573C0.743101 9.25151 0.5 10.5975 0.5 12.0011Z" fill="#3757A6"/>
<path d="M1.1913 7.98838C1.19019 7.99178 1.18902 7.99502 1.1875 7.99882H17.0404C16.5705 4.24598 15.4162 1.05609 13.5795 0.0492475C13.2242 0.0177838 12.865 0 12.5016 0C7.28139 -5.06662e-05 2.84219 3.33383 1.1913 7.98838Z" fill="white"/>
<path d="M17.0465 15.9531H1.17188C1.17588 15.9643 1.17963 15.9757 1.18343 15.9872C2.82773 20.6537 7.27331 23.9994 12.5019 23.9994C12.8653 23.9994 13.2245 23.9815 13.5797 23.9497C15.4243 22.9387 16.5806 19.7263 17.0465 15.9531Z" fill="#E73B36"/>
</svg>
