<svg width="423" height="351" viewBox="0 0 423 351" fill="none" xmlns="http://www.w3.org/2000/svg">
<g id="No Results">
<g id="circle">
<path id="Stroke 1" d="M17.3965 161.403V164.962" stroke="#AA2400" strokeWidth="2.921" strokeLinecap="round"/>
<g id="Group 8">
<path id="Stroke 2" d="M9.39844 163.329L12.3065 166.323" stroke="#AA2400" strokeWidth="2.921" strokeLinecap="round"/>
<path id="Stroke 4" d="M6 171.295H10.112" stroke="#AA2400" strokeWidth="2.921" strokeLinecap="round"/>
<path id="Stroke 6" d="M9.07031 179.411L11.9784 176.417" stroke="#AA2400" strokeWidth="2.921" strokeLinecap="round"/>
</g>
<path id="Stroke 9" d="M17.3965 180.385V176.826" stroke="#AA2400" strokeWidth="2.921" strokeLinecap="round"/>
<path id="Stroke 10" d="M23.3315 178.012L20.959 175.64" stroke="#AA2400" strokeWidth="2.921" strokeLinecap="round"/>
<path id="Stroke 11" d="M28.0745 172.08H24.5156" stroke="#AA2400" strokeWidth="2.921" strokeLinecap="round"/>
<path id="Stroke 12" d="M25.7046 163.775L23.332 166.148" stroke="#AA2400" strokeWidth="2.921" strokeLinecap="round"/>
<path id="Stroke 13" d="M208.389 6V8.37255" stroke="#AA2400" strokeWidth="2.921" strokeLinecap="round"/>
<path id="Stroke 15" d="M201.27 13.1184H203.642" stroke="#AA2400" strokeWidth="2.921" strokeLinecap="round"/>
<path id="Stroke 16" d="M208.389 20.2363V17.8638" stroke="#AA2400" strokeWidth="2.921" strokeLinecap="round"/>
<path id="Stroke 17" d="M214.318 13.1184H211.945" stroke="#AA2400" strokeWidth="2.921" strokeLinecap="round"/>
<path id="Stroke 18" d="M70.7871 105.647V109.206" stroke="#AA2400" strokeWidth="2.921" strokeLinecap="round"/>
<path id="Stroke 19" d="M60.1055 116.325H63.6643" stroke="#AA2400" strokeWidth="2.921" strokeLinecap="round"/>
<path id="Stroke 20" d="M70.7871 125.815V122.257" stroke="#AA2400" strokeWidth="2.921" strokeLinecap="round"/>
<path id="Stroke 21" d="M80.2756 116.325H76.7168" stroke="#AA2400" strokeWidth="2.921" strokeLinecap="round"/>
<g id="Group 42">
<path id="Stroke 22" d="M326.134 235.001C328.969 235.001 331.268 237.301 331.268 240.137C331.268 242.973 328.969 245.272 326.134 245.272C323.299 245.272 321 242.973 321 240.137" stroke="#AA2400" strokeWidth="2.921" strokeLinecap="round"/>
<path id="Fill 26" fill-rule="evenodd" clip-rule="evenodd" d="M349.623 188.406C352.672 187.455 357.344 183.727 358.426 179.716C359.407 183.262 363.519 187.455 367.229 187.773C363.053 189.252 359.06 193.645 358.426 197.096C357.995 193.578 352.472 188.919 349.623 188.406Z" fill="#AA2400"/>
<path id="Fill 28" fill-rule="evenodd" clip-rule="evenodd" d="M36.6973 233.418C38.222 232.943 40.5575 231.079 41.0983 229.074C41.5887 230.846 43.6442 232.943 45.4993 233.102C43.4116 233.841 41.4155 236.038 41.0983 237.763C40.8828 236.004 38.1213 233.674 36.6973 233.418Z" fill="#AA2400"/>
<path id="Fill 30" fill-rule="evenodd" clip-rule="evenodd" d="M64.9973 68.3971C64.9973 70.5972 63.2147 72.3792 61.0162 72.3792C58.8167 72.3792 57.0352 70.5972 57.0352 68.3971C57.0352 66.1981 58.8167 64.415 61.0162 64.415C63.2147 64.415 64.9973 66.1981 64.9973 68.3971Z" fill="#D1D8DF"/>
<path id="Fill 32" fill-rule="evenodd" clip-rule="evenodd" d="M330.834 79.0885C330.834 82.7644 327.854 85.7441 324.18 85.7441C320.504 85.7441 317.525 82.7644 317.525 79.0885C317.525 75.4126 320.504 72.4329 324.18 72.4329C327.854 72.4329 330.834 75.4126 330.834 79.0885Z" fill="#AA2400"/>
<path id="Fill 34" fill-rule="evenodd" clip-rule="evenodd" d="M422.997 61.0601C422.997 63.9764 420.634 66.3397 417.72 66.3397C414.804 66.3397 412.441 63.9764 412.441 61.0601C412.441 58.1438 414.804 55.7805 417.72 55.7805C420.634 55.7805 422.997 58.1438 422.997 61.0601Z" fill="#AA2400"/>
<path id="Stroke 36" fill-rule="evenodd" clip-rule="evenodd" d="M139.392 307.634C139.392 309.473 137.903 310.963 136.065 310.963C134.228 310.963 132.738 309.473 132.738 307.634C132.738 305.796 134.228 304.306 136.065 304.306C137.903 304.306 139.392 305.796 139.392 307.634Z" stroke="#AA2400" strokeWidth="2.921" strokeLinecap="round"/>
<path id="Stroke 38" fill-rule="evenodd" clip-rule="evenodd" d="M137.413 42.8144C137.413 45.0145 135.631 46.7965 133.432 46.7965C131.234 46.7965 129.451 45.0145 129.451 42.8144C129.451 40.6153 131.234 38.8323 133.432 38.8323C135.631 38.8323 137.413 40.6153 137.413 42.8144Z" stroke="#AA2400" strokeWidth="2.921" strokeLinecap="round"/>
<path id="Stroke 40" fill-rule="evenodd" clip-rule="evenodd" d="M238.966 344.488C236.422 345.456 233.575 344.177 232.607 341.634C231.639 339.089 232.916 336.24 235.461 335.273C238.004 334.305 240.851 335.583 241.819 338.127C242.787 340.672 241.509 343.52 238.966 344.488Z" stroke="#AA2400" strokeWidth="2.921" strokeLinecap="round"/>
</g>
</g>
<g id="search">
<g id="search_2">
<path id="Fill 21" fill-rule="evenodd" clip-rule="evenodd" d="M212.372 175.076C197.975 189.471 175.686 191.095 159.504 179.981C157.436 178.535 155.468 176.911 153.632 175.076C152.687 174.134 151.797 173.162 150.957 172.139C149.279 170.096 147.808 167.916 146.604 165.665C144.482 161.861 143.038 157.826 142.251 153.654C139.709 140.572 143.509 126.491 153.632 116.373C163.779 106.225 177.862 102.449 190.947 104.967C195.116 105.778 199.155 107.221 202.959 109.319C205.214 110.551 207.364 112.021 209.411 113.699C210.431 114.535 211.403 115.428 212.345 116.373C214.184 118.208 215.832 120.173 217.251 122.244C228.37 138.42 226.743 160.708 212.372 175.076Z" fill="white" fill-opacity="0.1"/>
<path id="Fill 23" fill-rule="evenodd" clip-rule="evenodd" d="M208.347 172.24C193.369 187.221 169.094 187.219 154.113 172.24C139.151 157.278 139.151 133.001 154.133 118.022C169.094 103.061 193.369 103.061 208.33 118.022C223.309 133.001 223.309 157.278 208.347 172.24ZM216.035 110.327C196.808 91.1004 165.652 91.1004 146.426 110.327C127.202 129.55 127.186 160.726 146.409 179.952C163.908 197.445 191.334 199.022 210.625 184.66C212.509 183.255 214.323 181.68 216.054 179.952C217.782 178.221 219.357 176.407 220.759 174.522C235.122 155.229 233.53 127.822 216.035 110.327Z" fill="#E0E2EE"/>
<path id="Fill 25" fill-rule="evenodd" clip-rule="evenodd" d="M291.694 252.425L290.887 253.233C285.547 258.575 276.802 258.575 271.46 253.233L222.152 203.925L242.387 183.691L291.694 232.998C297.037 238.341 297.037 247.083 291.694 252.425Z" fill="url(#paint0_linear_30_81153)"/>
<path id="Fill 27" fill-rule="evenodd" clip-rule="evenodd" d="M221.812 173.013L236.382 187.584L226.038 197.925L211.471 183.355C213.393 181.921 215.242 180.314 217.011 178.551C218.774 176.788 220.381 174.936 221.812 173.013Z" fill="#E0E2EE"/>
<path id="Fill 29" fill-rule="evenodd" clip-rule="evenodd" d="M290.96 232.391L270.854 252.495L267.234 248.872L287.338 228.769L290.96 232.391Z" fill="url(#paint1_linear_30_81153)"/>
<path id="Fill 31" fill-rule="evenodd" clip-rule="evenodd" d="M243.505 184.386L222.848 205.043L219.779 201.974L240.436 181.318L243.505 184.386Z" fill="url(#paint2_linear_30_81153)"/>
<path id="Fill 33" fill-rule="evenodd" clip-rule="evenodd" d="M198.428 112.866L147.77 163.522C145.862 160.102 144.565 156.474 143.859 152.724L187.63 108.953C191.378 109.686 195.009 110.98 198.428 112.866Z" fill="white" fill-opacity="0.5"/>
<path id="Fill 35" fill-rule="evenodd" clip-rule="evenodd" d="M215.035 124.907L160.268 176.572C158.306 175.28 156.44 173.827 154.699 172.185C153.803 171.34 152.955 170.472 152.162 169.557L207.596 117.258C208.567 118.009 209.489 118.808 210.382 119.654C212.123 121.296 213.689 123.054 215.035 124.907Z" fill="white" fill-opacity="0.5"/>
</g>
</g>
</g>
<defs>
<linearGradient id="paint0_linear_30_81153" x1="258.927" y1="146.916" x2="185.378" y2="220.465" gradientUnits="userSpaceOnUse">
<stop stop-color="#AA2400"/>
<stop offset="1" stop-color="white"/>
</linearGradient>
<linearGradient id="paint1_linear_30_81153" x1="279.097" y1="216.906" x2="255.372" y2="240.632" gradientUnits="userSpaceOnUse">
<stop stop-color="#AA2400"/>
<stop offset="1" stop-color="white"/>
</linearGradient>
<linearGradient id="paint2_linear_30_81153" x1="231.642" y1="169.455" x2="207.917" y2="193.18" gradientUnits="userSpaceOnUse">
<stop stop-color="#AA2400"/>
<stop offset="1" stop-color="white"/>
</linearGradient>
</defs>
</svg>
