<svg width="33" height="33" viewBox="0 0 33 33" fill="none" xmlns="http://www.w3.org/2000/svg">
<path d="M8.16211 31.6241C8.16211 32.1459 8.58513 32.5689 9.10691 32.5689H18.8699V13.5469H8.16211V31.6241ZM11.9413 22.8059C11.9413 22.2842 12.3643 21.8611 12.8861 21.8611C13.4079 21.8611 13.8309 22.2842 13.8309 22.8059V27.8449C13.8309 28.3667 13.4079 28.7897 12.8861 28.7897C12.3643 28.7897 11.9413 28.3667 11.9413 27.8449V22.8059Z" fill="white"/>
<path d="M20.7598 32.5689H24.224C24.7458 32.5689 25.1688 32.1459 25.1688 31.6241V13.5469H20.7598V32.5689Z" fill="white"/>
<path d="M29.326 0.320312H4.00529C2.09509 0.320312 0.541016 1.87439 0.541016 3.78459V13.8625C0.541016 15.7727 2.09509 17.3268 4.00529 17.3268H6.27282V13.5476H5.32802C4.80623 13.5476 4.38321 13.1245 4.38321 12.6027C4.38321 12.081 4.80623 11.6579 5.32802 11.6579H28.0033C28.5251 11.6579 28.9481 12.081 28.9481 12.6027C28.9481 13.1245 28.5251 13.5476 28.0033 13.5476H27.0585V17.3268H29.326C31.2362 17.3268 32.7903 15.7727 32.7903 13.8625V3.78459C32.7903 1.87439 31.2362 0.320312 29.326 0.320312ZM19.8532 6.97216C19.6687 7.15665 19.4269 7.24887 19.1851 7.24887C18.9433 7.24887 18.7015 7.15665 18.5171 6.9721L17.6105 6.06553V8.82354C17.6105 9.34532 17.1874 9.76834 16.6657 9.76834C16.1439 9.76834 15.7208 9.34532 15.7208 8.82354V6.06553L14.8142 6.9721C14.4453 7.34108 13.8471 7.34108 13.4781 6.9721C13.1091 6.60313 13.1091 6.00494 13.4781 5.63596L15.9976 3.11649C16.3665 2.74751 16.9647 2.74751 17.3337 3.11649L19.8532 5.63596C20.2221 6.005 20.2221 6.60319 19.8532 6.97216Z" fill="white"/>
</svg>
