<svg width="25" height="24" viewBox="0 0 25 24" fill="none" xmlns="http://www.w3.org/2000/svg">
<path d="M21.833 15.5C22.113 15.5 22.333 15.72 22.333 16V17C22.333 18.66 20.993 20 19.333 20C19.333 18.35 17.983 17 16.333 17C14.683 17 13.333 18.35 13.333 20H11.333C11.333 18.35 9.98301 17 8.33301 17C6.68301 17 5.33301 18.35 5.33301 20C3.67301 20 2.33301 18.66 2.33301 17V15C2.33301 14.45 2.78301 14 3.33301 14H12.833C14.213 14 15.333 12.88 15.333 11.5V6C15.333 5.45 15.783 5 16.333 5H17.173C17.893 5 18.553 5.39 18.913 6.01L19.553 7.13C19.643 7.29 19.523 7.5 19.333 7.5C17.953 7.5 16.833 8.62 16.833 10V13C16.833 14.38 17.953 15.5 19.333 15.5H21.833Z" fill="#292D32"/>
<path d="M8.33301 22C9.43758 22 10.333 21.1046 10.333 20C10.333 18.8954 9.43758 18 8.33301 18C7.22844 18 6.33301 18.8954 6.33301 20C6.33301 21.1046 7.22844 22 8.33301 22Z" fill="#292D32"/>
<path d="M16.333 22C17.4376 22 18.333 21.1046 18.333 20C18.333 18.8954 17.4376 18 16.333 18C15.2284 18 14.333 18.8954 14.333 20C14.333 21.1046 15.2284 22 16.333 22Z" fill="#292D32"/>
<path d="M22.333 12.53V14H19.333C18.783 14 18.333 13.55 18.333 13V10C18.333 9.45 18.783 9 19.333 9H20.623L22.073 11.54C22.243 11.84 22.333 12.18 22.333 12.53Z" fill="#292D32"/>
<path d="M13.413 2H6.02301C3.98301 2 2.33301 3.65 2.33301 5.69V12.07C2.33301 12.62 2.78301 13.07 3.33301 13.07H12.483C13.503 13.07 14.333 12.24 14.333 11.22V2.92C14.333 2.41 13.923 2 13.413 2ZM10.403 7.07L8.31301 9.09C8.16301 9.23 7.97301 9.3 7.79301 9.3C7.60301 9.3 7.41301 9.23 7.27301 9.09L6.26301 8.13C5.96301 7.84 5.95301 7.36 6.24301 7.06C6.52301 6.76 7.00301 6.76 7.30301 7.04L7.79301 7.51L9.36301 5.99C9.66301 5.7 10.133 5.71 10.423 6.01C10.713 6.31 10.703 6.78 10.403 7.07Z" fill="#292D32"/>
</svg>
