<svg width="24" height="24" viewBox="0 0 24 24" fill="none" xmlns="http://www.w3.org/2000/svg">
<g clipPath="url(#clip0_5347_125640)">
<path d="M0.566625 8.34788C0.199031 9.4995 -4.68667e-05 10.7264 8.276e-09 11.9999C-4.68667e-05 13.2735 0.199078 14.5005 0.566672 15.6521L12 16.1739L23.4333 15.6522C23.8009 14.5005 24 13.2735 24 12C24 10.7264 23.8009 9.4995 23.4333 8.34783L12 7.82611L0.566625 8.34788Z" fill="#F0F0F0"/>
<path d="M23.4332 8.34789L11.9999 7.82617L0.5665 8.34789C0.457563 8.68933 0.363766 9.03747 0.285156 9.39138H23.7144C23.6359 9.03742 23.5421 8.68923 23.4332 8.34789Z" fill="#D80027"/>
<path d="M0.2854 14.6086C0.363916 14.9625 0.457713 15.3106 0.56665 15.6521L0.567775 15.6521L11.9999 16.1738L23.4333 15.6521C23.5422 15.3107 23.636 14.9625 23.7146 14.6086H0.2854Z" fill="#D80027"/>
<path d="M11.9999 23.9999C17.3538 23.9999 21.888 20.4935 23.4333 15.6521H0.56665C2.11188 20.4935 6.6462 23.9999 11.9999 23.9999Z" fill="#6DA544"/>
<path d="M12 6.10356e-05C6.6462 0.000107911 2.11198 3.5065 0.56665 8.34789L23.4333 8.34794C21.8881 3.50645 17.3539 1.41606e-05 12 6.10356e-05Z" fill="#338AF3"/>
<path d="M5.48376 4.95661C5.48376 3.83268 6.27365 2.89378 7.32848 2.66344C7.16638 2.628 6.99815 2.60883 6.82537 2.60883C5.52871 2.60883 4.47754 3.65995 4.47754 4.95665C4.47754 6.25336 5.52862 7.30448 6.82537 7.30448C6.99815 7.30448 7.16634 7.28526 7.32848 7.24987C6.2737 7.01943 5.48376 6.08053 5.48376 4.95661Z" fill="#F0F0F0"/>
<path d="M8.71628 6.0238L8.87519 6.51294H9.3895L8.97344 6.81529L9.13234 7.30443L8.71628 7.00213L8.30012 7.30443L8.45908 6.81529L8.04297 6.51294H8.55728L8.71628 6.0238Z" fill="#F0F0F0"/>
<path d="M10.3578 6.0238L10.5167 6.51294H11.0311L10.6149 6.81529L10.7739 7.30443L10.3578 7.00213L9.94168 7.30443L10.1006 6.81529L9.68457 6.51294H10.1988L10.3578 6.0238Z" fill="#F0F0F0"/>
<path d="M11.9992 6.0238L12.1581 6.51294H12.6725L12.2564 6.81529L12.4153 7.30443L11.9992 7.00213L11.5831 7.30443L11.7421 6.81529L11.3259 6.51294H11.8403L11.9992 6.0238Z" fill="#F0F0F0"/>
<path d="M13.6408 6.0238L13.7998 6.51294H14.3141L13.898 6.81529L14.057 7.30443L13.6408 7.00213L13.2247 7.30443L13.3837 6.81529L12.9675 6.51294H13.4818L13.6408 6.0238Z" fill="#F0F0F0"/>
<path d="M15.2826 6.0238L15.4415 6.51294H15.9559L15.5398 6.81529L15.6987 7.30443L15.2826 7.00213L14.8665 7.30443L15.0254 6.81529L14.6094 6.51294H15.1236L15.2826 6.0238Z" fill="#F0F0F0"/>
<path d="M10.3578 4.31628L10.5167 4.80538H11.0311L10.6149 5.10777L10.7739 5.59686L10.3578 5.29457L9.94168 5.59686L10.1006 5.10777L9.68457 4.80538H10.1988L10.3578 4.31628Z" fill="#F0F0F0"/>
<path d="M11.9992 4.31628L12.1581 4.80538H12.6725L12.2564 5.10777L12.4153 5.59686L11.9992 5.29457L11.5831 5.59686L11.7421 5.10777L11.3259 4.80538H11.8403L11.9992 4.31628Z" fill="#F0F0F0"/>
<path d="M13.6408 4.31628L13.7998 4.80538H14.3141L13.898 5.10777L14.057 5.59686L13.6408 5.29457L13.2247 5.59686L13.3837 5.10777L12.9675 4.80538H13.4818L13.6408 4.31628Z" fill="#F0F0F0"/>
<path d="M15.2826 4.31628L15.4415 4.80538H15.9559L15.5398 5.10777L15.6987 5.59686L15.2826 5.29457L14.8665 5.59686L15.0254 5.10777L14.6094 4.80538H15.1236L15.2826 4.31628Z" fill="#F0F0F0"/>
<path d="M11.9992 2.6087L12.1581 3.09789H12.6725L12.2564 3.40019L12.4153 3.88938L11.9992 3.58708L11.5831 3.88938L11.7421 3.40019L11.3259 3.09789H11.8403L11.9992 2.6087Z" fill="#F0F0F0"/>
<path d="M13.6408 2.6087L13.7998 3.09789H14.3141L13.898 3.40019L14.057 3.88938L13.6408 3.58708L13.2247 3.88938L13.3837 3.40019L12.9675 3.09789H13.4818L13.6408 2.6087Z" fill="#F0F0F0"/>
<path d="M15.2826 2.6087L15.4415 3.09789H15.9559L15.5398 3.40019L15.6987 3.88938L15.2826 3.58708L14.8665 3.88938L15.0254 3.40019L14.6094 3.09789H15.1236L15.2826 2.6087Z" fill="#F0F0F0"/>
<g clipPath="url(#clip1_5347_125640)">
<rect x="14.0156" y="0.84375" width="0.9375" height="0.9375" rx="0.46875" fill="#F9F5FF"/>
<mask id="mask0_5347_125640" style="mask-type:alpha" maskUnits="userSpaceOnUse" x="14" y="0" width="20" height="20">
<rect x="14.0156" y="0.84375" width="19" height="19" fill="#D9D9D9"/>
</mask>
<g mask="url(#mask0_5347_125640)">
<path d="M14.6818 1.18915L14.4105 1.46053L14.2871 1.33717" stroke="#7E5FA6" strokeWidth="1.6666" strokeLinecap="round" strokeLinejoin="round"/>
</g>
</g>
<rect x="14.25" y="1.07812" width="0.46875" height="0.46875" rx="0.234375" stroke="#7E5FA6" strokeWidth="0.46875"/>
</g>
<defs>
<clipPath id="clip0_5347_125640">
<rect width="24" height="24" fill="white"/>
</clipPath>
<clipPath id="clip1_5347_125640">
<rect x="14.0156" y="0.84375" width="0.9375" height="0.9375" rx="0.46875" fill="white"/>
</clipPath>
</defs>
</svg>
