<svg width="101" height="40" viewBox="0 0 101 40" fill="none" xmlns="http://www.w3.org/2000/svg">
<path d="M53.1236 29.0098C52.2276 29.0098 51.4006 28.8732 50.6424 28.6002C49.8844 28.3271 49.2642 27.9177 48.7128 27.4398C48.1614 26.8937 47.7479 26.2794 47.4033 25.4603C47.1276 24.6412 46.9209 23.7539 46.9209 22.6616V22.1838C46.9209 21.16 47.0586 20.3408 47.4033 19.5217C47.7479 18.7708 48.1614 18.1565 48.7128 17.6105C49.2642 17.0644 49.9533 16.7231 50.6424 16.4501C51.4006 16.177 52.1587 16.0405 52.9857 16.0405C53.8816 16.0405 54.6398 16.177 55.329 16.3818C56.0181 16.5865 56.5695 16.9279 57.052 17.3374C57.5344 17.747 57.879 18.2248 58.1546 18.7708C58.4302 19.3169 58.5681 19.9312 58.706 20.5457H55.5357C55.329 19.9996 55.0533 19.5217 54.7087 19.1804C54.3641 18.8392 53.8128 18.7026 53.0546 18.7026C52.6412 18.7026 52.2966 18.7708 51.8831 18.9074C51.5384 19.0439 51.1938 19.2487 50.9181 19.5217C50.6424 19.7948 50.4358 20.2044 50.2979 20.6139C50.16 21.0235 50.0912 21.5694 50.0912 22.1838V22.6616C50.0912 23.3442 50.16 23.8903 50.2979 24.3682C50.4358 24.8459 50.6424 25.2555 50.9181 25.5286C51.1938 25.8016 51.4696 26.0746 51.8831 26.2111C52.2276 26.3477 52.6412 26.4159 53.0546 26.4159C53.6748 26.4159 54.2262 26.2794 54.6398 25.938C55.0533 25.5968 55.3978 25.1873 55.5357 24.573H58.706C58.637 25.2555 58.4302 25.8699 58.1546 26.4159C57.879 26.962 57.4654 27.4398 56.983 27.8493C56.5006 28.259 55.9492 28.532 55.2601 28.7368C54.7087 28.9414 53.9506 29.0098 53.1236 29.0098Z" fill="black"/>
<path d="M65.184 28.873C64.4259 28.873 63.8056 28.8047 63.3231 28.6683C62.7718 28.5317 62.3583 28.3269 62.0137 27.9856C61.6691 27.6443 61.3935 27.2349 61.2556 26.6205C61.1178 26.0744 61.0488 25.3918 61.0488 24.5045V12.3542H64.1501V24.1631C64.1501 24.5727 64.1501 24.9139 64.2191 25.1188C64.288 25.3918 64.357 25.5965 64.4947 25.7331C64.6326 25.8695 64.7704 26.0061 65.0461 26.0744C65.2529 26.1426 65.5286 26.2109 65.8731 26.2109H66.3556C66.4935 26.2109 66.6312 26.2109 66.7001 26.1426V28.7365C66.6312 28.7365 66.4935 28.7365 66.3556 28.8047C66.2177 28.8047 66.0799 28.8047 66.011 28.873H65.5975H65.184Z" fill="black"/>
<path d="M70.5629 15.0161C70.0115 15.0161 69.529 14.8795 69.1847 14.5383C68.84 14.197 68.7021 13.7875 68.7021 13.3096C68.7021 12.8318 68.84 12.4223 69.1847 12.0809C69.529 11.7397 70.0115 11.6032 70.5629 11.6032C71.1143 11.6032 71.5968 11.7397 71.9413 12.0809C72.2858 12.4223 72.4238 12.8318 72.4238 13.3096C72.4238 13.7875 72.2858 14.197 71.9413 14.5383C71.5968 14.8795 71.1143 15.0161 70.5629 15.0161ZM68.9778 16.3131H72.0792V28.7363H68.9778V16.3131Z" fill="black"/>
<path d="M80.689 29.0098C79.793 29.0098 78.966 28.8732 78.2079 28.6002C77.4498 28.3271 76.8296 27.9177 76.2782 27.4398C75.7268 26.8937 75.3133 26.2794 74.9687 25.4603C74.6931 24.6412 74.4863 23.7539 74.4863 22.6616V22.1838C74.4863 21.16 74.6241 20.3408 74.9687 19.5217C75.3133 18.7708 75.7268 18.1565 76.2782 17.6105C76.8296 17.0644 77.5187 16.7231 78.2079 16.4501C78.966 16.177 79.7241 16.0405 80.5511 16.0405C81.447 16.0405 82.2051 16.177 82.8944 16.3818C83.5835 16.5865 84.1349 16.9279 84.6174 17.3374C85.0998 17.747 85.4444 18.2248 85.72 18.7708C85.9957 19.3169 86.1335 19.9312 86.2713 20.5457H83.1011C82.8944 19.9996 82.6188 19.5217 82.2741 19.1804C81.9295 18.8392 81.3783 18.7026 80.62 18.7026C80.2066 18.7026 79.862 18.7708 79.4484 18.9074C79.1039 19.0439 78.7592 19.2487 78.4835 19.5217C78.2079 19.7948 78.0011 20.2044 77.8634 20.6139C77.7255 21.0235 77.6565 21.5694 77.6565 22.1838V22.6616C77.6565 23.3442 77.7255 23.8903 77.8634 24.3682C78.0011 24.8459 78.2079 25.2555 78.4835 25.5286C78.7592 25.8016 79.035 26.0746 79.4484 26.2111C79.793 26.3477 80.2066 26.4159 80.62 26.4159C81.2403 26.4159 81.7916 26.2794 82.2051 25.938C82.6188 25.5968 82.9633 25.1873 83.1011 24.573H86.2713C86.2024 25.2555 85.9957 25.8699 85.72 26.4159C85.4444 26.962 85.0308 27.4398 84.5484 27.8493C84.066 28.259 83.5145 28.532 82.8255 28.7368C82.2741 28.9414 81.516 29.0098 80.689 29.0098Z" fill="black"/>
<path d="M88.4805 28.7344V12.3521H91.6506V21.4306L96.1993 16.3111H99.8521L95.1655 21.567L100.334 28.7344H96.6129L93.0291 23.6831L91.6506 25.1849V28.7344H88.4805Z" fill="black"/>
<path d="M7.22481 6.826C2.60727 11.331 0.333008 15.6314 0.333008 19.9317V20C0.333008 24.3004 2.60727 28.669 7.22481 33.174C11.7735 37.6791 16.1842 39.9317 20.5262 40H20.595C24.9368 40 29.3477 37.7474 33.8964 33.174C42.9934 24.1638 43.0624 15.9045 33.8964 6.75766C29.2787 2.25264 24.8681 0 20.5262 0C16.1154 0 11.7735 2.25264 7.22481 6.826ZM13.2207 27.1672C8.18969 22.1843 8.25856 17.6793 13.2207 12.7646C18.1829 7.84987 22.7315 7.78165 27.7626 12.7646C32.7936 17.7475 32.7247 22.2525 27.7626 27.1672C25.2814 29.6245 22.8693 30.8533 20.5262 30.8533C20.4629 30.8551 20.3993 30.856 20.336 30.856C17.9905 30.8561 15.7039 29.6266 13.2207 27.1672Z" fill="url(#paint0_linear_4664_37347)"/>
<defs>
<linearGradient id="paint0_linear_4664_37347" x1="7.06686" y1="34.0099" x2="32.5462" y2="7.03115" gradientUnits="userSpaceOnUse">
<stop stop-color="#0078FF"/>
<stop offset="1" stop-color="#00DEFF"/>
</linearGradient>
</defs>
</svg>
