<svg width="200" height="52" viewBox="0 0 200 52" fill="none" xmlns="http://www.w3.org/2000/svg">
<path fill-rule="evenodd" clip-rule="evenodd" d="M141.739 17.3662C142.688 17.3662 143.46 17.1029 144.055 16.5762C144.649 16.0496 144.946 15.3741 144.946 14.5498C144.946 13.7255 144.649 13.05 144.055 12.5234C143.46 11.9967 142.688 11.7334 141.739 11.7334C140.79 11.7334 140.018 11.9967 139.424 12.5234C138.829 13.05 138.532 13.7255 138.532 14.5498C138.532 15.3741 138.829 16.0496 139.424 16.5762C140.018 17.1029 140.79 17.3662 141.739 17.3662ZM68.155 31.3281V37.9226H62.1348V12.9184H68.155V23.9436L70.2475 20.7666L75.6332 12.9184H83.077L74.6384 23.9779L83.077 37.9226H75.9419L70.6249 28.6147L68.155 31.3281ZM93.6989 36.2568C92.6355 37.5963 91.149 38.2661 89.2394 38.2661C87.4899 38.2661 86.0035 37.7366 84.78 36.6776C83.5565 35.6186 82.9447 34.2876 82.9447 32.6848C82.9447 30.6698 83.688 29.1471 85.1745 28.1167C86.6609 27.0863 88.8221 26.5711 91.6578 26.5711H93.4416V25.5923C93.4416 23.8864 92.7041 23.0335 91.229 23.0335C89.8569 23.0335 89.1708 23.7089 89.1708 25.0599H83.3907C83.3907 23.2624 84.1539 21.8027 85.6804 20.6807C87.2069 19.5588 89.1537 18.9978 91.5206 18.9978C93.8875 18.9978 95.7571 19.5759 97.1292 20.7323C98.5014 21.8886 99.2046 23.4742 99.2389 25.4892V33.7152C99.2617 35.4211 99.5247 36.7262 100.028 37.6307V37.9226H94.2477C94.0419 37.5448 93.8589 36.9895 93.6989 36.2568ZM90.6287 34.1443C90.0798 34.1443 89.6282 33.9812 89.2737 33.6549C88.9192 33.3286 88.742 32.9021 88.742 32.3755C88.742 30.5666 89.7482 29.6621 91.7607 29.6621H93.4416V32.6331C93.2358 33.0223 92.8956 33.3715 92.4211 33.6806C91.9465 33.9898 91.3491 34.1443 90.6287 34.1443ZM114.93 36.669C113.426 37.7337 111.479 38.2661 109.089 38.2661C107.5 38.2661 106.082 37.9799 104.836 37.4074C103.589 36.835 102.617 36.0565 101.92 35.0719C101.222 34.0873 100.874 33.0512 100.874 31.9635H106.276C106.299 32.8222 106.585 33.449 107.134 33.844C107.683 34.239 108.386 34.4365 109.244 34.4365C110.033 34.4365 110.624 34.2762 111.019 33.9556C111.413 33.635 111.611 33.2172 111.611 32.702C111.611 32.2097 111.353 31.8147 110.839 31.517C110.324 31.2194 109.347 30.9102 107.906 30.5897C106.465 30.2691 105.276 29.8484 104.338 29.3274C103.401 28.8065 102.686 28.174 102.194 27.4298C101.703 26.6856 101.457 25.8327 101.457 24.871C101.457 23.1651 102.16 21.7598 103.567 20.655C104.973 19.5502 106.814 18.9978 109.089 18.9978C111.536 18.9978 113.503 19.553 114.99 20.6636C116.476 21.7741 117.219 23.2338 117.219 25.0427H111.422C111.422 23.5544 110.639 22.8102 109.072 22.8102C108.466 22.8102 107.957 22.9791 107.546 23.3168C107.134 23.6546 106.928 24.0753 106.928 24.5791C106.928 25.0942 107.18 25.5121 107.683 25.8327C108.186 26.1533 108.989 26.4166 110.093 26.6227C111.196 26.8287 112.165 27.0749 113 27.3611C115.79 28.3228 117.185 30.0459 117.185 32.5302C117.185 34.2247 116.433 35.6042 114.93 36.669ZM125.165 45.0667V36.3942C126.263 37.6421 127.663 38.2661 129.367 38.2661C131.574 38.2661 133.326 37.4046 134.624 35.6815C135.922 33.9585 136.571 31.6544 136.571 28.7693V28.4945C136.571 25.5407 135.936 23.2195 134.667 21.5308C133.398 19.8421 131.62 18.9978 129.333 18.9978C127.526 18.9978 126.068 19.6847 124.959 21.0585L124.787 19.3412H119.385V45.0667H125.165ZM125.165 32.2553C125.668 33.2857 126.594 33.8009 127.944 33.8009C129.785 33.8009 130.734 32.2095 130.791 29.0268V28.4085C130.791 25.1113 129.83 23.4626 127.909 23.4626C126.537 23.4626 125.623 23.9549 125.165 24.9395V32.2553ZM144.672 19.3411V37.9225H138.874V19.3411H144.672ZM173.325 42.4906L177.047 39.3307L173.017 36.1365C174.366 35.0947 175.423 33.7122 176.19 31.9892C176.956 30.2662 177.339 28.2483 177.339 25.9356V24.785C177.327 22.3808 176.861 20.2485 175.941 18.388C175.02 16.5276 173.731 15.0936 172.073 14.0861C170.415 13.0786 168.528 12.5749 166.413 12.5749C164.263 12.5749 162.357 13.0844 160.693 14.1033C159.029 15.1223 157.749 16.5648 156.851 18.431C155.953 20.2971 155.505 22.4609 155.505 24.9224V26.2448C155.539 28.6261 156.016 30.7327 156.937 32.5645C157.857 34.3963 159.141 35.8045 160.787 36.7891C162.434 37.7737 164.321 38.266 166.447 38.266C166.951 38.266 167.454 38.2317 167.957 38.163L173.325 42.4906ZM162.828 31.5941C163.64 32.905 164.846 33.5605 166.447 33.5605C167.979 33.5605 169.154 32.9136 169.972 31.6199C170.789 30.3262 171.204 28.4657 171.215 26.0386V24.888C171.215 22.4036 170.801 20.5174 169.972 19.2294C169.143 17.9414 167.956 17.2974 166.413 17.2974C164.823 17.2974 163.628 17.9328 162.828 19.2037C162.027 20.4745 161.622 22.3349 161.61 24.785V25.9356C161.61 28.3971 162.016 30.2832 162.828 31.5941ZM185.885 37.9226V29.0956H189.144L193.552 37.9226H200.001V37.665L194.787 27.5843C196.285 26.8745 197.385 25.9471 198.088 24.8023C198.792 23.6574 199.143 22.2148 199.143 20.4746C199.143 18.0704 198.309 16.2099 196.639 14.8933C194.97 13.5767 192.654 12.9184 189.693 12.9184H179.865V37.9226H185.885ZM185.885 24.4416H189.693C190.836 24.4416 191.697 24.141 192.274 23.54C192.852 22.9389 193.14 22.1003 193.14 21.0241C193.14 19.9479 192.849 19.1036 192.266 18.4911C191.682 17.8786 190.825 17.5723 189.693 17.5723H185.885V24.4416Z" fill="black"/>
<path fill-rule="evenodd" clip-rule="evenodd" d="M9.49695 0C9.66228 0 9.79738 0.129361 9.8065 0.292355L9.80699 0.309943V2.82887C9.80699 2.99414 9.67759 3.1292 9.51455 3.13832L9.49695 3.13881L3.13888 3.13876L3.13889 9.49697C3.13889 9.65635 3.01857 9.78762 2.86378 9.80497L2.84645 9.80643L2.82885 9.80692H0.310038C0.144713 9.80692 0.00961157 9.67756 0.000490794 9.51456L0 9.49697V2.83952C0 1.30689 1.21547 0.0545752 2.74065 0.0017173L2.78696 0.000483635L2.83956 0H9.49695ZM23.2987 6.66806C23.5567 6.66806 23.7672 6.87181 23.7778 7.12715L23.7782 7.14742V23.2988C23.7782 23.5567 23.5744 23.7671 23.319 23.7777L23.2987 23.7781H7.14756C6.88953 23.7781 6.6791 23.5744 6.66848 23.319L6.66806 23.2988V9.6103C6.66806 7.99502 7.92899 6.6943 9.52457 6.66845L9.57303 6.66806H23.2987ZM23.2987 26.3548C23.5472 26.3548 23.7528 26.5442 23.7762 26.7918L23.7777 26.8125L23.7782 26.8342V29.4937L9.8069 29.4936V40.3261H20.6392L20.6393 32.0704H23.7782V42.9856C23.7782 43.2339 23.5888 43.4396 23.3411 43.4629L23.3204 43.4644L23.2987 43.4649H9.57303C7.98849 43.4649 6.71939 42.2077 6.66956 40.6184L6.66842 40.5701L6.66806 40.5227V26.8342C6.66806 26.5858 6.85748 26.3802 7.10513 26.3569L7.1259 26.3554L7.14756 26.3548H23.2987ZM35.0504 40.3262L35.0505 31.753H31.9116L31.9116 37.4684L26.3548 37.4685V42.9857L26.3553 43.006C26.3659 43.2613 26.5763 43.4651 26.8343 43.4651H29.4937L29.4937 40.6073H34.9281L34.9281 43.4651H40.56L40.6085 43.4647C42.2041 43.4388 43.465 42.1381 43.465 40.5228V34.6107H37.4683V37.7495L40.326 37.7495V40.3262H35.0504ZM2.82885 40.3261C2.99418 40.3261 3.12928 40.4555 3.1384 40.6185L3.13889 40.6361L3.13888 46.9942L9.33819 46.9942C9.49761 46.9942 9.62892 47.1145 9.64628 47.2692L9.64773 47.2866L9.64822 47.3042V49.8231C9.64822 49.9884 9.51882 50.1234 9.35578 50.1325L9.33819 50.133H2.83956C1.30688 50.133 0.0545743 48.9175 0.00171727 47.3924L0.000483628 47.3461L0 47.2935V40.6361C0 40.4708 0.129401 40.3357 0.292445 40.3266L0.310038 40.3261H2.82885ZM49.8229 40.3261C49.9883 40.3261 50.1234 40.4555 50.1325 40.6185L50.133 40.6361V47.2935C50.133 48.8261 48.9175 50.0784 47.3923 50.1313L47.346 50.1325L47.2934 50.133H40.636C40.4707 50.133 40.3356 50.0037 40.3265 49.8407L40.326 49.8231V47.3042C40.326 47.1389 40.4554 47.0038 40.6184 46.9947L40.636 46.9942L46.994 46.9942L46.9941 40.6361C46.9941 40.4767 47.1144 40.3454 47.2692 40.3281L47.2865 40.3266L47.3041 40.3261H49.8229ZM18.5392 31.5941V38.2256H11.9075V31.5941H18.5392ZM34.8917 29.4937V26.3548H26.8343L26.8141 26.3553C26.5587 26.3659 26.3548 26.5762 26.3548 26.8342V34.8916H29.4937L29.4937 29.4936L34.8917 29.4937ZM43.4646 26.8139C43.454 26.5586 43.2435 26.3548 42.9855 26.3548H40.3261L40.3261 29.2126L37.4683 29.2126V32.3514H40.6072L40.6072 29.4936L43.465 29.4937V26.8342L43.4646 26.8139ZM43.4635 9.5146C43.4137 7.92529 42.1446 6.66806 40.56 6.66806H26.8343L26.8127 6.66857L26.7919 6.67009C26.5443 6.6934 26.3548 6.89903 26.3548 7.14742V23.2988L26.3554 23.3204L26.3569 23.3412C26.3802 23.5888 26.5859 23.7781 26.8343 23.7781L29.4937 23.7781L29.4937 9.80679H40.326V20.6393L37.7858 20.6393V23.7781L42.9855 23.7781L43.0071 23.7776L43.0279 23.7761C43.2756 23.7528 43.465 23.5472 43.465 23.2988V9.6103L43.4646 9.56286L43.4635 9.5146ZM35.2094 20.6395V23.7782H32.0705V20.6395H35.2094ZM9.80697 9.80692H20.6393V20.6394H9.80697V9.80692ZM18.5392 11.9072V18.5387H11.9075V11.9072H18.5392ZM38.232 18.5387V11.9072H31.6003V18.5387H38.232ZM50.1312 2.74062C50.0784 1.21548 48.8261 0 47.2934 0H40.636L40.6184 0.000490643C40.4554 0.00960862 40.326 0.144669 40.326 0.309943V2.82887L40.3265 2.84645L40.3279 2.86379C40.3453 3.01852 40.4766 3.13881 40.636 3.13881L46.994 3.13876L46.9941 9.49697L46.9946 9.51456C47.0037 9.67756 47.1388 9.80692 47.3041 9.80692H49.8229L49.8405 9.80643C50.0036 9.79731 50.133 9.66225 50.133 9.49697V2.83952L50.1325 2.78693L50.1312 2.74062Z" fill="#F14635"/>
</svg>
