<svg width="32" height="32" viewBox="0 0 32 32" fill="none" xmlns="http://www.w3.org/2000/svg">
<g clipPath="url(#clip0_1253_140649)">
<rect x="6" y="6" width="20" height="20" rx="10" fill="white"/>
<path d="M22.1897 6H9.81027C7.70591 6 6 7.70591 6 9.81027V22.1897C6 24.2941 7.70591 26 9.81027 26H22.1897C24.2941 26 26 24.2941 26 22.1897V9.81027C26 7.70591 24.2941 6 22.1897 6Z" fill="#D35143"/>
<path fillRule="evenodd" clipRule="evenodd" d="M20.1728 21.0432C20.2355 20.7374 19.5064 18.9969 19.0987 19.1968C18.7961 19.3444 18.8987 21.0036 19.1987 21.6301C19.2195 21.6735 19.2444 21.718 19.2878 21.7387C19.2956 21.7424 19.3036 21.7455 19.312 21.7479C19.3745 21.766 19.4367 21.7282 19.492 21.6939C19.6412 21.6013 19.7864 21.5024 19.9272 21.3974C20.0466 21.3084 20.1486 21.1901 20.1728 21.0432ZM14.1477 21.3646C14.1164 20.4003 13.9478 19.1302 13.6891 19.142C13.4304 19.1537 13.2971 20.612 13.4264 21.5802C13.4424 21.7641 13.4834 21.9446 13.548 22.1169C13.5866 22.2198 13.6706 22.2982 13.7739 22.3355C13.9171 22.3872 14.0768 22.3429 14.1144 22.1954C14.1572 22.027 14.1777 21.7624 14.1634 21.3646M16.3077 16.4803C16.1799 16.4472 16.0464 16.443 15.9169 16.4681C15.7873 16.4932 15.665 16.5469 15.5589 16.6253C15.116 17.0173 15.1238 18.0561 15.1316 19.2792V19.6241C15.1316 20.8354 15.1316 21.886 15.4296 22.3446C15.525 22.4795 15.6591 22.581 15.8129 22.6365C15.8798 22.6607 15.9515 22.6661 16.0227 22.6661H16.0921C16.6404 22.6658 17.1867 22.5986 17.7189 22.4662C17.8537 22.4158 17.9726 22.3318 18.0648 22.2232C18.125 22.1524 18.1604 22.0642 18.1754 21.9725C18.1918 21.8728 18.1978 21.7716 18.1932 21.6704C18.1371 20.6507 18.0222 19.6351 17.8489 18.6286C17.8485 18.6259 17.8482 18.6231 17.8482 18.6203C17.8482 18.6179 17.848 18.6155 17.8477 18.6131L17.7951 18.2624C17.7913 18.2373 17.7894 18.2119 17.7894 18.1865C17.7894 18.1623 17.7877 18.1382 17.7843 18.1143C17.6873 17.4373 17.5598 16.6846 16.3233 16.492M15.9823 9.33404C17.737 9.32672 19.4233 10.0146 20.6721 11.2473C21.921 12.48 22.6308 14.1572 22.6463 15.9119V15.9707C22.6456 17.4118 22.1675 18.8087 21.2919 19.9454C21.1607 20.1157 20.978 20.1361 20.8588 19.9573C20.1457 18.8731 19.7393 17.616 19.6828 16.3195C19.6828 15.955 20.2042 15.3866 20.6667 14.8926C20.9727 14.5985 21.2365 14.2634 21.4507 13.897C21.6036 13.5402 21.4978 13.2894 21.3292 13.2031C21.1607 13.1169 20.9372 13.2031 20.7804 13.4736C20.6113 13.8197 20.3562 14.1167 20.0395 14.336C19.6929 14.6133 19.1869 14.8906 19.0744 14.6693C19.0392 14.6001 19.0597 14.5171 19.0818 14.4427C19.1429 14.2374 19.2358 14.0426 19.3574 13.8656C19.428 13.7323 19.5025 13.6069 19.5574 13.4932C19.7259 13.1404 19.5574 12.8856 19.1889 12.8856C18.4989 12.8856 18.0403 13.7676 18.0403 14.0616C18.0396 14.1722 18.0623 14.2818 18.1069 14.383C18.1625 14.5061 18.1893 14.6401 18.1853 14.775C18.1853 15.1357 17.4288 15.5983 16.7114 15.5983C15.9941 15.5983 15.5903 15.4454 15.4374 15.0102L15.3943 14.8808C15.3917 14.8731 15.3904 14.865 15.3904 14.8568C15.3904 14.8494 15.3893 14.842 15.3871 14.8349C15.2615 14.4209 15.0958 14.0201 14.8925 13.6382C14.7796 13.4638 14.6362 13.3111 14.4692 13.1874C14.3737 13.1273 14.293 13.0476 14.2318 12.9545C14.167 12.8558 14.1399 12.7337 14.1618 12.6177C14.1848 12.4962 14.2542 12.3185 14.4574 12.0467C14.7945 11.5959 14.8494 11.2627 14.6691 11.0824C14.6296 11.0462 14.5832 11.0185 14.5326 11.001C14.4821 10.9835 14.4284 10.9765 14.3751 10.9805C14.025 11.0118 13.7012 11.1793 13.4735 11.4469C13.3321 11.5841 13.2329 11.7589 13.1878 11.9506C13.1426 12.1424 13.1533 12.343 13.2187 12.5289C13.2349 12.5905 13.2454 12.6535 13.25 12.717C13.25 12.9405 13.152 13.0659 12.858 13.3717C12.564 13.6774 12.4307 13.9362 12.3955 14.9867C12.3907 15.3724 12.3245 15.7548 12.1995 16.1196C12.1132 16.3725 12.0643 16.6366 12.0544 16.9036C12.0527 17.1983 12.095 17.4917 12.1799 17.7739C12.277 18.1065 12.3413 18.4479 12.3719 18.7931C12.4577 19.5111 12.4173 20.2386 12.2527 20.9426C12.2486 20.9599 12.2465 20.9777 12.2465 20.9955C12.2465 21.009 12.2453 21.0227 12.2427 21.0359C12.2119 21.1884 12.03 21.2323 11.9069 21.1372C11.1521 20.5542 10.5324 19.813 10.0921 18.9645C9.60701 18.0298 9.35371 16.9923 9.35352 15.9393C9.36181 14.1798 10.0685 12.4957 11.3181 11.2571C12.5677 10.0184 14.2581 9.32675 16.0176 9.33404" fill="white"/>
</g>
<defs>
<clipPath id="clip0_1253_140649">
<rect x="6" y="6" width="20" height="20" rx="10" fill="white"/>
</clipPath>
</defs>
</svg>
