<svg width="56" height="44" viewBox="0 0 56 44" fill="none" xmlns="http://www.w3.org/2000/svg">
<rect width="56" height="44" rx="6" fill="#D5AE6C"/>
<path fillRule="evenodd" clipRule="evenodd" d="M28.0006 9C35.1619 9 40.9702 14.7364 41 21.8246V21.936C40.987 25.0875 39.8272 27.9707 37.9166 30.2024C37.8472 30.1675 37.7208 30.0538 37.4918 29.7111C37.2548 29.3667 35.2109 26.2212 35.2109 22.616C35.2109 21.9084 36.2307 20.8032 37.1332 19.833L37.1524 19.8122C37.8199 19.0899 38.449 18.4092 38.6821 17.8733C38.9818 17.1749 38.7721 16.6873 38.4404 16.522C38.1403 16.3751 37.6895 16.4822 37.3733 17.044C36.8542 17.9532 36.6879 18.123 35.9309 18.7314C35.1858 19.3394 34.0014 19.9515 34.0014 19.1592C34.0014 18.8703 34.3022 18.3347 34.598 17.8082C34.7402 17.555 34.8812 17.304 34.987 17.0835C35.3198 16.3968 34.9611 15.8997 34.2739 15.8997C32.9244 15.8997 32.0286 17.6188 32.0286 18.2143C32.0286 18.5005 32.0954 18.6687 32.1647 18.8432C32.2395 19.0316 32.3173 19.2274 32.3173 19.5871C32.3173 20.2853 30.8366 21.191 29.4419 21.191C28.0381 21.191 27.2508 20.8939 26.9566 20.046L26.8633 19.77L26.8478 19.7247C26.525 18.7811 26.2886 18.0903 25.882 17.3689C25.6672 16.9895 25.3382 16.724 25.0498 16.4911L25.0314 16.4763C24.6487 16.1791 24.4503 15.9054 24.4089 15.7014C24.3707 15.4989 24.3501 15.1173 25.0042 14.2378C25.6569 13.3632 25.7484 12.7026 25.4217 12.3617C25.3033 12.2404 25.1015 12.1627 24.8423 12.1627C24.3839 12.1627 23.7469 12.4056 23.0904 13.0728C22.2937 13.8892 22.4722 14.6734 22.5887 15.1854C22.6214 15.3292 22.6493 15.4515 22.6493 15.547C22.6493 15.9826 22.4623 16.2289 21.85 16.8214C21.2331 17.4166 21.0202 17.9269 20.9496 19.9776C20.9226 21.0342 20.7365 21.6425 20.5695 22.1818C20.4251 22.6546 20.2923 23.099 20.2852 23.7411C20.2737 24.4527 20.3922 24.9112 20.5304 25.4404C20.6661 25.9294 20.8103 26.4898 20.9026 27.4272C21.0617 28.9991 20.9885 30.3067 20.6601 31.6706L20.6434 31.7608L20.64 31.7747C20.586 31.9921 20.5219 32.2505 20.4359 32.3486C17.1456 30.0116 15 26.1949 15 21.8807C15 14.7675 20.8203 9 28.0006 9ZM28.6073 22.9354C27.9601 22.8335 27.4834 22.9274 27.1479 23.2111C26.2817 23.9488 26.2965 26.0044 26.3139 28.3885L26.3182 29.0635C26.3283 31.427 26.3416 33.4707 26.8934 34.369C27.0694 34.6556 27.4018 34.8653 27.844 34.9909C27.8765 34.9919 27.9089 34.993 27.9413 34.9941L27.9415 34.9941C28.0234 34.997 28.1054 34.9999 28.1883 34.9999C29.2825 34.9999 30.3449 34.8646 31.3612 34.6144C31.7813 34.4118 32.0855 34.1687 32.19 33.9154C32.2526 33.751 32.2869 33.4519 32.2869 33.0621C32.2869 31.518 31.8336 28.5731 31.6095 27.1173L31.6095 27.1172L31.6028 27.074L31.4895 26.3199L31.4681 26.1712L31.4671 26.164C31.2773 24.8266 31.0627 23.3144 28.6073 22.9354ZM24.4279 32.4585C24.3628 30.5778 24.0386 28.0976 23.5343 28.126C22.9907 28.1593 22.7839 30.9889 23.0219 32.8778C23.0999 33.4789 23.2226 33.9378 23.3832 34.2295C23.6238 34.3271 23.868 34.4169 24.1166 34.4998C24.3361 34.3064 24.4736 33.7679 24.4279 32.4585ZM36.1755 31.8324C36.2931 31.2336 34.8726 27.8433 34.0796 28.2263C33.4715 28.5279 33.7074 31.992 34.3358 33.0963C34.4014 33.2071 34.5356 33.2248 34.6866 33.1993C35.1607 32.9136 35.6139 32.596 36.0449 32.25C36.0997 32.1378 36.144 32.0047 36.1755 31.8324Z" fill="white"/>
</svg>
