<svg width="138" height="40" viewBox="0 0 138 40" fill="none" xmlns="http://www.w3.org/2000/svg">
<path d="M39.8472 25.0013C39.8472 25.0013 38.7475 27.3008 34.8484 27.3008C33.9136 27.3437 32.9892 27.0883 32.2092 26.571C31.5116 26.0291 31.1355 25.1717 31.2094 24.2915C31.1216 23.1007 31.7777 21.9791 32.859 21.4723C34.4362 20.8663 36.1192 20.584 37.8077 20.6424C38.7959 20.4935 39.7179 21.1736 39.867 22.1618C39.8809 22.2546 39.8877 22.3481 39.8872 22.442L39.8472 25.0013ZM45.6557 12.1447C45.4434 11.6395 45.1533 11.1706 44.7959 10.7551C44.4346 10.37 44.0246 10.0339 43.5763 9.75518C43.092 9.42547 42.5761 9.14418 42.0367 8.91551C41.4873 8.70262 40.9225 8.53208 40.3471 8.40574C39.6886 8.25996 39.0204 8.16295 38.3476 8.11583C37.6278 8.04248 36.8214 8.00562 35.9281 8.00562C29.9698 8.00562 26.5772 9.88519 25.7508 13.6443C25.6162 14.1798 25.9409 14.7231 26.4764 14.8579C26.527 14.8705 26.5785 14.8793 26.6306 14.8839H30.2997C31.2994 14.8839 31.2994 14.574 31.6794 13.7142C31.8459 13.2462 32.1444 12.8364 32.539 12.5346C33.4766 11.9294 34.5853 11.6452 35.6984 11.7248C36.7363 11.6188 37.7787 11.8766 38.6476 12.4546C39.3101 13.0731 39.7018 13.9282 39.7372 14.834C39.7372 16.0736 39.3574 16.8935 37.8178 16.8935C34.1687 16.7635 30.2496 17.1733 28.0402 18.443C25.8263 19.7944 24.5062 22.2287 24.5812 24.8214C24.5559 25.8136 24.7576 26.7984 25.1709 27.7007C25.5602 28.4848 26.1247 29.169 26.8206 29.7002C27.5509 30.296 28.3943 30.7379 29.2999 30.9998C30.323 31.2769 31.3792 31.4113 32.4391 31.3997C33.8648 31.4219 35.2852 31.2195 36.6481 30.7999C37.8526 30.3065 38.991 29.665 40.0372 28.8903V29.59C40.0372 30.28 40.2471 30.8998 41.0369 30.8998H45.2859C46.1457 30.8998 46.3456 30.2899 46.3456 29.5301V16.4435C46.3507 15.6273 46.2938 14.8119 46.1756 14.0041C46.0813 13.3649 45.9066 12.7401 45.6557 12.1447ZM51.5543 34.7688C51.2198 34.7598 50.8861 34.7331 50.5545 34.6889C50.1447 34.6289 49.3648 34.6889 49.3648 35.3886V38.3879C49.3648 39.5376 49.9246 39.6176 50.2145 39.6977C51.1404 39.9007 52.0859 40.0014 53.0339 39.9975C54.1541 40.0268 55.2657 39.7976 56.2831 39.3276C57.2135 38.8575 58.0398 38.2047 58.7124 37.4081C59.4751 36.5362 60.1204 35.5681 60.632 34.529C61.1852 33.4225 61.7117 32.1996 62.2115 30.8599L62.7914 29.2702C61.6317 30.42 56.513 35.2487 51.5543 34.7688ZM68.9298 8.55555H65.0307C64.2626 8.50531 63.57 9.01637 63.3912 9.76526L58.8624 22.2421C58.8624 22.2421 54.8634 10.875 54.5634 9.99521C54.3899 9.15885 53.6579 8.55592 52.804 8.54565H49.2148C47.935 8.54565 47.935 9.54522 48.1052 9.93525C48.275 10.3251 53.1837 23.7817 55.1033 28.9304C55.4057 29.5642 55.6176 30.2373 55.7332 30.9297C55.6087 31.6135 55.3505 32.2656 54.9734 32.8493C54.8275 33.0966 54.6602 33.331 54.4736 33.549C58.1726 32.4493 62.4714 28.4405 64.631 24.1116C66.8103 18.1131 69.6796 10.1151 69.8096 9.7053C69.9497 9.07542 69.9497 8.55555 68.9298 8.55555ZM6.82558 25.931C4.36031 25.0416 2.11619 23.6299 0.247258 21.7921V29.6403C0.161623 30.2525 0.588516 30.8186 1.20098 30.9042C1.2162 30.9064 1.2316 30.9083 1.24719 30.9099H5.76587C6.96568 30.9099 6.82558 29.6302 6.82558 29.6302V25.931ZM16.9131 12.3046C16.5643 12.9046 16.0461 13.388 15.4234 13.6942C14.7488 14.0166 14.0197 14.2098 13.2739 14.2641C12.4549 14.3661 11.6301 14.4161 10.8046 14.4141H7.92527C7.2356 14.4141 6.80578 13.8541 6.80578 13.0344V6.3362C6.76837 5.78535 7.18462 5.3084 7.73566 5.27117C7.79892 5.26696 7.86237 5.26879 7.92527 5.27649H10.8046C11.7376 5.27649 12.6174 5.30308 13.4439 5.35644C14.1805 5.39183 14.9035 5.56824 15.5734 5.8763C16.1899 6.15081 16.7041 6.61254 17.0431 7.19585C17.4258 7.9783 17.6013 8.84565 17.5529 9.71538C17.5723 10.6167 17.3516 11.5069 16.9131 12.2947V12.3046ZM22.7715 3.95676C22.29 3.17706 21.6619 2.49821 20.922 1.95726C20.1749 1.44639 19.3562 1.04884 18.4927 0.77763C17.5544 0.470665 16.5856 0.266205 15.6035 0.167736C14.4539 0.0556946 13.2994 0.00233459 12.1443 0.00783539H2.14682C1.19035 -0.0825691 0.341696 0.619564 0.251293 1.57603C0.249826 1.59309 0.248358 1.61014 0.247258 1.62738V1.71723V17.9532C1.63337 20.9273 3.93507 23.3797 6.81568 24.9514V21.6922C6.72344 20.6361 7.50479 19.7053 8.56102 19.6131C8.56249 19.6129 8.56377 19.6129 8.56524 19.6127H11.5645C15.6568 19.6127 18.7793 18.7562 20.9321 17.0435C23.0849 15.3304 24.1778 12.7913 24.2112 9.42547C24.2147 8.45543 24.1006 7.4887 23.8712 6.54616C23.6427 5.63058 23.2716 4.757 22.7715 3.95676Z" fill="#333333"/>
<path d="M137.011 16.5828C138.015 18.1989 138.015 20.2453 137.011 21.8614C136.011 23.381 130.562 29.1996 128.763 31.069C127.203 32.6886 125.094 34.3281 123.004 34.3281H79.7252C73.8665 34.3281 73.5166 32.3286 73.5166 27.8699V9.68452C73.5166 5.1158 74.8662 3.78598 78.8753 3.78598H123.104C125.173 3.78598 127.023 4.84588 129.102 6.98528C130.922 8.81479 136.291 15.5031 137.011 16.5828Z" fill="#33CCCC"/>
<path d="M83.3506 10.8136V10.7036C83.3506 10.1139 83.3506 9.54397 82.3511 9.54397H78.7219C77.8722 9.54397 77.832 10.0039 77.832 10.7236V15.5225C79.2636 13.5296 81.1573 11.9137 83.3506 10.8136Z" fill="white"/>
<path d="M107.649 28.1691V27.9091V16.3321C107.649 11.4866 105.51 9.06393 101.231 9.06393C100.04 9.07823 98.8766 9.42444 97.8719 10.0639C96.7647 10.7544 95.7756 11.6185 94.9425 12.6232C94.5655 11.5373 93.8327 10.6109 92.8631 9.99381C91.7604 9.38593 90.512 9.09199 89.2541 9.14406C87.4037 9.15103 85.6075 9.76955 84.1453 10.9035C83.8253 11.2235 77.8169 15.9023 77.8169 20.7811V28.1889C77.8169 28.4189 77.6968 29.3189 78.7067 29.3189H82.4757C83.6454 29.3189 83.5354 28.5489 83.5354 28.2291V16.2321C84.1653 15.3824 85.455 13.353 87.5845 13.353C88.278 13.2897 88.9513 13.6073 89.3439 14.1828C89.7716 15.0362 89.9581 15.9903 89.8838 16.942V26.2896V28.2091C89.8838 28.4391 89.7639 29.3389 90.7737 29.3389H94.5028C95.6725 29.3389 95.5625 28.5691 95.5625 28.2491V27.9892V16.1922C96.2422 15.3424 97.5618 13.3129 99.6114 13.3129C100.312 13.2555 100.992 13.5707 101.401 14.1426C101.835 14.994 102.026 15.949 101.951 16.902V26.2496V28.1691C101.951 28.3991 101.831 29.2987 102.841 29.2987H106.61C107.789 29.2387 107.649 28.4789 107.649 28.1691Z" fill="white"/>
<path d="M119.718 13.0034C117.429 13.0034 115.879 14.5928 115.539 17.2123H123.737C123.527 14.9229 122.288 13.0034 119.718 13.0034ZM128.436 23.4607C127.122 26.995 123.664 29.2663 119.898 29.0692C114.14 29.0692 110.301 25.1503 110.301 19.2718C110.301 13.3932 114.3 9.27431 119.698 9.27431C125.097 9.27431 128.696 13.0133 128.926 19.0418C128.926 19.8116 128.736 20.4914 127.766 20.4914H115.549C115.629 23.7206 117.179 25.4901 119.938 25.4901C121.434 25.5275 122.816 24.6926 123.477 23.3507C123.737 22.973 124.169 22.7513 124.627 22.7608H127.776C128.124 22.7445 128.419 23.0126 128.435 23.3602C128.437 23.4072 128.434 23.4543 128.426 23.5007L128.436 23.4607Z" fill="white"/>
</svg>
