<svg width="137" height="26" viewBox="0 0 137 26" fill="none" xmlns="http://www.w3.org/2000/svg">
<path fillRule="evenodd" clipRule="evenodd" d="M123.308 17.8065H120.278V7.39774H123.308C126 7.19973 128.344 9.21485 128.543 11.8981C128.56 12.1363 128.56 12.3754 128.543 12.6135C128.659 15.3645 126.517 17.6884 123.757 17.8045C123.604 17.811 123.451 17.8103 123.298 17.8026L123.308 17.8065ZM123.308 20.9262C128.543 20.9262 132.174 17.6309 132.174 12.6135C132.174 7.5964 128.535 4.27637 123.308 4.27637H116.721V20.9262H123.308ZM101.352 11.8898H97.6206V7.39774H101.34C102.585 7.26712 103.7 8.16701 103.831 9.40741C103.962 10.6478 103.059 11.7595 101.815 11.8898C101.657 11.9065 101.498 11.9065 101.34 11.8898H101.352ZM109.961 25.0996L103.832 14.5859C106.094 14.0423 107.636 11.9569 107.489 9.64297C107.598 6.78123 105.36 4.37297 102.489 4.26385C102.285 4.25583 102.081 4.26033 101.878 4.27637H94.0618V20.9262H97.6187V15.0076H100.224L105.878 25.0958L109.961 25.0996ZM79.8897 14.981H74.6801L77.2849 7.81591L79.8897 14.981ZM85.9503 20.9224L79.5143 4.27252H75.0575L68.5947 20.9224H72.6516L73.7032 18.1004H80.8669L81.8933 20.9224H85.9503ZM54.8788 21.2221C57.7988 21.2898 60.5057 19.7032 61.8661 17.1271L58.8015 15.655C58.0416 17.1255 56.5286 18.0568 54.8692 18.0757C51.84 17.9262 49.506 15.3575 49.6557 12.3381C49.7955 9.52808 52.0496 7.28092 54.8692 7.14196C56.5254 7.17116 58.0336 8.09962 58.8015 9.56274L61.8661 8.06431C60.5063 5.49013 57.7956 3.9118 54.8788 3.99556C50.1068 3.85339 46.1227 7.59415 45.98 12.3503C45.8377 17.1068 49.5904 21.0777 54.3624 21.2202C54.5343 21.225 54.7066 21.225 54.8788 21.2202V21.2221ZM37.8817 20.9224V17.8026H29.8177L37.7072 7.11147V4.26514H25.1594V7.38651H33.0491L25.1594 18.0452V20.9089L37.8817 20.9224ZM8.38438 21.2221C13.4681 21.2221 15.9235 18.4005 15.9235 14.2573V4.27252H12.2842V14.1581C12.2842 16.3157 10.5294 18.0655 8.36442 18.0655C6.19944 18.0655 4.44468 16.3157 4.44468 14.1581V4.27252H0.837891V14.2881C0.837891 18.3813 3.29135 21.2279 8.37698 21.2279L8.38438 21.2221Z" fill="#233C7E"/>
<path fillRule="evenodd" clipRule="evenodd" d="M136.495 3.95901V3.99913C136.496 5.71129 135.104 7.10028 133.386 7.10156C131.668 7.10252 130.274 5.71546 130.273 4.00298C130.272 2.29082 131.664 0.901833 133.382 0.900549H133.384H136.492L136.495 3.95901Z" fill="#233C7E"/>
</svg>
