<svg width="333" height="258" viewBox="0 0 333 258" fill="none" xmlns="http://www.w3.org/2000/svg">
<g id="No Upcoming Trips">
<g id="Group 3">
<mask id="mask0_28_43571" style="mask-type:luminance" maskUnits="userSpaceOnUse" x="32" y="0" width="277" height="159">
<path id="Clip 2" fill-rule="evenodd" clip-rule="evenodd" d="M100.343 28.5948H64.9487C60.3495 28.5948 56.5878 32.3687 56.5878 36.9826C56.5878 41.5965 60.3495 45.3705 64.9487 45.3705H82.9615H88.2404C92.8396 45.3705 96.6013 49.1457 96.6013 53.7595C96.6013 56.0653 95.6587 58.1668 94.1428 59.6815C92.633 61.2036 90.5375 62.1486 88.2404 62.1486H76.9784H70.7606H40.4234C35.8242 62.1486 32.0625 65.9238 32.0625 70.5365C32.0625 75.1491 35.8242 78.9243 40.4234 78.9243H62.1417C55.5853 94.3833 51.9544 111.393 51.9544 129.256C51.9544 135.737 52.4336 142.106 53.3529 148.33C53.7368 150.931 54.2002 153.509 54.7417 156.059C70.5161 153.639 87.2489 151.691 104.718 150.271L106.032 151.474L107.269 150.07C128.256 148.432 150.284 147.559 173.004 147.559C221.274 147.559 266.444 151.496 305.065 158.341C306.554 151.866 307.558 145.204 308.033 138.394C308.249 135.374 308.355 132.326 308.355 129.256C308.355 58.2169 250.961 0.632812 180.155 0.632812C149.978 0.632812 122.243 11.0941 100.343 28.5948Z" fill="white"/>
</mask>
<g mask="url(#mask0_28_43571)">
<path id="Fill 1" fill-rule="evenodd" clip-rule="evenodd" d="M25.9515 164.455H314.47V-5.47852H25.9515V164.455Z" fill="#EAEBF0"/>
</g>
</g>
<g id="Group 6">
<mask id="mask1_28_43571" style="mask-type:luminance" maskUnits="userSpaceOnUse" x="1" y="61" width="23" height="18">
<path id="Clip 5" fill-rule="evenodd" clip-rule="evenodd" d="M9.96886 61.7578C5.31101 61.7578 1.50037 65.61 1.50037 70.3156C1.50037 75.0212 5.31101 78.8734 9.96886 78.8734H15.0363C19.6953 78.8734 23.506 75.0212 23.506 70.3156C23.506 65.61 19.6953 61.7578 15.0363 61.7578H9.96886Z" fill="white"/>
</mask>
<g mask="url(#mask1_28_43571)">
<path id="Fill 4" fill-rule="evenodd" clip-rule="evenodd" d="M-4.6106 84.9875H29.6204V55.6465H-4.6106V84.9875Z" fill="#EAEBF0"/>
</g>
</g>
<g id="Group 9">
<mask id="mask2_28_43571" style="mask-type:luminance" maskUnits="userSpaceOnUse" x="54" y="147" width="278" height="111">
<path id="Clip 8" fill-rule="evenodd" clip-rule="evenodd" d="M107.085 150.239L105.846 151.634L104.532 150.439C87.0682 151.851 70.3403 153.783 54.5684 156.191C66.8561 213.995 118.325 257.367 179.951 257.367C208.807 257.367 235.433 247.853 256.86 231.805H279.669C284.265 231.805 288.027 228.053 288.027 223.47C288.027 221.181 287.085 219.09 285.57 217.585C284.059 216.073 281.963 215.134 279.669 215.134H269.749C265.151 215.134 261.389 211.383 261.389 206.799C261.389 204.509 262.332 202.42 263.847 200.914C265.358 199.401 267.453 198.464 269.749 198.464H323.141C327.739 198.464 331.499 194.713 331.499 190.127C331.499 187.837 330.557 185.748 329.042 184.243C327.526 182.731 325.44 181.792 323.141 181.792H296.96C300.304 174.363 302.957 166.56 304.833 158.458C266.221 151.657 221.062 147.744 172.802 147.744C150.089 147.744 128.065 148.611 107.085 150.239Z" fill="white"/>
</mask>
<g mask="url(#mask2_28_43571)">
<path id="Fill 7" fill-rule="evenodd" clip-rule="evenodd" d="M48.4574 263.481H337.612V141.633H48.4574V263.481Z" fill="#E8EBF2"/>
</g>
</g>
<g id="Group 12">
<mask id="mask3_28_43571" style="mask-type:luminance" maskUnits="userSpaceOnUse" x="106" y="132" width="202" height="27">
<path id="Clip 11" fill-rule="evenodd" clip-rule="evenodd" d="M282.417 148.933L269.51 137.102L255.698 147.354L249.908 139.377L227.051 147.354L174.398 139.377L143.792 147.827C153.15 147.515 162.659 147.354 172.294 147.354C220.5 147.354 265.611 151.366 304.182 158.341C305.666 151.742 306.67 144.955 307.143 138.014L302.774 132.668L282.417 148.933ZM106.646 149.912C118.706 148.951 131.108 148.249 143.791 147.826L121.181 133.073L106.646 149.912Z" fill="white"/>
</mask>
<g mask="url(#mask3_28_43571)">
<path id="Fill 10" fill-rule="evenodd" clip-rule="evenodd" d="M100.532 164.455H313.253V126.557H100.532V164.455Z" fill="#E0E2EE"/>
</g>
</g>
<g id="Group 15">
<mask id="mask4_28_43571" style="mask-type:luminance" maskUnits="userSpaceOnUse" x="104" y="149" width="3" height="3">
<path id="Clip 14" fill-rule="evenodd" clip-rule="evenodd" d="M104.197 149.953L105.456 151.001L106.642 149.777C105.825 149.831 105.007 149.89 104.197 149.953Z" fill="white"/>
</mask>
<g mask="url(#mask4_28_43571)">
<path id="Fill 13" fill-rule="evenodd" clip-rule="evenodd" d="M98.0856 157.114H112.756V143.666H98.0856V157.114Z" fill="#F1F2F7"/>
</g>
</g>
<g id="Group 18">
<mask id="mask5_28_43571" style="mask-type:luminance" maskUnits="userSpaceOnUse" x="52" y="127" width="53" height="29">
<path id="Clip 17" fill-rule="evenodd" clip-rule="evenodd" d="M52.8428 148.153C53.2266 150.758 53.69 153.34 54.2291 155.894C69.9986 153.47 86.7265 151.52 104.189 150.097L79.8718 127.775L52.8428 148.153Z" fill="white"/>
</mask>
<g mask="url(#mask5_28_43571)">
<path id="Fill 16" fill-rule="evenodd" clip-rule="evenodd" d="M46.7318 162.008H110.304V121.664H46.7318V162.008Z" fill="#E0E2EE"/>
</g>
</g>
<g id="Group 21">
<mask id="mask6_28_43571" style="mask-type:luminance" maskUnits="userSpaceOnUse" x="134" y="195" width="96" height="10">
<path id="Clip 20" fill-rule="evenodd" clip-rule="evenodd" d="M134.411 200.17C134.411 202.531 155.758 204.448 182.091 204.448C208.423 204.448 229.77 202.531 229.77 200.17C229.77 197.808 208.423 195.891 182.091 195.891C155.758 195.891 134.411 197.808 134.411 200.17Z" fill="white"/>
</mask>
<g mask="url(#mask6_28_43571)">
<path id="Fill 19" fill-rule="evenodd" clip-rule="evenodd" d="M128.299 210.562H235.882V189.779H128.299V210.562Z" fill="#D8DBEA"/>
</g>
</g>
<g id="Group 24">
<mask id="mask7_28_43571" style="mask-type:luminance" maskUnits="userSpaceOnUse" x="296" y="214" width="18" height="18">
<path id="Clip 23" fill-rule="evenodd" clip-rule="evenodd" d="M296.136 223.134C296.136 227.841 299.987 231.692 304.693 231.692C309.4 231.692 313.251 227.841 313.251 223.134C313.251 218.428 309.4 214.576 304.693 214.576C299.987 214.576 296.136 218.428 296.136 223.134Z" fill="white"/>
</mask>
<g mask="url(#mask7_28_43571)">
<path id="Fill 22" fill-rule="evenodd" clip-rule="evenodd" d="M290.025 237.806H319.366V208.465H290.025V237.806Z" fill="#E1E3EF"/>
</g>
</g>
<g id="empty 1" clip-path="url(#clip0_28_43571)">
<path id="Vector" d="M237.264 83.918H122.594C121.047 83.9189 119.564 84.5339 118.47 85.6278C117.376 86.7217 116.761 88.2051 116.76 89.7522V194.963C116.761 196.51 117.376 197.994 118.47 199.088C119.564 200.181 121.047 200.796 122.594 200.797H237.264C238.811 200.797 240.295 200.182 241.389 199.088C242.483 197.994 243.098 196.51 243.099 194.963V89.7522C243.098 88.205 242.483 86.7216 241.389 85.6276C240.295 84.5337 238.811 83.9188 237.264 83.918Z" fill="url(#paint0_linear_28_43571)"/>
<path id="Vector_2" d="M229.716 164.235H130.144C126.922 164.235 124.31 161.623 124.31 158.401V65.4416C124.31 62.2197 126.922 59.6074 130.144 59.6074H229.716C232.938 59.6074 235.55 62.2197 235.55 65.4416V158.401C235.55 161.623 232.938 164.235 229.716 164.235Z" fill="#F9F9F9"/>
<path id="Vector_3" d="M126.157 160.248V67.2888C126.157 64.0668 128.769 61.4546 131.991 61.4546H231.563C232.701 61.4546 233.759 61.7853 234.656 62.3486C233.624 60.7039 231.8 59.6074 229.716 59.6074H130.144C126.922 59.6074 124.31 62.2197 124.31 65.4416V158.401C124.31 160.486 125.406 162.31 127.051 163.342C126.488 162.444 126.157 161.386 126.157 160.248V160.248Z" fill="url(#paint1_linear_28_43571)"/>
<path id="Vector_4" d="M217.464 79.248H142.396V83.5261H217.464V79.248ZM217.464 95.5831H142.396V99.8612H217.464V95.5831ZM217.464 111.922H142.396V116.2H217.464V111.922ZM217.464 128.257H142.396V132.536H217.464V128.257Z" fill="url(#paint2_linear_28_43571)"/>
<path id="Vector_5" d="M151.341 114.451L170.205 133.315H151.341V114.451Z" fill="url(#paint3_linear_28_43571)"/>
<path id="Vector_6" d="M243.099 134.871V91.468L235.55 83.918V134.87H243.099V134.871Z" fill="url(#paint4_linear_28_43571)"/>
<path id="Vector_7" d="M251.942 138.794L243.808 196.373C243.401 199.251 240.938 201.391 238.031 201.391H121.828C118.921 201.391 116.457 199.251 116.051 196.373L105.059 118.57C104.563 115.058 107.288 111.92 110.836 111.92H146.722C149.629 111.92 152.092 114.059 152.499 116.937L153.939 127.126C154.346 130.005 156.809 132.144 159.716 132.144H246.166C249.712 132.144 252.438 135.282 251.942 138.794H251.942Z" fill="url(#paint5_linear_28_43571)"/>
<path id="Vector_8" d="M223.123 175.712H136.737C136.263 175.712 135.806 175.539 135.451 175.226C135.096 174.913 134.867 174.481 134.807 174.011L133.726 165.454C133.692 165.18 133.716 164.902 133.798 164.638C133.879 164.375 134.015 164.131 134.198 163.924C134.38 163.718 134.605 163.552 134.856 163.438C135.108 163.325 135.38 163.266 135.656 163.266H224.204C224.48 163.266 224.752 163.325 225.004 163.438C225.255 163.552 225.48 163.718 225.662 163.924C225.845 164.131 225.981 164.375 226.062 164.638C226.143 164.902 226.168 165.18 226.133 165.454L225.053 174.011C224.993 174.481 224.764 174.913 224.409 175.226C224.054 175.539 223.596 175.712 223.123 175.712Z" fill="url(#paint6_linear_28_43571)"/>
</g>
</g>
<defs>
<linearGradient id="paint0_linear_28_43571" x1="179.929" y1="25.4782" x2="63.403" y2="151.436" gradientUnits="userSpaceOnUse">
<stop stop-color="#AA2400" stop-opacity="0.3"/>
<stop offset="1" stop-color="#AA2400" stop-opacity="0.7"/>
</linearGradient>
<linearGradient id="paint1_linear_28_43571" x1="183.351" y1="115.336" x2="109.568" y2="41.5523" gradientUnits="userSpaceOnUse">
<stop stop-color="white"/>
</linearGradient>
<linearGradient id="paint2_linear_28_43571" x1="179.93" y1="52.6043" x2="129.626" y2="123.47" gradientUnits="userSpaceOnUse">
<stop stop-color="#AA2400" stop-opacity="0.3"/>
<stop offset="1" stop-color="#AA2400" stop-opacity="0.7"/>
</linearGradient>
<linearGradient id="paint3_linear_28_43571" x1="163.805" y1="136.342" x2="141.003" y2="113.541" gradientUnits="userSpaceOnUse">
<stop stop-color="#C2CECE" stop-opacity="0"/>
<stop offset="0.179" stop-color="#AFBCBC" stop-opacity="0.179"/>
<stop offset="1" stop-color="#5B6A6A"/>
</linearGradient>
<linearGradient id="paint4_linear_28_43571" x1="239.325" y1="58.4415" x2="224.55" y2="60.6305" gradientUnits="userSpaceOnUse">
<stop stop-color="#AA2400" stop-opacity="0.3"/>
<stop offset="1" stop-color="#AA2400" stop-opacity="0.7"/>
</linearGradient>
<linearGradient id="paint5_linear_28_43571" x1="178.5" y1="111.92" x2="178.5" y2="201.391" gradientUnits="userSpaceOnUse">
<stop stop-color="#E4E6EA"/>
<stop offset="0.927" stop-color="#DADADA"/>
</linearGradient>
<linearGradient id="paint6_linear_28_43571" x1="179.93" y1="157.043" x2="176.638" y2="181.492" gradientUnits="userSpaceOnUse">
<stop stop-color="#AA2400" stop-opacity="0.3"/>
<stop offset="1" stop-color="#AA2400" stop-opacity="0.7"/>
</linearGradient>
<clipPath id="clip0_28_43571">
<rect width="49" height="49" fill="white" transform="matrix(3 0 0 3 105 57)"/>
</clipPath>
</defs>
</svg>
