<svg width="561" height="438" viewBox="0 0 561 438" fill="none" xmlns="http://www.w3.org/2000/svg">
<g id="No Chat History">
<path id="Fill 1" fill-rule="evenodd" clip-rule="evenodd" d="M303.713 0C252.413 0 205.263 17.7825 168.033 47.5341H107.862C100.045 47.5341 93.6489 53.9513 93.6489 61.7944C93.6489 69.6375 100.045 76.0546 107.862 76.0546H138.485H147.459C155.276 76.0546 161.672 82.4718 161.672 90.3149C161.672 94.2317 160.071 97.8063 157.493 100.383C154.925 102.968 151.363 104.575 147.459 104.575H128.314H117.743H66.1694C58.3519 104.575 51.9558 110.992 51.9558 118.835C51.9558 126.678 58.3519 133.096 66.1694 133.096H103.09C91.9452 159.374 85.7717 188.289 85.7717 218.657C85.7717 229.676 86.5867 240.504 88.1502 251.085C88.804 255.506 89.5905 259.888 90.5096 264.223C117.326 260.107 145.772 256.798 175.469 254.384L177.705 256.428L179.809 254.042C215.485 251.256 252.933 249.773 291.556 249.773C373.615 249.773 450.406 256.466 516.063 268.102C518.593 257.093 520.299 245.771 521.104 234.191C521.474 229.058 521.654 223.876 521.654 218.657C521.654 97.8918 424.083 0 303.713 0Z" fill="#F1F2F7"/>
<path id="Fill 3" fill-rule="evenodd" clip-rule="evenodd" d="M23.0117 103.913H14.3979C6.47906 103.913 0 110.46 0 118.461C0 126.463 6.47906 133.009 14.3979 133.009H23.0117C30.9305 133.009 37.4096 126.463 37.4096 118.461C37.4096 110.46 30.9305 103.913 23.0117 103.913Z" fill="#F1F2F7"/>
<g id="Group 7">
<mask id="mask0_28_20557" style="mask-type:luminance" maskUnits="userSpaceOnUse" x="90" y="250" width="471" height="187">
<path id="Clip 6" fill-rule="evenodd" clip-rule="evenodd" d="M561 250.084V436.442H325.609H90.2183V250.084H561Z" fill="white"/>
</mask>
<g mask="url(#mask0_28_20557)">
<path id="Fill 5" fill-rule="evenodd" clip-rule="evenodd" d="M561 322.135C561 329.929 554.606 336.306 546.79 336.306H456.024C452.121 336.306 448.56 337.902 445.993 340.472C443.416 343.032 441.814 346.584 441.814 350.476C441.814 358.27 448.209 364.646 456.024 364.646H472.888C476.79 364.646 480.353 366.243 482.92 368.812C485.497 371.372 487.098 374.924 487.098 378.816C487.098 386.61 480.703 392.987 472.888 392.987H434.113C397.687 420.269 352.424 436.442 303.37 436.442C198.604 436.442 111.107 362.71 90.2183 264.443C117.028 260.353 145.467 257.065 175.157 254.666L177.392 256.697L179.496 254.326C215.162 251.558 252.602 250.084 291.216 250.084C373.255 250.084 450.027 256.735 515.669 268.298C512.477 282.071 507.968 295.334 502.284 307.965H546.79C550.703 307.965 554.246 309.561 556.822 312.131C559.399 314.691 561 318.243 561 322.135Z" fill="#E8EBF2"/>
</g>
</g>
<path id="Fill 8" opacity="0.2" fill-rule="evenodd" clip-rule="evenodd" d="M519.577 233.542C518.773 245.342 517.07 256.881 514.543 268.1C448.973 256.241 372.284 249.422 290.333 249.422C251.761 249.422 214.363 250.932 178.734 253.771L203.443 225.143L241.879 250.225L293.91 235.859L383.419 249.422L422.277 235.859L432.119 249.422L455.6 231.993L477.542 252.105L512.149 224.455L519.577 233.542Z" fill="#AA2400"/>
<path id="Fill 18" fill-rule="evenodd" clip-rule="evenodd" d="M178.735 253.553L176.72 255.631L174.579 253.851C175.957 253.743 177.347 253.644 178.735 253.553Z" fill="#F1F2F7"/>
<path id="Fill 20" fill-rule="evenodd" clip-rule="evenodd" d="M197.444 268.104C197.444 274.703 199.555 280.847 203.182 286.019L199.332 299.817L214.322 296.17C219.958 299.448 226.64 301.356 233.815 301.356C253.902 301.356 270.185 286.468 270.185 268.104C270.185 249.738 253.902 234.85 233.815 234.85C213.727 234.85 197.444 249.738 197.444 268.104Z" fill="url(#paint0_linear_28_20557)"/>
<path id="Fill 22" fill-rule="evenodd" clip-rule="evenodd" d="M243.166 268.101C243.166 270.397 245.026 272.258 247.322 272.258C249.618 272.258 251.48 270.397 251.48 268.101C251.48 265.806 249.618 263.944 247.322 263.944C245.026 263.944 243.166 265.806 243.166 268.101Z" fill="#BEC0D6"/>
<path id="Fill 24" fill-rule="evenodd" clip-rule="evenodd" d="M230.69 268.101C230.69 270.397 232.551 272.258 234.847 272.258C237.142 272.258 239.003 270.397 239.003 268.101C239.003 265.806 237.142 263.944 234.847 263.944C232.551 263.944 230.69 265.806 230.69 268.101Z" fill="#BEC0D6"/>
<path id="Fill 26" fill-rule="evenodd" clip-rule="evenodd" d="M216.145 268.101C216.145 270.397 218.006 272.258 220.302 272.258C222.597 272.258 224.458 270.397 224.458 268.101C224.458 265.806 222.597 263.944 220.302 263.944C218.006 263.944 216.145 265.806 216.145 268.101Z" fill="#BEC0D6"/>
<path id="Fill 28" opacity="0.2" fill-rule="evenodd" clip-rule="evenodd" d="M174.578 254.089C144.892 256.508 116.455 259.822 89.648 263.945C88.7291 259.603 87.9429 255.213 87.2893 250.785L133.239 216.144L174.578 254.089Z" fill="#AA2400"/>
<path id="Fill 30" fill-rule="evenodd" clip-rule="evenodd" d="M382.409 325.257C382.409 329.274 346.12 332.531 301.355 332.531C256.589 332.531 220.301 329.274 220.301 325.257C220.301 321.24 256.589 317.982 301.355 317.982C346.12 317.982 382.409 321.24 382.409 325.257Z" fill="#D8DBEA"/>
<path id="Fill 32" fill-rule="evenodd" clip-rule="evenodd" d="M515.417 392.799C507.416 392.799 500.869 386.253 500.869 378.251C500.869 370.25 507.416 363.703 515.417 363.703C523.419 363.703 529.965 370.25 529.965 378.251C529.965 386.253 523.419 392.799 515.417 392.799Z" fill="#E1E3EF"/>
<g id="No Chat History_2">
<path id="Fill 18_2" fill-rule="evenodd" clip-rule="evenodd" d="M163.345 259.787L161.064 262.139L158.64 260.124C160.201 260.003 161.773 259.89 163.345 259.787Z" fill="#F1F2F7"/>
<path id="Fill 20_2" fill-rule="evenodd" clip-rule="evenodd" d="M184.521 276.252C184.521 283.722 186.91 290.676 191.016 296.53L186.659 312.147L203.624 308.02C210.003 311.73 217.567 313.888 225.687 313.888C248.422 313.888 266.852 297.038 266.852 276.252C266.852 255.465 248.422 238.614 225.687 238.614C202.951 238.614 184.521 255.465 184.521 276.252Z" fill="url(#paint1_linear_28_20557)"/>
<path id="Fill 22_2" fill-rule="evenodd" clip-rule="evenodd" d="M236.27 276.255C236.27 278.853 238.375 280.959 240.974 280.959C243.572 280.959 245.679 278.853 245.679 276.255C245.679 273.657 243.572 271.55 240.974 271.55C238.375 271.55 236.27 273.657 236.27 276.255Z" fill="#BEC0D6"/>
<path id="Fill 24_2" fill-rule="evenodd" clip-rule="evenodd" d="M222.151 276.255C222.151 278.853 224.257 280.959 226.856 280.959C229.453 280.959 231.56 278.853 231.56 276.255C231.56 273.657 229.453 271.55 226.856 271.55C224.257 271.55 222.151 273.657 222.151 276.255Z" fill="#BEC0D6"/>
<path id="Fill 26_2" fill-rule="evenodd" clip-rule="evenodd" d="M205.687 276.255C205.687 278.853 207.793 280.959 210.391 280.959C212.989 280.959 215.096 278.853 215.096 276.255C215.096 273.657 212.989 271.55 210.391 271.55C207.793 271.55 205.687 273.657 205.687 276.255Z" fill="#BEC0D6"/>
<g id="Artwork">
<path id="Rectangle 27 Copy 2" fill-rule="evenodd" clip-rule="evenodd" d="M280.896 171.053L408.493 206.114V328.797L280.896 273.827V171.053Z" fill="url(#paint2_linear_28_20557)"/>
<path id="Rectangle 27 Copy 3" fill-rule="evenodd" clip-rule="evenodd" d="M281.042 171.17L176.827 200.291V329.205L281.042 273.407V171.17Z" fill="url(#paint3_linear_28_20557)"/>
<g id="fly">
<path id="path" d="M348.154 320.008C319.357 311.578 268.783 312.331 249.79 263.066C232.384 217.915 296.595 174.46 314.559 193.485C327.289 206.967 310.972 226.408 288.33 224.224C262.845 221.766 247.781 198.974 252.806 174.46C262.774 125.832 339.411 93.6591 342.641 91.418" stroke="url(#paint4_linear_28_20557)" strokeWidth="3" stroke-dasharray="6 7"/>
<g id="bee">
<ellipse id="Oval" cx="338.959" cy="64.1231" rx="12.4178" ry="16.3429" transform="rotate(-45 338.959 64.1231)" fill="url(#paint5_linear_28_20557)"/>
<ellipse id="Oval Copy" cx="370.562" cy="94.5575" rx="12.4178" ry="16.3429" transform="rotate(135 370.562 94.5575)" fill="url(#paint6_linear_28_20557)"/>
<g id="Rectangle 4">
<path id="Mask" d="M344.569 88.8856C344.569 77.0585 354.19 67.4707 366.018 67.4707C366.018 79.2978 356.396 88.8856 344.569 88.8856Z" fill="#A8B7C5"/>
<mask id="mask1_28_20557" style="mask-type:luminance" maskUnits="userSpaceOnUse" x="344" y="67" width="23" height="22">
<path id="Mask_2" d="M344.569 88.8856C344.569 77.0585 354.19 67.4707 366.018 67.4707C366.018 79.2978 356.396 88.8856 344.569 88.8856Z" fill="white"/>
</mask>
<g mask="url(#mask1_28_20557)">
<rect id="Rectangle 4_2" x="340.815" y="73.4268" width="3.38667" height="24.7962" transform="rotate(-45 340.815 73.4268)" fill="#AA2400"/>
<path id="Rectangle 4 Copy" fill-rule="evenodd" clip-rule="evenodd" d="M347.58 67.7942L349.974 65.3994L367.508 82.9329L365.113 85.3277L347.58 67.7942Z" fill="#AA2400"/>
</g>
</g>
<path id="Path 7 Copy" d="M377.536 62.1036L385.775 60.1429" stroke="#AA2400" strokeWidth="0.9"/>
<path id="Path 7" d="M374.147 58.7245L377.317 50.5693" stroke="#AA2400" strokeWidth="0.9"/>
<ellipse id="Oval 4" cx="369.4" cy="65.217" rx="9.03113" ry="9.01678" fill="#AA2400"/>
</g>
</g>
<path id="Rectangle 27" fill-rule="evenodd" clip-rule="evenodd" d="M176.822 200.525L304.419 241.016V383.997L176.822 329.028V200.525Z" fill="#D7DFE9"/>
<path id="Rectangle 27 Copy" fill-rule="evenodd" clip-rule="evenodd" d="M409.13 205.954L302.609 241.015V383.996L409.13 329.027V205.954Z" fill="#C2CDD6"/>
<path id="Path 17 Copy" fill-rule="evenodd" clip-rule="evenodd" d="M408.821 205.872L449.999 260.981L340.718 304.047L302.976 240.747L408.821 205.872Z" fill="#D4DCE6"/>
<path id="Path 17" fill-rule="evenodd" clip-rule="evenodd" d="M176.667 200.229L141 255.87L266.708 304.048L303.435 240.671L176.667 200.229Z" fill="#C2CDD6"/>
</g>
</g>
</g>
<defs>
<linearGradient id="paint0_linear_28_20557" x1="233.815" y1="201.597" x2="167.575" y2="274.046" gradientUnits="userSpaceOnUse">
<stop stop-color="white"/>
<stop offset="1" stop-color="white"/>
</linearGradient>
<linearGradient id="paint1_linear_28_20557" x1="225.687" y1="200.977" x2="150.714" y2="282.979" gradientUnits="userSpaceOnUse">
<stop stop-color="#7E5FA6"/>
<stop offset="1" stop-color="#7E5FA6"/>
</linearGradient>
<linearGradient id="paint2_linear_28_20557" x1="344.695" y1="92.1808" x2="190.434" y2="216.961" gradientUnits="userSpaceOnUse">
<stop stop-color="#AA2400" stop-opacity="0.3"/>
<stop offset="1" stop-color="#AA2400" stop-opacity="0.7"/>
</linearGradient>
<linearGradient id="paint3_linear_28_20557" x1="228.935" y1="92.1525" x2="374.195" y2="187.944" gradientUnits="userSpaceOnUse">
<stop stop-color="#AA2400" stop-opacity="0.3"/>
<stop offset="1" stop-color="#AA2400" stop-opacity="0.7"/>
</linearGradient>
<linearGradient id="paint4_linear_28_20557" x1="269.793" y1="64.1492" x2="179.719" y2="107.805" gradientUnits="userSpaceOnUse">
<stop stop-color="#AA2400"/>
<stop offset="1" stop-color="#AA2400"/>
</linearGradient>
<linearGradient id="paint5_linear_28_20557" x1="992.041" y1="126.998" x2="960.55" y2="150.925" gradientUnits="userSpaceOnUse">
<stop stop-color="#AA2400" stop-opacity="0.3"/>
<stop offset="1" stop-color="#AA2400" stop-opacity="0.7"/>
</linearGradient>
<linearGradient id="paint6_linear_28_20557" x1="1086.85" y1="218.301" x2="1055.36" y2="242.228" gradientUnits="userSpaceOnUse">
<stop stop-color="#AA2400" stop-opacity="0.3"/>
<stop offset="1" stop-color="#AA2400" stop-opacity="0.7"/>
</linearGradient>
</defs>
</svg>
