<svg width="561" height="438" viewBox="0 0 561 438" fill="none" xmlns="http://www.w3.org/2000/svg">
<g id="No Chat History">
<path id="Fill 1" fillRule="evenodd" clipRule="evenodd" d="M303.712 0C252.413 0 205.262 17.7825 168.032 47.5341H107.862C100.044 47.5341 93.6482 53.9513 93.6482 61.7944C93.6482 69.6375 100.044 76.0546 107.862 76.0546H138.484H147.458C155.275 76.0546 161.671 82.4718 161.671 90.3149C161.671 94.2317 160.07 97.8063 157.493 100.383C154.925 102.968 151.362 104.575 147.458 104.575H128.313H117.742H66.1686C58.3512 104.575 51.9551 110.992 51.9551 118.835C51.9551 126.678 58.3512 133.096 66.1686 133.096H103.09C91.9444 159.374 85.771 188.289 85.771 218.657C85.771 229.676 86.5859 240.504 88.1494 251.085C88.8032 255.506 89.5897 259.888 90.5089 264.223C117.325 260.107 145.771 256.798 175.468 254.384L177.704 256.428L179.808 254.042C215.484 251.256 252.932 249.773 291.555 249.773C373.614 249.773 450.406 256.466 516.063 268.102C518.593 257.093 520.298 245.771 521.104 234.191C521.473 229.058 521.653 223.876 521.653 218.657C521.653 97.8918 424.082 0 303.712 0Z" fill="#F1F2F7"/>
<path id="Fill 3" fillRule="evenodd" clipRule="evenodd" d="M23.0117 103.915H14.3979C6.47906 103.915 0 110.461 0 118.463C0 126.464 6.47906 133.011 14.3979 133.011H23.0117C30.9305 133.011 37.4096 126.464 37.4096 118.463C37.4096 110.461 30.9305 103.915 23.0117 103.915Z" fill="#F1F2F7"/>
<g id="Group 7">
<mask id="mask0_5053_124797" style="mask-type:luminance" maskUnits="userSpaceOnUse" x="90" y="250" width="471" height="187">
<path id="Clip 6" fillRule="evenodd" clipRule="evenodd" d="M560.999 250.084V436.442H325.608H90.2168V250.084H560.999Z" fill="white"/>
</mask>
<g mask="url(#mask0_5053_124797)">
<path id="Fill 5" fillRule="evenodd" clipRule="evenodd" d="M560.999 322.135C560.999 329.929 554.604 336.306 546.789 336.306H456.023C452.12 336.306 448.559 337.902 445.991 340.472C443.414 343.032 441.813 346.584 441.813 350.476C441.813 358.27 448.207 364.646 456.023 364.646H472.886C476.788 364.646 480.351 366.243 482.919 368.812C485.495 371.372 487.096 374.924 487.096 378.816C487.096 386.61 480.702 392.987 472.886 392.987H434.112C397.685 420.269 352.422 436.442 303.369 436.442C198.602 436.442 111.106 362.71 90.2168 264.443C117.027 260.353 145.466 257.065 175.156 254.666L177.39 256.697L179.494 254.326C215.161 251.558 252.601 250.084 291.214 250.084C373.253 250.084 450.026 256.735 515.667 268.298C512.476 282.071 507.966 295.334 502.282 307.965H546.789C550.701 307.965 554.244 309.561 556.821 312.131C559.398 314.691 560.999 318.243 560.999 322.135Z" fill="#E8EBF2"/>
</g>
</g>
<path id="Fill 8" opacity="0.2" fillRule="evenodd" clipRule="evenodd" d="M519.577 233.544C518.773 245.344 517.07 256.882 514.543 268.101C448.973 256.243 372.284 249.424 290.333 249.424C251.761 249.424 214.363 250.934 178.734 253.772L203.443 225.144L241.879 250.227L293.91 235.86L383.419 249.424L422.277 235.86L432.119 249.424L455.6 231.995L477.542 252.106L512.149 224.457L519.577 233.544Z" fill="#7E5FA6"/>
<path id="Fill 18" fillRule="evenodd" clipRule="evenodd" d="M178.737 253.554L176.721 255.633L174.58 253.852C175.959 253.745 177.348 253.645 178.737 253.554Z" fill="#F1F2F7"/>
<path id="Fill 20" fillRule="evenodd" clipRule="evenodd" d="M197.443 268.102C197.443 274.701 199.554 280.846 203.182 286.018L199.332 299.816L214.321 296.169C219.957 299.447 226.64 301.354 233.814 301.354C253.901 301.354 270.184 286.466 270.184 268.102C270.184 249.736 253.901 234.848 233.814 234.848C213.726 234.848 197.443 249.736 197.443 268.102Z" fill="url(#paint0_linear_5053_124797)"/>
<path id="Fill 22" fillRule="evenodd" clipRule="evenodd" d="M243.164 268.103C243.164 270.398 245.024 272.259 247.32 272.259C249.615 272.259 251.477 270.398 251.477 268.103C251.477 265.808 249.615 263.946 247.32 263.946C245.024 263.946 243.164 265.808 243.164 268.103Z" fill="#BEC0D6"/>
<path id="Fill 24" fillRule="evenodd" clipRule="evenodd" d="M230.689 268.103C230.689 270.398 232.55 272.259 234.846 272.259C237.141 272.259 239.003 270.398 239.003 268.103C239.003 265.808 237.141 263.946 234.846 263.946C232.55 263.946 230.689 265.808 230.689 268.103Z" fill="#BEC0D6"/>
<path id="Fill 26" fillRule="evenodd" clipRule="evenodd" d="M216.146 268.103C216.146 270.398 218.007 272.259 220.303 272.259C222.598 272.259 224.46 270.398 224.46 268.103C224.46 265.808 222.598 263.946 220.303 263.946C218.007 263.946 216.146 265.808 216.146 268.103Z" fill="#BEC0D6"/>
<path id="Fill 28" opacity="0.2" fillRule="evenodd" clipRule="evenodd" d="M174.576 254.091C144.889 256.509 116.453 259.823 89.6458 263.946C88.7269 259.604 87.9407 255.214 87.2871 250.787L133.237 216.145L174.576 254.091Z" fill="#7E5FA6"/>
<path id="Fill 30" fillRule="evenodd" clipRule="evenodd" d="M382.409 325.255C382.409 329.272 346.12 332.529 301.355 332.529C256.589 332.529 220.301 329.272 220.301 325.255C220.301 321.239 256.589 317.981 301.355 317.981C346.12 317.981 382.409 321.239 382.409 325.255Z" fill="#D8DBEA"/>
<path id="Fill 32" fillRule="evenodd" clipRule="evenodd" d="M515.419 392.801C507.418 392.801 500.871 386.254 500.871 378.253C500.871 370.251 507.418 363.705 515.419 363.705C523.421 363.705 529.967 370.251 529.967 378.253C529.967 386.254 523.421 392.801 515.419 392.801Z" fill="#E1E3EF"/>
<g id="Artwork">
<g id="bag">
<g id="Group 7_2">
<g id="Rectangle 19 Copy 2" filter="url(#filter0_f_5053_124797)">
<rect x="206.156" y="323.052" width="178.53" height="17.2771" fill="#1B3554"/>
</g>
<rect id="Rectangle 19 Copy" x="207.598" y="86.9341" width="178.53" height="113.741" fill="#E0E5EC"/>
<path id="Rectangle 3" fillRule="evenodd" clipRule="evenodd" d="M207.6 86.9341V259.705H178.805V155.231L193.205 133.131L207.6 86.9341Z" fill="#CFD4DC"/>
<path id="Rectangle 3 Copy 3" fillRule="evenodd" clipRule="evenodd" d="M384.689 86.9341V259.705H413.484V155.231L399.085 133.131L384.689 86.9341Z" fill="#CFD4DC"/>
<path id="Rectangle 19" d="M178.805 154.603H413.485V342.608C413.485 350.892 406.769 357.608 398.485 357.608H193.805C185.52 357.608 178.805 350.892 178.805 342.608V154.603Z" fill="white"/>
</g>
<g id="Group 2">
<path id="Rectangle 3 Copy" fillRule="evenodd" clipRule="evenodd" d="M249.34 234.576C249.34 233.568 249.857 232.631 250.752 232.169C252.745 231.14 256.551 229.468 260.25 229.468C263.948 229.468 267.645 231.139 269.572 232.168C270.44 232.631 270.936 233.55 270.936 234.534C270.936 236.852 268.266 238.372 266.085 237.587C264.333 236.956 262.273 236.445 260.196 236.445C258.077 236.445 255.959 236.976 254.163 237.624C251.986 238.41 249.34 236.89 249.34 234.576Z" fill="#7E5FA6"/>
<path id="Rectangle 3 Copy 2" fillRule="evenodd" clipRule="evenodd" d="M322.775 234.576C322.775 233.568 323.293 232.631 324.188 232.169C326.18 231.14 329.987 229.468 333.686 229.468C337.383 229.468 341.081 231.139 343.008 232.168C343.876 232.631 344.372 233.55 344.372 234.534C344.372 236.852 341.702 238.372 339.521 237.587C337.769 236.956 335.708 236.445 333.631 236.445C331.513 236.445 329.395 236.976 327.599 237.624C325.422 238.41 322.775 236.89 322.775 234.576Z" fill="#7E5FA6"/>
<ellipse id="Oval 10" cx="296.851" cy="264.026" rx="23.0361" ry="10.0827" fill="#7E5FA6"/>
</g>
<circle id="Oval" opacity="0.149343" cx="243.599" cy="176.196" r="8.63853" fill="#1B3554"/>
<circle id="Oval Copy" opacity="0.149343" cx="348.687" cy="176.196" r="8.63853" fill="#1B3554"/>
<path id="Oval 15" d="M243.586 175.754V122.206C243.586 93.1827 267.114 69.6548 296.137 69.6548C325.16 69.6548 348.688 93.1827 348.688 122.206V175.754" stroke="#7E5FA6" strokeWidth="5" strokeLinecap="round" strokeLinejoin="round"/>
</g>
</g>
</g>
<defs>
<filter id="filter0_f_5053_124797" x="133.595" y="250.491" width="323.651" height="162.398" filterUnits="userSpaceOnUse" color-interpolation-filters="sRGB">
<feFlood flood-opacity="0" result="BackgroundImageFix"/>
<feBlend mode="normal" in="SourceGraphic" in2="BackgroundImageFix" result="shape"/>
<feGaussianBlur stdDeviation="12.0935" result="effect1_foregroundBlur_5053_124797"/>
</filter>
<linearGradient id="paint0_linear_5053_124797" x1="233.814" y1="201.595" x2="167.574" y2="274.045" gradientUnits="userSpaceOnUse">
<stop stop-color="white"/>
<stop offset="1" stop-color="white"/>
</linearGradient>
</defs>
</svg>
