<svg width="185" height="167" viewBox="0 0 185 167" fill="none" xmlns="http://www.w3.org/2000/svg">
<rect width="185" height="167" fill="#F7F7F7"/>
<rect width="106.978" height="33.9106" rx="5.63178" transform="matrix(0.999304 -0.0373139 0.050434 0.998727 39 103.113)" fill="#F87A1D"/>
<path d="M66.2314 125.065L64.7475 125.121L64.4741 119.708L57.9449 119.951L58.2183 125.365L56.7344 125.42L56.134 113.531L57.6179 113.475L57.8775 118.617L64.4067 118.373L64.1471 113.232L65.631 113.176L66.2314 125.065ZM72.5692 117.028C71.8602 117.054 71.2897 117.315 70.8577 117.81C70.4257 118.305 70.202 118.946 70.1867 119.734L75.0836 119.551C75.0275 118.766 74.7702 118.143 74.3119 117.681C73.8536 117.219 73.2727 117.002 72.5692 117.028ZM75.1876 122.428L76.6055 122.375C76.43 123.152 76.0235 123.77 75.3859 124.228C74.7538 124.687 73.9541 124.934 72.9868 124.97C71.7557 125.016 70.7594 124.64 69.9978 123.843C69.2359 123.041 68.8195 121.936 68.7485 120.53C68.6778 119.13 68.9841 117.998 69.6674 117.136C70.3507 116.274 71.3024 115.821 72.5225 115.775C73.7206 115.73 74.6832 116.093 75.4105 116.864C76.1377 117.635 76.5362 118.712 76.6061 120.097L76.6336 120.64L70.2445 120.879L70.2479 120.945C70.3307 121.822 70.6133 122.511 71.0955 123.01C71.5832 123.509 72.2036 123.744 72.9565 123.716C74.1052 123.673 74.8489 123.244 75.1876 122.428ZM84.7189 115.476L84.7788 116.663L81.8934 116.771L82.282 124.466L80.864 124.519L80.4754 116.824L77.5901 116.931L77.5301 115.745L84.7189 115.476ZM96.4294 122.815L96.094 116.174C95.1278 116.232 94.3767 116.569 93.8406 117.183C93.3097 117.792 93.0697 118.601 93.1208 119.612C93.1715 120.617 93.4922 121.406 94.0827 121.978C94.6785 122.545 95.4607 122.824 96.4294 122.815ZM100.779 119.326C100.729 118.321 100.405 117.535 99.8096 116.968C99.219 116.396 98.4422 116.114 97.479 116.123L97.8143 122.763C98.775 122.705 99.5208 122.372 100.052 121.764C100.588 121.149 100.83 120.337 100.779 119.326ZM96.4914 124.043C95.105 124.067 93.9735 123.685 93.0967 122.898C92.2198 122.106 91.7469 121.028 91.6781 119.666C91.609 118.298 91.9715 117.189 92.7656 116.34C93.5593 115.485 94.6482 115.02 96.032 114.947L95.8856 112.046L97.2706 111.995L97.417 114.895C98.7979 114.871 99.9268 115.255 100.804 116.048C101.681 116.835 102.153 117.91 102.222 119.272C102.291 120.64 101.929 121.751 101.135 122.606C100.341 123.456 99.2547 123.918 97.8763 123.991L98.0207 126.85L96.6357 126.902L96.4914 124.043ZM111.605 122.298C110.915 123.144 109.938 123.59 108.674 123.637C107.41 123.685 106.389 123.313 105.611 122.522C104.839 121.725 104.417 120.615 104.345 119.193C104.273 117.765 104.581 116.628 105.271 115.782C105.961 114.936 106.94 114.49 108.21 114.442C109.479 114.395 110.5 114.767 111.273 115.558C112.045 116.349 112.467 117.459 112.539 118.887C112.611 120.31 112.3 121.447 111.605 122.298ZM106.62 121.568C107.106 122.128 107.769 122.392 108.61 122.36C109.45 122.329 110.084 122.016 110.511 121.423C110.938 120.823 111.125 119.996 111.072 118.942C111.018 117.887 110.749 117.08 110.264 116.52C109.778 115.955 109.115 115.688 108.274 115.719C107.433 115.751 106.8 116.066 106.373 116.665C105.946 117.259 105.759 118.083 105.812 119.138C105.865 120.193 106.135 121.003 106.62 121.568ZM120.728 114.132L120.788 115.318L117.902 115.426L118.291 123.121L116.873 123.174L116.484 115.479L113.599 115.587L113.539 114.4L120.728 114.132ZM129.683 121.623C128.994 122.469 128.017 122.915 126.753 122.962C125.489 123.009 124.468 122.638 123.69 121.847C122.917 121.05 122.495 119.94 122.423 118.518C122.351 117.09 122.66 115.953 123.35 115.107C124.039 114.261 125.019 113.815 126.288 113.767C127.558 113.72 128.579 114.092 129.351 114.883C130.123 115.674 130.546 116.784 130.618 118.212C130.69 119.634 130.378 120.771 129.683 121.623ZM124.699 120.893C125.184 121.452 125.847 121.717 126.688 121.685C127.529 121.654 128.163 121.341 128.59 120.747C129.017 120.148 129.204 119.321 129.15 118.267C129.097 117.212 128.828 116.405 128.343 115.845C127.857 115.28 127.194 115.013 126.353 115.044C125.512 115.076 124.878 115.391 124.451 115.99C124.024 116.584 123.837 117.408 123.891 118.463C123.944 119.518 124.213 120.328 124.699 120.893Z" fill="#F7F7F7"/>
<ellipse cx="87.2048" cy="22.406" rx="1.40794" ry="1.21069" fill="#A5A5A5"/>
<path d="M41.6836 105.7L82.9833 23.776C85.7992 19.5807 87.6764 17.9668 91.9003 23.776C94.545 27.4134 128.038 80.1163 141.648 100.698" stroke="#7B7A7A" stroke-width="0.93863"/>
</svg>
