<svg width="753" height="591" viewBox="0 0 753 591" fill="none" xmlns="http://www.w3.org/2000/svg">
<g id="No Chat History">
<path id="Fill 1" fill-rule="evenodd" clip-rule="evenodd" d="M407.661 2.59131C338.804 2.59131 275.517 26.4599 225.545 66.3941H144.781C134.288 66.3941 125.702 75.0075 125.702 85.535C125.702 96.0625 134.288 104.676 144.781 104.676H185.884H197.929C208.422 104.676 217.007 113.289 217.007 123.817C217.007 129.074 214.857 133.872 211.398 137.33C207.951 140.801 203.169 142.958 197.929 142.958H172.232H158.042H88.8179C78.3249 142.958 69.7397 151.571 69.7397 162.098C69.7397 172.626 78.3249 181.239 88.8179 181.239H138.375C123.416 216.512 115.129 255.323 115.129 296.084C115.129 310.874 116.223 325.408 118.322 339.611C119.199 345.544 120.255 351.427 121.489 357.246C157.483 351.72 195.665 347.28 235.525 344.039L238.527 346.782L241.35 343.579C289.237 339.84 339.501 337.85 391.343 337.85C501.488 337.85 604.561 346.833 692.689 362.452C696.085 347.675 698.375 332.477 699.456 316.935C699.952 310.044 700.193 303.09 700.193 296.084C700.193 133.987 569.228 2.59131 407.661 2.59131Z" fill="#AA2400" fill-opacity="0.16"/>
<path id="Fill 3" fill-rule="evenodd" clip-rule="evenodd" d="M30.8868 142.072H19.3249C8.6958 142.072 -0.000732422 150.86 -0.000732422 161.6C-0.000732422 172.34 8.6958 181.127 19.3249 181.127H30.8868C41.5159 181.127 50.2124 172.34 50.2124 161.6C50.2124 150.86 41.5159 142.072 30.8868 142.072Z" fill="#AA2400" fill-opacity="0.16"/>
<g id="Group 7">
<mask id="mask0_15_8918" style="mask-type:luminance" maskUnits="userSpaceOnUse" x="121" y="338" width="633" height="251">
<path id="Clip 6" fill-rule="evenodd" clip-rule="evenodd" d="M753.001 338.269V588.409H437.047H121.093V338.269H753.001Z" fill="white"/>
</mask>
<g mask="url(#mask0_15_8918)">
<path id="Fill 5" fill-rule="evenodd" clip-rule="evenodd" d="M753.001 434.98C753.001 445.441 744.418 454 733.927 454H612.097C606.858 454 602.078 456.143 598.632 459.592C595.173 463.028 593.023 467.796 593.023 473.02C593.023 483.481 601.606 492.04 612.097 492.04H634.732C639.969 492.04 644.752 494.183 648.198 497.632C651.657 501.069 653.805 505.836 653.805 511.061C653.805 521.522 645.222 530.081 634.732 530.081H582.686C533.793 566.701 473.039 588.409 407.197 588.409C266.573 588.409 149.131 489.441 121.093 357.543C157.078 352.052 195.251 347.64 235.102 344.419L238.102 347.145L240.926 343.962C288.799 340.247 339.053 338.269 390.882 338.269C500.999 338.269 604.048 347.196 692.155 362.716C687.871 381.204 681.818 399.007 674.189 415.96H733.927C739.179 415.96 743.935 418.103 747.393 421.552C750.852 424.988 753.001 429.756 753.001 434.98Z" fill="#E8EBF2"/>
</g>
</g>
<path id="Fill 8" fill-rule="evenodd" clip-rule="evenodd" d="M697.404 316.068C696.324 331.906 694.038 347.394 690.646 362.452C602.635 346.535 499.698 337.382 389.7 337.382C337.927 337.382 287.729 339.409 239.906 343.22L273.071 304.793L324.662 338.46L394.501 319.177L514.645 337.382L566.803 319.177L580.013 337.382L611.53 313.988L640.982 340.983L687.433 303.87L697.404 316.068Z" fill="#E0E2EE"/>
<path id="Fill 10" fill-rule="evenodd" clip-rule="evenodd" d="M526.178 332.881C539.389 313.678 546.957 290.905 546.761 266.533C546.221 198.747 485.833 144.276 411.882 144.866C337.932 145.457 278.423 200.89 278.965 268.676C279.506 336.461 339.894 390.933 413.843 390.343C440.265 390.132 464.841 382.916 485.495 370.64L540.745 383.649L526.178 332.881Z" fill="url(#paint0_linear_15_8918)"/>
<path id="Vector" d="M354.583 243.975L361.101 257.184L375.68 259.307C376.175 259.378 376.64 259.586 377.023 259.907C377.406 260.229 377.692 260.651 377.847 261.126C378.003 261.602 378.022 262.111 377.903 262.597C377.784 263.082 377.531 263.525 377.174 263.875L366.606 274.17L369.075 288.7C369.159 289.193 369.103 289.699 368.915 290.162C368.726 290.625 368.413 291.027 368.009 291.322C367.605 291.616 367.127 291.793 366.629 291.831C366.13 291.87 365.631 291.769 365.187 291.539L352.225 284.676L339.164 291.539C338.721 291.77 338.221 291.873 337.723 291.835C337.224 291.797 336.746 291.62 336.343 291.325C335.94 291.029 335.627 290.627 335.441 290.163C335.254 289.699 335.201 289.192 335.288 288.7L337.757 274.17L327.177 263.875C326.824 263.523 326.576 263.08 326.459 262.596C326.343 262.112 326.363 261.605 326.518 261.131C326.673 260.658 326.956 260.236 327.336 259.914C327.716 259.592 328.178 259.382 328.671 259.307L343.262 257.184L349.78 243.975C350.005 243.531 350.348 243.158 350.772 242.897C351.196 242.637 351.684 242.499 352.182 242.499C352.679 242.499 353.167 242.637 353.591 242.897C354.015 243.158 354.358 243.531 354.583 243.975Z" fill="#AA2400"/>
<path id="Vector_2" d="M417.338 243.975L423.856 257.184L438.435 259.307C438.93 259.378 439.396 259.586 439.779 259.907C440.162 260.229 440.447 260.651 440.603 261.126C440.758 261.602 440.777 262.111 440.658 262.597C440.539 263.082 440.287 263.525 439.929 263.875L429.362 274.17L431.831 288.7C431.914 289.193 431.858 289.699 431.67 290.162C431.482 290.625 431.168 291.027 430.764 291.322C430.36 291.616 429.882 291.793 429.384 291.831C428.886 291.87 428.386 291.769 427.942 291.539L414.98 284.676L401.919 291.539C401.476 291.77 400.977 291.873 400.478 291.835C399.98 291.797 399.502 291.62 399.098 291.325C398.695 291.029 398.383 290.627 398.196 290.163C398.01 289.699 397.956 289.192 398.043 288.7L400.512 274.17L389.933 263.875C389.579 263.523 389.331 263.08 389.215 262.596C389.098 262.112 389.119 261.605 389.273 261.131C389.428 260.658 389.712 260.236 390.092 259.914C390.472 259.592 390.934 259.382 391.426 259.307L406.018 257.184L412.536 243.975C412.761 243.531 413.104 243.158 413.528 242.897C413.952 242.637 414.439 242.499 414.937 242.499C415.434 242.499 415.922 242.637 416.346 242.897C416.77 243.158 417.113 243.531 417.338 243.975Z" fill="#AA2400"/>
<path id="Vector_3" d="M480.093 243.975L486.611 257.184L501.191 259.307C501.686 259.378 502.151 259.586 502.534 259.907C502.917 260.229 503.202 260.651 503.358 261.126C503.513 261.602 503.533 262.111 503.414 262.597C503.295 263.082 503.042 263.525 502.684 263.875L492.117 274.17L494.586 288.7C494.669 289.193 494.614 289.699 494.425 290.162C494.237 290.625 493.923 291.027 493.519 291.322C493.116 291.616 492.638 291.793 492.139 291.831C491.641 291.87 491.142 291.769 490.698 291.539L477.735 284.676L464.675 291.539C464.231 291.77 463.732 291.873 463.234 291.835C462.735 291.797 462.257 291.62 461.854 291.325C461.451 291.029 461.138 290.627 460.951 290.163C460.765 289.699 460.712 289.192 460.798 288.7L463.267 274.17L452.688 263.875C452.335 263.523 452.086 263.08 451.97 262.596C451.854 262.112 451.874 261.605 452.029 261.131C452.184 260.658 452.467 260.236 452.847 259.914C453.227 259.592 453.689 259.382 454.182 259.307L468.773 257.184L475.291 243.975C475.516 243.531 475.859 243.158 476.283 242.897C476.707 242.637 477.195 242.499 477.692 242.499C478.19 242.499 478.678 242.637 479.101 242.897C479.525 243.158 479.869 243.531 480.093 243.975Z" fill="#AA2400"/>
<path id="Fill 18" fill-rule="evenodd" clip-rule="evenodd" d="M239.907 342.924L237.201 345.714L234.327 343.324C236.178 343.18 238.043 343.047 239.907 342.924Z" fill="#AA2400" fill-opacity="0.16"/>
<path id="Fill 20" fill-rule="evenodd" clip-rule="evenodd" d="M265.013 362.454C265.013 371.312 267.846 379.559 272.715 386.501L267.548 405.021L287.668 400.126C295.232 404.526 304.202 407.086 313.831 407.086C340.794 407.086 362.65 387.103 362.65 362.454C362.65 337.802 340.794 317.818 313.831 317.818C286.869 317.818 265.013 337.802 265.013 362.454Z" fill="url(#paint1_linear_15_8918)"/>
<path id="Fill 22" fill-rule="evenodd" clip-rule="evenodd" d="M326.385 362.452C326.385 365.533 328.881 368.031 331.963 368.031C335.044 368.031 337.543 365.533 337.543 362.452C337.543 359.372 335.044 356.873 331.963 356.873C328.881 356.873 326.385 359.372 326.385 362.452Z" fill="#AA2400"/>
<path id="Fill 24" fill-rule="evenodd" clip-rule="evenodd" d="M309.647 362.452C309.647 365.533 312.144 368.031 315.226 368.031C318.306 368.031 320.805 365.533 320.805 362.452C320.805 359.372 318.306 356.873 315.226 356.873C312.144 356.873 309.647 359.372 309.647 362.452Z" fill="#AA2400"/>
<path id="Fill 26" fill-rule="evenodd" clip-rule="evenodd" d="M290.12 362.452C290.12 365.533 292.617 368.031 295.699 368.031C298.779 368.031 301.278 365.533 301.278 362.452C301.278 359.372 298.779 356.873 295.699 356.873C292.617 356.873 290.12 359.372 290.12 362.452Z" fill="#AA2400"/>
<path id="Fill 28" fill-rule="evenodd" clip-rule="evenodd" d="M234.327 343.644C194.48 346.89 156.311 351.338 120.329 356.872C119.096 351.044 118.041 345.152 117.163 339.209L178.84 292.711L234.327 343.644Z" fill="#E0E2EE"/>
<path id="Fill 30" fill-rule="evenodd" clip-rule="evenodd" d="M513.289 439.166C513.289 444.559 464.579 448.93 404.494 448.93C344.407 448.93 295.698 444.559 295.698 439.166C295.698 433.776 344.407 429.403 404.494 429.403C464.579 429.403 513.289 433.776 513.289 439.166Z" fill="#D8DBEA"/>
<path id="Fill 32" fill-rule="evenodd" clip-rule="evenodd" d="M691.825 529.829C681.085 529.829 672.297 521.041 672.297 510.301C672.297 499.561 681.085 490.774 691.825 490.774C702.565 490.774 711.352 499.561 711.352 510.301C711.352 521.041 702.565 529.829 691.825 529.829Z" fill="#E1E3EF"/>
</g>
<defs>
<linearGradient id="paint0_linear_15_8918" x1="412.863" y1="22.1181" x2="168.303" y2="288.911" gradientUnits="userSpaceOnUse">
<stop stop-color="#AA2400" stop-opacity="0.3"/>
<stop offset="1" stop-color="#AA2400" stop-opacity="0.7"/>
</linearGradient>
<linearGradient id="paint1_linear_15_8918" x1="313.831" y1="273.184" x2="224.921" y2="370.43" gradientUnits="userSpaceOnUse">
<stop stop-color="#AA2400" stop-opacity="0.3"/>
<stop offset="1" stop-color="#AA2400" stop-opacity="0.7"/>
</linearGradient>
</defs>
</svg>
