<svg width="191" height="192" viewBox="0 0 191 192" fill="none" xmlns="http://www.w3.org/2000/svg">
<path d="M190.205 163.431C194.812 154.315 181.646 108.732 90.3574 108.732C24.4654 108.732 -5.7772 146.043 0.908847 164.951" fill="url(#paint0_radial_1814_54560)"/>
<mask id="mask0_1814_54560" style="mask-type:luminance" maskUnits="userSpaceOnUse" x="0" y="108" width="191" height="57">
<path d="M190.205 163.431C194.812 154.315 181.646 108.732 90.3574 108.732C24.4654 108.732 -5.7772 146.043 0.908847 164.951" fill="white"/>
</mask>
<g mask="url(#mask0_1814_54560)">
<ellipse opacity="0.671968" cx="76.2773" cy="148.986" rx="5.02044" ry="2.78861" fill="url(#paint1_linear_1814_54560)"/>
<ellipse opacity="0.256348" cx="127.52" cy="130.038" rx="7.92114" ry="4.35023" fill="url(#paint2_linear_1814_54560)"/>
<ellipse opacity="0.729957" cx="37.3743" cy="118.436" rx="7.92114" ry="4.35023" fill="url(#paint3_linear_1814_54560)"/>
</g>
<path opacity="0.5" d="M53.5156 126.356C53.5156 126.356 77.72 137.738 87.3222 142.106C94.928 145.565 134.092 156.633 138.757 153.487C143.423 150.341 153.724 141.707 150.324 135.791C146.923 129.875 129.037 119.254 120.484 117.702C111.93 116.15 87.4716 123.205 87.4716 123.205L66.6093 126.787L53.5156 126.356Z" fill="url(#paint4_linear_1814_54560)"/>
<path d="M71.4563 75.4703L44.4842 95.3027L51.6759 78.4299L78.6875 61.2815L71.4563 75.4703Z" fill="#E2E7EC"/>
<path d="M51.2266 78.7785L78.6868 61.5879V108.471L53.5149 126.119L51.2266 78.7785Z" fill="#D8DFE6"/>
<path d="M78.6875 61.5879L120.793 71.4386V118.339L78.6875 108.488V61.5879Z" fill="#E9EFF1"/>
<path d="M51.2266 78.7754L94.2476 88.8294V135.73L53.5149 126.376L51.2266 78.7754Z" fill="#E8EAEB"/>
<path d="M93.332 88.8449L120.792 71.6543V118.538L93.332 135.728V88.8449Z" fill="#D8DFE6"/>
<mask id="mask1_1814_54560" style="mask-type:luminance" maskUnits="userSpaceOnUse" x="93" y="71" width="28" height="65">
<path d="M93.332 88.8449L120.792 71.6543V118.538L93.332 135.728V88.8449Z" fill="white"/>
</mask>
<g mask="url(#mask1_1814_54560)">
<rect x="103.531" y="67.748" width="8.63036" height="71.8878" fill="#C7D0D9"/>
</g>
<path d="M105.68 102.776L132.692 85.6275L120.344 71.6543L93.332 88.8027L105.68 102.776Z" fill="#E2E7EC"/>
<path fillRule="evenodd" clipRule="evenodd" d="M114.387 27.5247C113.423 27.8195 93.4548 39.7668 93.4548 39.7668L99.282 40.2013L103.423 44.7777C103.423 44.7777 115.352 27.2298 114.387 27.5247Z" fill="#E8EAEB"/>
<mask id="mask2_1814_54560" style="mask-type:luminance" maskUnits="userSpaceOnUse" x="93" y="27" width="22" height="18">
<path fillRule="evenodd" clipRule="evenodd" d="M114.387 27.5247C113.423 27.8195 93.4548 39.7668 93.4548 39.7668L99.282 40.2013L103.423 44.7777C103.423 44.7777 115.352 27.2298 114.387 27.5247Z" fill="white"/>
</mask>
<g mask="url(#mask2_1814_54560)">
<path fillRule="evenodd" clipRule="evenodd" d="M99.2824 40.2016L114.388 27.525L103.423 44.778L99.2824 40.2016Z" fill="#D8DFE6"/>
</g>
<path fillRule="evenodd" clipRule="evenodd" d="M111.389 41.3687L104.386 40.6369L114.395 27.648L111.389 41.3687Z" fill="#E8EAEB"/>
<path fillRule="evenodd" clipRule="evenodd" d="M98.4937 50.0195C98.9312 49.0937 99.3717 48.1353 99.8152 47.1445L100.539 47.4686C100.094 48.4643 99.6508 49.4276 99.211 50.3584L98.4937 50.0195ZM95.6452 55.6688C96.1287 54.7768 96.6161 53.8425 97.1075 52.866L97.8161 53.2225C97.3212 54.2062 96.83 55.1476 96.3426 56.0469L95.6452 55.6688ZM94.0899 58.4146C93.5261 59.3649 92.9681 60.2554 92.4158 61.0862L93.0764 61.5254C93.6364 60.683 94.2017 59.781 94.7721 58.8194L94.0899 58.4146ZM88.5451 66.0303C89.2142 65.3363 89.8933 64.5442 90.5821 63.6542L91.2095 64.1398C90.5036 65.0517 89.806 65.8654 89.1162 66.5808L88.5451 66.0303ZM86.216 68.0786C85.2887 68.7431 84.3857 69.2027 83.5075 69.4596L83.7302 70.221C84.6992 69.9375 85.6816 69.4375 86.6781 68.7234L86.216 68.0786ZM77.9129 68.1637C78.7853 68.8672 79.6722 69.3279 80.5748 69.5501L80.3851 70.3204C79.3644 70.0691 78.374 69.5546 77.4149 68.7813L77.9129 68.1637ZM75.7744 65.9086C75.7252 65.8443 75.6761 65.7791 75.6271 65.7131C74.9886 64.8536 74.5247 64.0378 74.2289 63.2673L73.4883 63.5516C73.8114 64.3934 74.3108 65.2714 74.9903 66.1862C75.0415 66.2551 75.0927 66.323 75.144 66.3902L75.7744 65.9086ZM75.5844 57.9287C74.7276 58.6365 74.1764 59.4489 73.9516 60.3552L73.1816 60.1643C73.4498 59.0828 74.0978 58.1277 75.0792 57.3171L75.5844 57.9287ZM78.2352 56.4386C79.1279 56.09 80.1316 55.8058 81.2199 55.5912L81.0665 54.8129C79.9338 55.0362 78.8851 55.3332 77.9467 55.6997L78.2352 56.4386ZM87.4296 55.1387C86.3742 55.1012 85.3224 55.1186 84.2982 55.1907L84.2425 54.3994C85.2948 54.3252 86.3746 54.3074 87.4578 54.3459L87.4296 55.1387ZM90.5881 55.4157C91.6514 55.5671 92.6802 55.7745 93.6518 56.0344L93.8568 55.2681C92.8539 54.9998 91.7941 54.7861 90.6999 54.6304L90.5881 55.4157ZM99.2314 58.65C98.506 58.0597 97.6209 57.5298 96.5992 57.0693L96.9251 56.3461C98.0066 56.8335 98.9503 57.3985 99.7321 58.0347L99.2314 58.65ZM101.122 61.0329C101.313 61.4775 101.436 61.9408 101.488 62.4226C101.542 62.9323 101.561 63.4446 101.544 63.9596L102.337 63.9855C102.355 63.4337 102.335 62.8845 102.276 62.3381C102.216 61.7768 102.073 61.2364 101.851 60.7193L101.122 61.0329ZM99.8517 69.869C100.362 68.906 100.757 67.953 101.038 67.0102L101.798 67.2362C101.502 68.2307 101.087 69.2322 100.553 70.2406L99.8517 69.869ZM98.1724 72.5223C97.5854 73.3216 96.9219 74.1273 96.1818 74.9393L96.7681 75.4737C97.5266 74.6415 98.2078 73.8143 98.8118 72.9919L98.1724 72.5223ZM91.6261 79.2299C92.4681 78.5328 93.2566 77.8398 93.9915 77.1511L94.534 77.73C93.7869 78.43 92.9862 79.1337 92.132 79.8409L91.6261 79.2299ZM89.1257 81.1958C88.3103 81.8059 87.4548 82.4191 86.5593 83.0353L87.009 83.6888C87.913 83.0668 88.777 82.4475 89.6009 81.831L89.1257 81.1958ZM82.2469 85.8355C82.8105 85.4886 83.3618 85.1426 83.9007 84.7975L84.3285 85.4657C83.7855 85.8133 83.2303 86.1617 82.6627 86.511L82.2469 85.8355Z" fill="#C7D0D9"/>
<defs>
<radialGradient id="paint0_radial_1814_54560" cx="0" cy="0" r="1" gradientUnits="userSpaceOnUse" gradientTransform="translate(82.8373 128.229) rotate(-90) scale(32.6867 341.379)">
<stop stop-color="#EBEDF0" stop-opacity="0.24"/>
<stop offset="0.536775" stop-color="#EBEDF0" stop-opacity="0.845525"/>
<stop offset="1" stop-color="#E0E4E7" stop-opacity="0.01"/>
</radialGradient>
<linearGradient id="paint1_linear_1814_54560" x1="72.2363" y1="148.247" x2="73.7658" y2="151.518" gradientUnits="userSpaceOnUse">
<stop stop-color="#E1E7EA"/>
<stop offset="1" stop-color="#D0D6DC"/>
</linearGradient>
<linearGradient id="paint2_linear_1814_54560" x1="120.869" y1="129.631" x2="123.667" y2="135.469" gradientUnits="userSpaceOnUse">
<stop stop-color="#E1E7EA"/>
<stop offset="1" stop-color="#D0D6DC"/>
</linearGradient>
<linearGradient id="paint3_linear_1814_54560" x1="32.3236" y1="118.507" x2="33.9072" y2="124.816" gradientUnits="userSpaceOnUse">
<stop stop-color="#FBFBFB"/>
<stop offset="1" stop-color="#D9DFE3"/>
</linearGradient>
<linearGradient id="paint4_linear_1814_54560" x1="49.959" y1="130.303" x2="56.9998" y2="161.878" gradientUnits="userSpaceOnUse">
<stop stop-color="#C4CDD1"/>
<stop offset="1" stop-color="#C6CFD3" stop-opacity="0.01"/>
</linearGradient>
</defs>
</svg>
