<svg width="97" height="96" viewBox="0 0 97 96" fill="none" xmlns="http://www.w3.org/2000/svg">
<g clipPath="url(#clip0_1814_54087)">
<path d="M86.8765 17.5781H11.9898C10.9795 17.5788 10.0107 17.9804 9.29633 18.6948C8.58193 19.4092 8.18031 20.3779 8.17969 21.3882V90.0975C8.18031 91.1078 8.58193 92.0765 9.29633 92.7909C10.0107 93.5053 10.9795 93.9069 11.9898 93.9076H86.8765C87.8869 93.907 88.8557 93.5055 89.5702 92.7911C90.2847 92.0767 90.6863 91.1078 90.687 90.0975V21.3882C90.6863 20.3778 90.2847 19.409 89.5702 18.6946C88.8557 17.9802 87.8869 17.5786 86.8765 17.5781Z" fill="#C6C6C6"/>
<path d="M81.9467 70.0315H16.9205C14.8163 70.0315 13.1104 68.3256 13.1104 66.2214V5.51322C13.1104 3.40909 14.8163 1.70312 16.9205 1.70312H81.9467C84.0508 1.70312 85.7568 3.40909 85.7568 5.51322V66.2214C85.7568 68.3256 84.0508 70.0315 81.9467 70.0315Z" fill="#F9F9F9"/>
<path d="M14.3166 67.4273V6.71952C14.3166 4.61539 16.0226 2.90942 18.1267 2.90942H83.153C83.8962 2.90942 84.5871 3.12542 85.1729 3.49329C84.4993 2.41919 83.308 1.70312 81.9467 1.70312H16.9205C14.8163 1.70312 13.1104 3.40909 13.1104 5.51322V66.2214C13.1104 67.5831 13.8264 68.7741 14.9005 69.448C14.5326 68.8618 14.3166 68.1709 14.3166 67.4277V67.4273Z" fill="url(#paint0_linear_1814_54087)"/>
<path d="M73.946 14.5303H24.9219V17.3241H73.946V14.5303ZM73.946 25.1981H24.9219V27.9919H73.946V25.1981ZM73.946 35.8682H24.9219V38.6621H73.946V35.8682ZM73.946 46.536H24.9219V49.3303H73.946V46.536Z" fill="#D5D5D5"/>
<path d="M30.7637 37.5186L43.0828 49.838H30.7637V37.5186Z" fill="url(#paint1_linear_1814_54087)"/>
<path d="M90.6871 50.8535V22.5087L85.7568 17.5781V50.8531H90.6871V50.8535Z" fill="#C6C6C6"/>
<path d="M96.4618 53.4179L91.1499 91.02C90.8843 92.8998 89.2756 94.297 87.3772 94.297H11.4892C9.59085 94.297 7.98206 92.8998 7.71649 91.02L0.538126 40.2104C0.214323 37.9166 1.99426 35.8672 4.31085 35.8672H27.7466C29.645 35.8672 31.2538 37.2643 31.5194 39.1438L32.4601 45.7977C32.7257 47.6775 34.3344 49.0747 36.2328 49.0747H92.6899C95.0057 49.0747 96.786 51.1241 96.4622 53.4179H96.4618Z" fill="url(#paint2_linear_1814_54087)"/>
<path d="M77.6413 77.5246H21.2259C20.9167 77.5245 20.6181 77.4116 20.3861 77.2072C20.1542 77.0027 20.0047 76.7207 19.9657 76.4139L19.2599 70.8255C19.2375 70.6467 19.2533 70.4652 19.3064 70.293C19.3594 70.1208 19.4485 69.9619 19.5677 69.8268C19.6869 69.6916 19.8334 69.5834 19.9976 69.5092C20.1618 69.435 20.3399 69.3966 20.5201 69.3965H78.3471C78.5273 69.3966 78.7054 69.435 78.8696 69.5092C79.0338 69.5834 79.1803 69.6916 79.2995 69.8268C79.4187 69.9619 79.5077 70.1208 79.5608 70.293C79.6139 70.4652 79.6297 70.6467 79.6073 70.8255L78.9015 76.4139C78.8625 76.7207 78.713 77.0027 78.481 77.2072C78.2491 77.4116 77.9505 77.5245 77.6413 77.5246Z" fill="#D5D5D5"/>
</g>
<defs>
<linearGradient id="paint0_linear_1814_54087" x1="51.6677" y1="38.0974" x2="3.48281" y2="-10.088" gradientUnits="userSpaceOnUse">
<stop stop-color="white"/>
</linearGradient>
<linearGradient id="paint1_linear_1814_54087" x1="38.9028" y1="51.8147" x2="24.0122" y2="36.9245" gradientUnits="userSpaceOnUse">
<stop stop-color="#C2CECE" stop-opacity="0"/>
<stop offset="0.179" stop-color="#AFBCBC" stop-opacity="0.179"/>
<stop offset="1" stop-color="#5B6A6A"/>
</linearGradient>
<linearGradient id="paint2_linear_1814_54087" x1="48.5" y1="35.8672" x2="48.5" y2="94.297" gradientUnits="userSpaceOnUse">
<stop stop-color="#EEF0F4"/>
<stop offset="0.927" stop-color="#E4E4E4"/>
</linearGradient>
<clipPath id="clip0_1814_54087">
<rect width="96" height="96" fill="white" transform="translate(0.5)"/>
</clipPath>
</defs>
</svg>
