<svg width="251" height="197" viewBox="0 0 251 197" fill="none" xmlns="http://www.w3.org/2000/svg">
<path fill-rule="evenodd" clip-rule="evenodd" d="M135.887 0.86377C112.935 0.86377 91.839 8.81998 75.1816 22.1314H48.2602C44.7625 22.1314 41.9008 25.0025 41.9008 28.5117C41.9008 32.0208 44.7625 34.8919 48.2602 34.8919H61.9613H65.9762C69.4739 34.8919 72.3356 37.7631 72.3356 41.2722C72.3356 43.0247 71.6191 44.624 70.4659 45.7767C69.317 46.9337 67.7229 47.6525 65.9762 47.6525H57.4105H52.6808H29.606C26.1083 47.6525 23.2466 50.5236 23.2466 54.0328C23.2466 57.542 26.1083 60.4131 29.606 60.4131H46.1251C41.1385 72.1707 38.3764 85.1078 38.3764 98.6948C38.3764 103.625 38.741 108.469 39.4406 113.204C39.7331 115.181 40.085 117.142 40.4962 119.082C52.4943 117.24 65.2215 115.76 78.5084 114.68L79.509 115.594L80.4502 114.526C96.4122 113.28 113.167 112.617 130.448 112.617C167.163 112.617 201.52 115.611 230.896 120.817C232.028 115.892 232.792 110.826 233.152 105.645C233.317 103.348 233.398 101.03 233.398 98.6948C233.398 44.6623 189.743 0.86377 135.887 0.86377Z" fill="#AA2400" fill-opacity="0.16"/>
<path fill-rule="evenodd" clip-rule="evenodd" d="M10.2956 47.3574H6.44163C2.8986 47.3574 -0.000244141 50.2865 -0.000244141 53.8665C-0.000244141 57.4465 2.8986 60.3756 6.44163 60.3756H10.2956C13.8386 60.3756 16.7375 57.4465 16.7375 53.8665C16.7375 50.2865 13.8386 47.3574 10.2956 47.3574Z" fill="#AA2400" fill-opacity="0.16"/>
<mask id="mask0_15_8918" style="mask-type:luminance" maskUnits="userSpaceOnUse" x="40" y="112" width="212" height="85">
<path fill-rule="evenodd" clip-rule="evenodd" d="M251 112.756V196.136H145.682H40.3643V112.756H251Z" fill="white"/>
</mask>
<g mask="url(#mask0_15_8918)">
<path fill-rule="evenodd" clip-rule="evenodd" d="M251 144.993C251 148.48 248.139 151.333 244.642 151.333H204.032C202.286 151.333 200.693 152.048 199.544 153.197C198.391 154.343 197.674 155.932 197.674 157.673C197.674 161.16 200.535 164.013 204.032 164.013H211.577C213.323 164.013 214.917 164.728 216.066 165.877C217.219 167.023 217.935 168.612 217.935 170.354C217.935 173.841 215.074 176.694 211.577 176.694H194.229C177.931 188.9 157.68 196.136 135.732 196.136C88.8578 196.136 49.7103 163.147 40.3643 119.181C52.3594 117.351 65.0836 115.88 78.3673 114.806L79.3672 115.715L80.3086 114.654C96.2664 113.416 113.018 112.756 130.294 112.756C167 112.756 201.349 115.732 230.718 120.905C229.29 127.068 227.273 133.002 224.73 138.653H244.642C246.393 138.653 247.978 139.368 249.131 140.517C250.284 141.663 251 143.252 251 144.993Z" fill="#E8EBF2"/>
</g>
<path fill-rule="evenodd" clip-rule="evenodd" d="M232.468 105.356C232.108 110.635 231.346 115.798 230.215 120.817C200.878 115.512 166.566 112.461 129.9 112.461C112.642 112.461 95.9096 113.136 79.9688 114.407L91.0236 101.598L108.221 112.82L131.5 106.392L171.548 112.461L188.934 106.392L193.338 112.461L203.843 104.663L213.661 113.661L229.144 101.29L232.468 105.356Z" fill="#E0E2EE"/>
<path fill-rule="evenodd" clip-rule="evenodd" d="M175.393 110.96C179.796 104.559 182.319 96.9682 182.254 88.8444C182.074 66.2489 161.944 48.092 137.294 48.2887C112.644 48.4858 92.8078 66.9632 92.9883 89.5586C93.1687 112.154 113.298 130.311 137.948 130.114C146.755 130.044 154.947 127.639 161.832 123.547L180.248 127.883L175.393 110.96Z" fill="url(#paint0_linear_15_8918)"/>
<path d="M118.194 81.3249L120.367 85.7279L125.227 86.4357C125.392 86.4592 125.547 86.5285 125.674 86.6357C125.802 86.7429 125.897 86.8836 125.949 87.0421C126.001 87.2005 126.007 87.3703 125.968 87.5322C125.928 87.6941 125.844 87.8417 125.725 87.9582L122.202 91.39L123.025 96.2333C123.053 96.3976 123.034 96.5664 122.972 96.7208C122.909 96.8752 122.804 97.009 122.67 97.1072C122.535 97.2055 122.376 97.2643 122.21 97.2771C122.043 97.29 121.877 97.2562 121.729 97.1798L117.408 94.8919L113.055 97.1798C112.907 97.2568 112.74 97.2909 112.574 97.2782C112.408 97.2656 112.249 97.2067 112.114 97.1082C111.98 97.0098 111.876 96.8756 111.814 96.721C111.751 96.5664 111.734 96.3974 111.763 96.2333L112.586 91.39L109.059 87.9582C108.941 87.841 108.859 87.6935 108.82 87.532C108.781 87.3706 108.788 87.2015 108.839 87.0437C108.891 86.8858 108.985 86.7454 109.112 86.6381C109.239 86.5307 109.393 86.4607 109.557 86.4357L114.421 85.7279L116.593 81.3249C116.668 81.177 116.783 81.0527 116.924 80.9658C117.065 80.879 117.228 80.833 117.394 80.833C117.56 80.833 117.722 80.879 117.864 80.9658C118.005 81.0527 118.119 81.177 118.194 81.3249Z" fill="#AA2400"/>
<path d="M139.113 81.3249L141.285 85.7279L146.145 86.4357C146.31 86.4592 146.465 86.5285 146.593 86.6357C146.721 86.7429 146.816 86.8836 146.868 87.0421C146.919 87.2005 146.926 87.3703 146.886 87.5322C146.846 87.6941 146.762 87.8417 146.643 87.9582L143.121 91.39L143.944 96.2333C143.971 96.3976 143.953 96.5664 143.89 96.7208C143.827 96.8752 143.723 97.009 143.588 97.1072C143.453 97.2055 143.294 97.2643 143.128 97.2771C142.962 97.29 142.795 97.2562 142.647 97.1798L138.327 94.8919L133.973 97.1798C133.825 97.2568 133.659 97.2909 133.493 97.2782C133.327 97.2656 133.167 97.2067 133.033 97.1082C132.898 97.0098 132.794 96.8756 132.732 96.721C132.67 96.5664 132.652 96.3974 132.681 96.2333L133.504 91.39L129.978 87.9582C129.86 87.841 129.777 87.6935 129.738 87.532C129.699 87.3706 129.706 87.2015 129.758 87.0437C129.809 86.8858 129.904 86.7454 130.031 86.6381C130.157 86.5307 130.311 86.4607 130.475 86.4357L135.339 85.7279L137.512 81.3249C137.587 81.177 137.701 81.0527 137.843 80.9658C137.984 80.879 138.146 80.833 138.312 80.833C138.478 80.833 138.641 80.879 138.782 80.9658C138.923 81.0527 139.038 81.177 139.113 81.3249Z" fill="#AA2400"/>
<path d="M160.031 81.3249L162.204 85.7279L167.064 86.4357C167.229 86.4592 167.384 86.5285 167.511 86.6357C167.639 86.7429 167.734 86.8836 167.786 87.0421C167.838 87.2005 167.844 87.3703 167.805 87.5322C167.765 87.6941 167.681 87.8417 167.561 87.9582L164.039 91.39L164.862 96.2333C164.89 96.3976 164.871 96.5664 164.808 96.7208C164.746 96.8752 164.641 97.009 164.506 97.1072C164.372 97.2055 164.213 97.2643 164.046 97.2771C163.88 97.29 163.714 97.2562 163.566 97.1798L159.245 94.8919L154.892 97.1798C154.744 97.2568 154.577 97.2909 154.411 97.2782C154.245 97.2656 154.086 97.2067 153.951 97.1082C153.817 97.0098 153.713 96.8756 153.65 96.721C153.588 96.5664 153.571 96.3974 153.599 96.2333L154.422 91.39L150.896 87.9582C150.778 87.841 150.695 87.6935 150.657 87.532C150.618 87.3706 150.625 87.2015 150.676 87.0437C150.728 86.8858 150.822 86.7454 150.949 86.6381C151.076 86.5307 151.23 86.4607 151.394 86.4357L156.258 85.7279L158.43 81.3249C158.505 81.177 158.62 81.0527 158.761 80.9658C158.902 80.879 159.065 80.833 159.231 80.833C159.397 80.833 159.559 80.879 159.7 80.9658C159.842 81.0527 159.956 81.177 160.031 81.3249Z" fill="#AA2400"/>
<path fill-rule="evenodd" clip-rule="evenodd" d="M79.9689 114.308L79.067 115.238L78.1091 114.441C78.7259 114.393 79.3476 114.349 79.9689 114.308Z" fill="#AA2400" fill-opacity="0.16"/>
<path fill-rule="evenodd" clip-rule="evenodd" d="M88.3376 120.818C88.3376 123.771 89.282 126.52 90.905 128.834L89.1825 135.007L95.8892 133.375C98.4106 134.842 101.401 135.695 104.61 135.695C113.598 135.695 120.883 129.034 120.883 120.818C120.883 112.601 113.598 105.939 104.61 105.939C95.623 105.939 88.3376 112.601 88.3376 120.818Z" fill="url(#paint1_linear_15_8918)"/>
<path fill-rule="evenodd" clip-rule="evenodd" d="M108.795 120.817C108.795 121.844 109.627 122.677 110.654 122.677C111.681 122.677 112.514 121.844 112.514 120.817C112.514 119.791 111.681 118.958 110.654 118.958C109.627 118.958 108.795 119.791 108.795 120.817Z" fill="#AA2400"/>
<path fill-rule="evenodd" clip-rule="evenodd" d="M103.216 120.817C103.216 121.844 104.048 122.677 105.075 122.677C106.102 122.677 106.935 121.844 106.935 120.817C106.935 119.791 106.102 118.958 105.075 118.958C104.048 118.958 103.216 119.791 103.216 120.817Z" fill="#AA2400"/>
<path fill-rule="evenodd" clip-rule="evenodd" d="M96.7065 120.817C96.7065 121.844 97.539 122.677 98.5663 122.677C99.5931 122.677 100.426 121.844 100.426 120.817C100.426 119.791 99.5931 118.958 98.5663 118.958C97.539 118.958 96.7065 119.791 96.7065 120.817Z" fill="#AA2400"/>
<path fill-rule="evenodd" clip-rule="evenodd" d="M78.1091 114.548C64.8267 115.63 52.1037 117.113 40.1097 118.957C39.6986 117.015 39.3469 115.051 39.0544 113.07L59.6133 97.5703L78.1091 114.548Z" fill="#E0E2EE"/>
<path fill-rule="evenodd" clip-rule="evenodd" d="M171.096 146.389C171.096 148.186 154.86 149.643 134.831 149.643C114.802 149.643 98.5662 148.186 98.5662 146.389C98.5662 144.592 114.802 143.134 134.831 143.134C154.86 143.134 171.096 144.592 171.096 146.389Z" fill="#D8DBEA"/>
<path fill-rule="evenodd" clip-rule="evenodd" d="M230.608 176.61C227.028 176.61 224.099 173.68 224.099 170.1C224.099 166.52 227.028 163.591 230.608 163.591C234.188 163.591 237.117 166.52 237.117 170.1C237.117 173.68 234.188 176.61 230.608 176.61Z" fill="#E1E3EF"/>
<defs>
<linearGradient id="paint0_linear_15_8918" x1="137.621" y1="7.37271" x2="56.1009" y2="96.3036" gradientUnits="userSpaceOnUse">
<stop stop-color="#AA2400" stop-opacity="0.3"/>
<stop offset="1" stop-color="#AA2400" stop-opacity="0.7"/>
</linearGradient>
<linearGradient id="paint1_linear_15_8918" x1="104.61" y1="91.0615" x2="74.9736" y2="123.477" gradientUnits="userSpaceOnUse">
<stop stop-color="#AA2400" stop-opacity="0.3"/>
<stop offset="1" stop-color="#AA2400" stop-opacity="0.7"/>
</linearGradient>
</defs>
</svg>
