<svg width="192" height="191" viewBox="0 0 192 191" fill="none" xmlns="http://www.w3.org/2000/svg">
<path d="M190.705 171.601C195.312 162.484 182.146 116.902 90.8574 116.902C24.9654 116.902 -5.2772 154.212 1.40885 173.12" fill="url(#paint0_radial_1814_53567)"/>
<mask id="mask0_1814_53567" style="mask-type:luminance" maskUnits="userSpaceOnUse" x="0" y="116" width="192" height="58">
<path d="M190.705 171.601C195.312 162.484 182.146 116.902 90.8574 116.902C24.9654 116.902 -5.2772 154.212 1.40885 173.12" fill="white"/>
</mask>
<g mask="url(#mask0_1814_53567)">
<ellipse opacity="0.671968" cx="76.7773" cy="142.464" rx="5.02044" ry="2.78861" fill="url(#paint1_linear_1814_53567)"/>
<ellipse opacity="0.729957" cx="128.02" cy="138.207" rx="7.92114" ry="4.35023" fill="url(#paint2_linear_1814_53567)"/>
<ellipse opacity="0.729957" cx="37.8743" cy="126.606" rx="7.92114" ry="4.35023" fill="url(#paint3_linear_1814_53567)"/>
</g>
<g opacity="0.320685">
<ellipse cx="148.645" cy="40.8713" rx="5.35514" ry="5.35413" fill="url(#paint4_linear_1814_53567)"/>
<path d="M145.287 36.6256C142.988 36.3016 141.308 36.5556 140.993 37.422C140.487 38.8113 143.682 41.2494 148.128 42.8675C152.575 44.4857 156.59 44.6712 157.096 43.2819C157.414 42.4077 155.955 41.1846 153.953 39.9455" stroke="url(#paint5_linear_1814_53567)" strokeWidth="4.20561"/>
<path d="M154.012 40.8713C154.012 37.9143 151.615 35.5172 148.657 35.5172C145.7 35.5172 143.847 37.4078 143.465 39.5395C143.465 39.5395 146.543 41.4667 147.965 41.8809C148.418 42.013 148.867 42.1844 149.325 42.3363C149.837 42.5062 150.358 42.6561 150.886 42.7861C151.246 42.8751 151.741 43.0127 152.203 43.0985C152.812 43.2118 153.358 43.2624 153.401 43.2624C153.477 43.2624 153.559 42.9257 153.73 42.5334C153.9 42.1411 154.012 40.8713 154.012 40.8713Z" fill="url(#paint6_linear_1814_53567)"/>
</g>
<circle opacity="0.418364" cx="30.9864" cy="72.4576" r="6.24423" fill="url(#paint7_linear_1814_53567)"/>
<ellipse opacity="0.5" cx="98.5706" cy="125.717" rx="18.7327" ry="5.14231" fill="url(#paint8_linear_1814_53567)"/>
<path d="M91.3896 19.8263L93.4606 20.5801L55.1445 125.853C54.9363 126.425 54.304 126.719 53.7321 126.511C53.1602 126.303 52.8654 125.671 53.0735 125.099L91.3896 19.8263Z" fill="#D8D8D8"/>
<path d="M91.3379 19.8772L107.6 30.5917C108.937 31.4725 110.43 32.089 111.999 32.4077C120.489 34.1329 126.025 42.3515 124.432 50.8676L120.59 71.4056C120.572 71.5007 120.437 71.5035 120.414 71.4095C118.632 64.2211 111.85 59.382 104.476 60.078C101.117 60.395 97.7828 59.2614 95.3129 56.9627L82.261 44.8157L91.3379 19.8772Z" fill="white"/>
<circle cx="92.2482" cy="19.5233" r="1.46923" transform="rotate(20 92.2482 19.5233)" fill="#D8D8D8"/>
<path d="M67.6445 82.7882C67.6445 82.7882 68.7465 82.2373 68.7465 82.4209C68.7465 82.6046 68.7465 84.6248 68.7465 84.6248L68.0118 84.9921L67.6445 82.7882Z" fill="#FFE9E9"/>
<path d="M93.5687 98.8961C93.5687 98.8961 92.9995 100.544 92.9995 101.703C92.4304 111.79 93.8411 128.237 93.8411 128.237H96.0321L99.2662 103.49L103.65 128.237H105.805C105.805 128.237 106.09 112.351 105.236 101.703C105.236 100.556 104.74 99.4567 104.74 99.4567L93.5687 98.8961Z" fill="url(#paint9_linear_1814_53567)"/>
<path d="M91.6413 86.1275L87.298 87.1552L85.8158 86.7614L76.3999 85.3941L74.1263 85.3941L74.1173 82.3842L74.6782 83.5398L75.6875 83.8569C75.6875 83.8569 76.2315 82.7581 76.3999 82.9455C76.5683 83.133 76.6413 83.905 76.6413 83.905L77.4826 84.3404L87.5069 84.3404L89.8754 82.9488L91.6413 86.1275Z" fill="#FDE7E6"/>
<path d="M105.769 86.1275L110.242 87.1552L111.724 86.7614L121.14 85.3941L123.716 84.0807L124.592 82.3323L124.264 82.286L122.862 83.5398L121.853 83.8569C121.853 83.8569 121.309 82.7581 121.14 82.9455C120.972 83.133 120.899 83.905 120.899 83.905L120.057 84.3404L110.033 84.3404L107.535 82.9488L105.769 86.1275Z" fill="#FDE7E6"/>
<path d="M108.322 83.133L106.944 86.4892H103.574L105.062 100.429C105.062 100.429 100.812 101.143 98.565 101.316C96.3178 101.49 93.1203 100.429 93.1203 100.429C93.1203 100.429 93.1203 95.5683 93.1203 86.8444L90.128 86.4892L89.5766 83.133C89.5766 83.133 92.3714 81.1711 93.1203 80.845C93.8692 80.5189 96.4005 80.15 96.4005 80.15L100.405 80.15C100.405 80.15 103.586 80.273 104.187 80.845C104.789 81.417 108.322 83.133 108.322 83.133Z" fill="url(#paint10_linear_1814_53567)"/>
<path fillRule="evenodd" clipRule="evenodd" d="M100.133 77.7053H97.625V81.0334H100.133V77.7053ZM98.6284 82.9383C98.6284 82.4658 97.6252 81.0337 97.6252 81.0337H100.133C100.133 81.0337 98.6284 83.4108 98.6284 82.9383Z" fill="#FECECD"/>
<ellipse cx="98.7596" cy="76.6916" rx="2.63952" ry="3.74103" fill="#FFE9E9"/>
<path fillRule="evenodd" clipRule="evenodd" d="M95.863 76.9344C96.0741 76.229 96.0741 74.6734 96.4965 74.6226C96.9188 74.5719 97.7634 74.8665 98.6081 74.295C99.0304 73.9813 99.2415 73.942 99.2415 73.7844C101.353 74.1598 100.09 75.2927 101.142 76.5406C101.252 76.6708 101.564 76.5406 101.564 76.5406C101.564 76.5406 101.564 73.4679 101.353 73.1938C101.142 72.9197 100.297 71.8157 99.875 72.6032C99.875 72.2095 99.0304 71.8032 98.1857 72.1048C97.3411 72.4063 96.0741 72.997 95.863 73.7844C95.6518 74.5719 95.4406 76.1469 95.863 76.9344Z" fill="#513450"/>
<path d="M94.0093 128.237L93.4231 129.235C93.0386 129.889 92.8359 130.634 92.8359 131.393C92.8359 131.45 92.8825 131.497 92.9399 131.497H95.6647C95.9029 131.497 96.0961 131.304 96.0961 131.066C96.0961 130.273 95.9505 129.488 95.6666 128.748L95.4705 128.237H94.0093Z" fill="#677285"/>
<path d="M105.519 128.237L106.105 129.235C106.49 129.889 106.692 130.634 106.692 131.393C106.692 131.45 106.646 131.497 106.588 131.497H103.864C103.625 131.497 103.432 131.304 103.432 131.066C103.432 130.273 103.578 129.488 103.862 128.748L104.058 128.237H105.519Z" fill="#677285"/>
<defs>
<radialGradient id="paint0_radial_1814_53567" cx="0" cy="0" r="1" gradientUnits="userSpaceOnUse" gradientTransform="translate(83.3373 136.398) rotate(-90) scale(32.6867 341.379)">
<stop stop-color="#EBEDF0" stop-opacity="0.24"/>
<stop offset="0.536775" stop-color="#EBEDF0" stop-opacity="0.845525"/>
<stop offset="1" stop-color="#E0E4E7" stop-opacity="0.01"/>
</radialGradient>
<linearGradient id="paint1_linear_1814_53567" x1="72.7363" y1="141.725" x2="74.2658" y2="144.996" gradientUnits="userSpaceOnUse">
<stop stop-color="#E1E7EA"/>
<stop offset="1" stop-color="#D0D6DC"/>
</linearGradient>
<linearGradient id="paint2_linear_1814_53567" x1="121.369" y1="137.8" x2="124.167" y2="143.638" gradientUnits="userSpaceOnUse">
<stop stop-color="#E1E7EA"/>
<stop offset="1" stop-color="#D0D6DC"/>
</linearGradient>
<linearGradient id="paint3_linear_1814_53567" x1="32.8236" y1="126.676" x2="34.4072" y2="132.985" gradientUnits="userSpaceOnUse">
<stop stop-color="#FBFBFB"/>
<stop offset="1" stop-color="#D9DFE3"/>
</linearGradient>
<linearGradient id="paint4_linear_1814_53567" x1="141.33" y1="37.1845" x2="144.007" y2="46.4417" gradientUnits="userSpaceOnUse">
<stop stop-color="#ECECEC"/>
<stop offset="0.717538" stop-color="#E1E7EA"/>
<stop offset="1" stop-color="#BCC3CA"/>
</linearGradient>
<linearGradient id="paint5_linear_1814_53567" x1="145.073" y1="40.9875" x2="156.427" y2="45.12" gradientUnits="userSpaceOnUse">
<stop stop-color="#BAC6D2"/>
<stop offset="1" stop-color="#7F8F9F"/>
</linearGradient>
<linearGradient id="paint6_linear_1814_53567" x1="146.677" y1="40.4106" x2="148.428" y2="43.9481" gradientUnits="userSpaceOnUse">
<stop stop-color="#E1E7EA"/>
<stop offset="1" stop-color="#D0D6DC"/>
</linearGradient>
<linearGradient id="paint7_linear_1814_53567" x1="39.1955" y1="74.311" x2="32.9604" y2="63.781" gradientUnits="userSpaceOnUse">
<stop stop-color="#DAE2E6"/>
<stop offset="0.58" stop-color="#E3EBEF"/>
<stop offset="1" stop-color="#EDF6F9"/>
</linearGradient>
<linearGradient id="paint8_linear_1814_53567" x1="84.5096" y1="126.327" x2="95.0314" y2="142.695" gradientUnits="userSpaceOnUse">
<stop stop-color="#C4CDD1"/>
<stop offset="1" stop-color="#C6CFD3" stop-opacity="0.01"/>
</linearGradient>
<linearGradient id="paint9_linear_1814_53567" x1="105.828" y1="128.237" x2="105.828" y2="99.1161" gradientUnits="userSpaceOnUse">
<stop stop-color="#A1A7B8"/>
<stop offset="1" stop-color="#7B8195"/>
</linearGradient>
<linearGradient id="paint10_linear_1814_53567" x1="117.805" y1="89.8256" x2="99.7651" y2="110.459" gradientUnits="userSpaceOnUse">
<stop stop-color="#E5E9F0"/>
<stop offset="1" stop-color="#D2DAE8"/>
</linearGradient>
</defs>
</svg>
